<svg xmlns="http://www.w3.org/2000/svg" xmlns:xlink="http://www.w3.org/1999/xlink" preserveAspectRatio="xMidYMid meet" version="1.0" viewBox="0.0 -0.0 500.0 31.3" zoomAndPan="magnify" style="fill: rgba(255, 255, 255, 1);" original_string_length="28180" width="512.9203087049814px" height="31.707800901762486px"><g><g><g id="__id94_sbe5xjscr7"><path d="M235.49,13.81c-.81,.89-1.88,1.53-3.09,1.82,1.21,.29,2.28,.93,3.09,1.82,.4-.76,1.01-1.4,1.76-1.82-.75-.42-1.36-1.06-1.76-1.82Z" style="fill: inherit;"/><path d="M231.92,14.46c.05-.09,.09-.17,.13-.25,.08-.16,.14-.29,.2-.4,.05-.11,.09-.2,.11-.26,.02-.05,.03-.07,.03-.09,0,.01-.02,.04-.04,.08-.03,.06-.07,.14-.13,.25-.06,.11-.13,.24-.22,.39-.05,.07-.1,.15-.15,.23-.06,.08-.12,.17-.18,.26-.19,.25-.42,.53-.69,.82-.06-.07-.12-.14-.19-.2-.41-.43-.92-.87-1.52-1.24-.6-.37-1.29-.69-2.04-.88-.75-.19-1.55-.25-2.34-.13-.2,.03-.39,.07-.58,.12-.19,.05-.38,.11-.56,.17-.18,.07-.36,.14-.53,.23-.02,.01-.04,.02-.06,.03l-.06,.03s-.08,.04-.13,.07c-.04,.02-.08,.05-.12,.07-.02,.01-.04,.02-.06,.04-.02,.01-.04,.03-.06,.04-.16,.11-.31,.23-.45,.35-.14,.12-.27,.25-.39,.39-.12,.14-.23,.28-.33,.44-.05,.08-.09,.17-.13,.27-.04,.1-.07,.21-.07,.35,0,.14,.03,.25,.07,.35,.04,.1,.08,.19,.13,.27,.1,.16,.21,.31,.33,.44,.12,.14,.25,.26,.39,.39,.14,.12,.28,.24,.45,.35,.02,.01,.04,.03,.06,.04l.03,.02,.03,.02,.12,.07s.08,.05,.13,.07l.06,.03,.06,.03c.17,.08,.35,.16,.53,.23,.18,.07,.37,.13,.56,.17,.19,.05,.38,.09,.58,.12,.78,.11,1.59,.05,2.34-.13,.75-.19,1.44-.5,2.04-.88,.6-.37,1.11-.81,1.52-1.24,.06-.07,.13-.14,.19-.2,.27,.28,.5,.56,.69,.82,.03,.05,.06,.09,.09,.13l.09,.13c.05,.08,.11,.16,.15,.23,.09,.15,.17,.28,.22,.39,.06,.11,.1,.19,.13,.25,.02,.04,.03,.07,.04,.08,0-.01-.02-.04-.03-.09-.02-.06-.06-.15-.11-.26-.05-.11-.11-.25-.2-.4-.04-.08-.09-.16-.13-.25-.02-.04-.05-.09-.08-.13-.03-.05-.06-.09-.08-.14-.17-.28-.39-.58-.66-.9,.27-.31,.48-.62,.66-.9,.06-.09,.11-.19,.16-.27Zm-1.28,1.36c-.43,.39-.95,.78-1.55,1.1-.59,.32-1.27,.58-1.97,.71-.7,.14-1.44,.15-2.14,.02-.17-.03-.35-.07-.51-.12-.17-.05-.33-.11-.49-.17-.16-.07-.31-.14-.46-.22l-.06-.03-.06-.03s-.07-.04-.11-.06l-.11-.07-.03-.02-.02-.02s-.03-.02-.05-.03c-.13-.09-.25-.2-.37-.3-.12-.11-.23-.22-.32-.34s-.19-.23-.25-.34c-.03-.06-.06-.11-.08-.16-.02-.05-.02-.09-.02-.11s0-.06,.02-.11c.02-.05,.04-.1,.08-.16,.07-.11,.15-.23,.25-.35s.21-.23,.32-.34c.12-.11,.24-.21,.37-.3l.05-.03s.03-.02,.05-.03l.11-.07s.07-.04,.11-.06l.06-.03s.04-.02,.06-.03c.15-.08,.3-.15,.46-.22,.16-.07,.32-.12,.49-.17,.17-.05,.34-.09,.51-.12,.7-.13,1.43-.12,2.14,.02,.71,.14,1.38,.39,1.97,.71,.6,.32,1.12,.71,1.55,1.1,.07,.06,.14,.13,.2,.19-.06,.06-.13,.13-.2,.19Z" style="fill: inherit;"/><path d="M229.24,27.54c-.02-.05-.03-.11-.05-.16l-.05-.16c-.04-.1-.08-.21-.12-.31-.17-.41-.38-.79-.64-1.15l-.1-.13s-.07-.09-.1-.13l-.03-.03-.03-.03-.05-.06s-.04-.04-.05-.06l-.06-.06c-.07-.08-.15-.16-.22-.23l-.11-.11s-.08-.07-.12-.11c-.31-.3-.63-.58-.97-.84-.67-.53-1.39-.99-2.11-1.42-1.45-.86-2.96-1.59-4.38-2.44-.59-.35-1.17-.72-1.75-1.09-.69-.45-1.37-.93-2.03-1.43-.66-.5-1.29-1.03-1.89-1.6-.13-.13-.27-.26-.4-.39,.14-.14,.28-.27,.42-.41,.6-.56,1.24-1.07,1.91-1.56,.66-.49,1.35-.95,2.05-1.39l.22-.14,.22-.14c.15-.09,.29-.18,.44-.27,.07-.04,.15-.09,.22-.13l.22-.13c.15-.09,.3-.17,.45-.25,.72-.41,1.46-.8,2.19-1.2,.73-.4,1.47-.81,2.18-1.25,.72-.44,1.42-.92,2.08-1.45,.04-.03,.08-.07,.12-.1l.12-.1c.08-.07,.16-.14,.24-.21,.16-.14,.32-.28,.47-.43,.15-.15,.3-.3,.45-.46,.04-.04,.07-.08,.11-.12l.05-.06s.03-.04,.05-.06c.07-.09,.14-.17,.2-.26,.13-.18,.24-.37,.35-.56,.03-.05,.05-.1,.08-.14l.07-.15c.05-.1,.09-.2,.13-.3,.17-.4,.29-.83,.36-1.27,.03-.23,.04-.45,.03-.68,0-.03,0-.06,0-.09v-.09c-.01-.06-.02-.11-.03-.17l-.02-.09s-.01-.06-.02-.09l-.02-.08v-.04l-.02-.04c-.07-.22-.17-.44-.3-.64-.13-.2-.3-.38-.49-.53-.01,0-.02-.02-.04-.03l-.04-.03-.07-.05-.08-.05-.04-.02s-.03-.01-.04-.02l-.08-.04s-.05-.03-.08-.04c-.05-.03-.11-.05-.16-.07h-.02l-.02-.02h-.04s-.06-.03-.08-.04c-.06-.02-.11-.03-.17-.04-.03,0-.06-.01-.09-.02h-.09l-.04-.02h-.13c-.23-.03-.47-.02-.7,.03-.23,.05-.45,.12-.66,.21-.05,.02-.1,.05-.15,.08-.03,.01-.05,.03-.08,.04l-.07,.04-.04,.02-.04,.02-.07,.05-.07,.05s-.05,.03-.07,.05c-.18,.14-.35,.29-.5,.46-.15,.17-.29,.36-.4,.56,0,.01-.01,.02-.02,.04l-.02,.04-.04,.08s-.02,.05-.04,.08c-.01,.03-.02,.05-.04,.08l-.03,.08s-.02,.05-.03,.08c-.02,.06-.04,.11-.05,.17,0,.03-.01,.06-.02,.09,0,.03,0,.06-.01,.08,0,.03,0,.06,0,.08,0,.03,0,.05,0,.08,0,.03,0,.05,0,.08,0,.02,0,.05,0,.07,0,.02,0,.05,.01,.07,0,.02,.01,.04,.02,.06,.01,.04,.03,.07,.04,.1,.02,.03,.04,.05,.05,.07,.04,.04,.08,.06,.12,.05,.04,0,.08-.03,.11-.07,.02-.02,.03-.04,.05-.07,.02-.03,.03-.05,.05-.08,.06-.12,.11-.28,.16-.46,.01-.04,.03-.09,.04-.13,0-.02,.02-.04,.02-.06l.02-.06s.02-.04,.03-.06c0-.02,.02-.04,.03-.06l.03-.06,.02-.03,.02-.03c.09-.16,.2-.32,.32-.46,.25-.28,.56-.51,.9-.67,.17-.08,.35-.13,.53-.17,.18-.03,.36-.05,.54-.03h.1l.03,.02h.07l.07,.02s.09,.02,.13,.03c.02,0,.04,.01,.06,.02h.03l.02,.02h.02s.08,.04,.12,.06c.02,0,.04,.02,.06,.03l.06,.03,.03,.02,.03,.02,.06,.03,.05,.04,.03,.02,.03,.02,.05,.04s.03,.03,.05,.04c.03,.03,.06,.06,.09,.09h.01v.02l.03,.03,.04,.05,.04,.05,.02,.03h0v.03c.11,.15,.18,.31,.23,.49v.03l.02,.03,.02,.07s0,.05,.01,.07v.07s.03,.09,.03,.14v.07s.01,.05,.01,.07c.01,.19,0,.38-.03,.56-.03,.19-.07,.38-.13,.57l-.04,.14-.05,.14v.03l-.03,.03-.03,.07s-.02,.05-.03,.07l-.03,.07c-.04,.09-.08,.18-.12,.27l-.07,.13s-.05,.09-.07,.13c-.1,.17-.2,.34-.31,.5-.06,.08-.12,.16-.18,.23-.02,.02-.03,.04-.05,.06l-.05,.05s-.06,.07-.1,.11c-.14,.15-.28,.29-.42,.43-.15,.14-.3,.28-.45,.41-.08,.07-.15,.13-.23,.2l-.12,.1s-.08,.06-.12,.1c-.64,.51-1.32,.98-2.02,1.41-.7,.43-1.42,.84-2.15,1.24-.73,.4-1.47,.79-2.2,1.2-.15,.09-.3,.17-.45,.26l-.22,.13c-.08,.04-.15,.09-.22,.13-.15,.09-.3,.18-.45,.27l-.22,.14-.22,.14c-.71,.45-1.41,.91-2.09,1.41-.68,.5-1.34,1.03-1.96,1.61-.15,.14-.29,.27-.43,.41-.3-.32-.59-.65-.87-1l-.1-.12s-.06-.08-.09-.12l-.09-.12s-.06-.08-.09-.12c-.12-.16-.23-.33-.33-.5-.21-.34-.38-.7-.52-1.07-.13-.37-.22-.76-.24-1.13,0-.09,0-.19,0-.28,0-.09,.02-.18,.04-.27,.02-.09,.04-.18,.07-.26,.03-.08,.07-.17,.11-.25,.04-.08,.09-.15,.14-.23,.05-.07,.11-.14,.18-.2,.13-.13,.28-.24,.44-.33l.06-.03s.04-.02,.06-.03c.04-.02,.09-.04,.13-.06,.09-.04,.18-.07,.27-.11,.02,0,.05-.02,.07-.02l.07-.02s.09-.03,.14-.04l.14-.04,.14-.03c.19-.04,.39-.06,.58-.07,.2-.01,.39,0,.59,0h.15s.1,.02,.15,.03c.05,0,.1,.01,.15,.02h.07s.05,.02,.07,.03c.19,.04,.38,.09,.57,.15,.09,.03,.19,.06,.28,.1l.14,.06s.05,.02,.07,.03l.07,.03s.04,.02,.07,.03l.07,.03s.09,.04,.13,.07l.13,.07,.13,.08c.17,.1,.33,.22,.48,.34,.15,.12,.3,.26,.44,.4,.03,.04,.07,.07,.1,.1,.03,.03,.07,.06,.1,.09,.02,.01,.03,.03,.05,.04,.02,.01,.03,.03,.05,.04,.03,.02,.06,.04,.1,.06l.05,.02s.03,.01,.04,.02c.03,.01,.06,.02,.08,.03,.05,0,.1,0,.13-.02,.03-.02,.05-.06,.06-.12,0-.03,0-.06,0-.09,0-.02,0-.03,0-.05v-.05s-.04-.08-.06-.12c0-.02-.02-.04-.03-.06-.01-.02-.02-.04-.04-.06-.03-.04-.05-.08-.09-.13-.03-.04-.07-.08-.11-.12-.15-.16-.32-.31-.49-.45-.17-.14-.35-.26-.54-.38l-.14-.09-.14-.08s-.1-.05-.15-.08l-.07-.04s-.05-.02-.08-.03l-.08-.03s-.05-.02-.08-.03l-.15-.06c-.1-.04-.21-.08-.31-.11-.21-.07-.42-.13-.64-.17-.03,0-.05-.01-.08-.02h-.08c-.05-.02-.11-.03-.16-.04-.05,0-.11-.01-.16-.02h-.17c-.22-.03-.44-.03-.66-.02-.22,.01-.44,.04-.66,.09l-.16,.03-.16,.04c-.05,.01-.11,.03-.16,.05l-.08,.02s-.05,.02-.08,.03c-.11,.04-.21,.08-.31,.12-.05,.02-.1,.05-.15,.07-.03,.01-.05,.03-.08,.04l-.08,.04c-.2,.12-.39,.26-.56,.42-.08,.08-.16,.17-.23,.27-.07,.1-.14,.2-.19,.3-.06,.11-.1,.22-.14,.33-.04,.11-.07,.23-.09,.34-.02,.12-.04,.23-.05,.35,0,.12,0,.23,0,.35,0,.11,.01,.23,.03,.34,.01,.11,.03,.22,.06,.33,.02,.11,.05,.22,.08,.32,.03,.11,.07,.21,.1,.32,.15,.42,.34,.81,.57,1.18,.11,.19,.23,.37,.36,.54,.03,.04,.06,.09,.1,.13l.1,.13s.06,.08,.1,.13l.1,.12c.29,.36,.6,.71,.92,1.05-.31,.33-.6,.68-.87,1.04-.26,.34-.49,.7-.71,1.07l-.16,.28-.15,.29c-.04,.1-.09,.2-.13,.3-.02,.05-.04,.1-.06,.15-.02,.05-.04,.1-.06,.16-.15,.42-.24,.86-.25,1.31,0,.23,0,.46,.05,.68,.04,.23,.11,.45,.2,.67,.1,.21,.23,.42,.38,.6,.16,.18,.34,.33,.53,.46,.2,.13,.41,.23,.62,.3,.05,.02,.11,.04,.16,.05l.08,.02s.05,.01,.08,.02c.05,.01,.11,.03,.16,.04l.16,.03c.22,.04,.44,.07,.66,.08,.22,.01,.44,0,.66,0h.16l.16-.03h.08l.08-.03h.08s.05-.02,.08-.03l.08-.02s.05-.01,.08-.02l.16-.04c.11-.03,.21-.06,.32-.09,.21-.07,.41-.15,.61-.24,.02-.01,.05-.02,.07-.03l.07-.04s.1-.05,.15-.08c.05-.03,.1-.05,.14-.08l.14-.09c.19-.12,.37-.24,.54-.38,.17-.14,.33-.29,.49-.45,.04-.04,.07-.08,.11-.12,.03-.04,.06-.08,.09-.13,.01-.02,.03-.04,.04-.06,.01-.02,.02-.04,.03-.06,.02-.04,.03-.08,.05-.12v-.05s.02-.03,.02-.05c0-.03,0-.06,0-.09,0-.05-.02-.09-.06-.12-.03-.02-.08-.03-.13-.02-.03,0-.05,.01-.08,.03-.01,0-.03,.01-.04,.02l-.05,.02s-.06,.04-.1,.06c-.02,.01-.03,.02-.05,.04-.02,.01-.03,.03-.05,.04-.03,.03-.07,.06-.1,.09-.04,.03-.07,.07-.1,.1-.14,.14-.28,.27-.43,.4-.15,.12-.31,.24-.48,.34l-.13,.08s-.09,.05-.13,.07c-.04,.02-.09,.05-.13,.07l-.07,.03s-.04,.02-.07,.03c-.18,.08-.36,.16-.55,.22-.09,.03-.19,.06-.28,.08l-.14,.04s-.05,.01-.07,.02h-.07s-.05,.02-.07,.03h-.07l-.07,.02h-.07l-.15,.03h-.15c-.2,.03-.39,.03-.59,.02-.19-.01-.39-.04-.58-.07l-.14-.03s-.09-.02-.14-.04c-.02,0-.05-.01-.07-.02l-.07-.02s-.09-.03-.14-.04c-.18-.06-.35-.14-.5-.24-.15-.1-.29-.22-.41-.35-.12-.14-.22-.29-.29-.45-.15-.33-.21-.71-.2-1.09,.01-.38,.09-.76,.22-1.13l.05-.14,.06-.14,.12-.27,.14-.27,.15-.26c.2-.35,.42-.69,.67-1.01,.25-.34,.53-.66,.81-.97,.13,.13,.27,.26,.4,.39,.62,.58,1.27,1.13,1.94,1.64,.67,.51,1.36,.99,2.07,1.46,.58,.38,1.17,.75,1.77,1.11,.72,.44,1.46,.83,2.2,1.23,.74,.4,1.47,.79,2.18,1.21,.71,.42,1.4,.87,2.05,1.37,.32,.25,.63,.52,.93,.8,.04,.04,.07,.07,.11,.11l.11,.11c.07,.07,.14,.15,.21,.22l.05,.06s.03,.04,.05,.06l.05,.06,.02,.03,.02,.03s.06,.08,.09,.11l.09,.12c.11,.16,.22,.33,.32,.5l.07,.13,.07,.13,.02,.03,.02,.03,.03,.07,.03,.07,.03,.07c.04,.09,.07,.18,.11,.28l.05,.14s.03,.09,.04,.14c.05,.19,.1,.38,.13,.57,.03,.19,.04,.38,.03,.56,0,.09-.02,.19-.03,.28,0,.01,0,.02,0,.03v.03l-.02,.07-.02,.07v.05l-.02,.02c-.05,.18-.13,.34-.22,.49l-.02,.03-.02,.03-.04,.05h0v.03l-.03,.03-.04,.05-.05,.05-.02,.02-.02,.02-.05,.04s-.03,.03-.05,.04c-.14,.11-.3,.2-.47,.26h-.03l-.03,.02-.06,.02-.07,.02h-.03l-.03,.02h-.07s-.04,.02-.07,.03c-.04,0-.09,.01-.14,.02-.18,.02-.36,0-.54-.03-.18-.03-.36-.09-.53-.17-.17-.08-.33-.17-.48-.29-.04-.03-.08-.06-.11-.09-.02-.02-.04-.03-.05-.05l-.05-.05s-.03-.03-.05-.05l-.05-.05-.05-.05s-.03-.03-.05-.05c-.12-.14-.23-.29-.33-.46l-.02-.03-.02-.03-.03-.06s-.02-.04-.03-.06l-.03-.06-.03-.06s-.02-.04-.02-.06l-.02-.07v-.03l-.02-.03c-.05-.18-.1-.34-.16-.46-.01-.03-.03-.06-.05-.08-.01-.03-.03-.05-.05-.07-.03-.04-.07-.06-.11-.07-.04,0-.08,.02-.12,.05-.02,.02-.04,.04-.05,.07-.02,.03-.03,.06-.04,.1,0,.02-.01,.04-.02,.06,0,.02,0,.04-.01,.07,0,.02,0,.05,0,.07,0,.02,0,.05,0,.08,0,.03,0,.05,0,.08,0,.03,0,.05,0,.08,0,.03,0,.06,.01,.08,0,.03,.01,.06,.02,.09v.04s.02,.03,.02,.04l.03,.08s.02,.05,.03,.08l.03,.08s.02,.05,.04,.08c.01,.03,.02,.05,.04,.08l.04,.08,.02,.04,.02,.04c.11,.2,.25,.39,.4,.56,.02,.02,.04,.04,.06,.06l.06,.06,.06,.06s.04,.04,.06,.06l.06,.06s.04,.04,.07,.06c.04,.04,.09,.07,.13,.11,.02,.02,.05,.03,.07,.05,.02,.02,.05,.03,.07,.05,.05,.03,.1,.06,.15,.09l.07,.04,.08,.04,.04,.02,.04,.02,.08,.04c.21,.1,.43,.17,.66,.21,.23,.04,.47,.06,.7,.04,.06,0,.12-.01,.18-.02,.03,0,.06,0,.09-.01l.09-.02s.03,0,.04,0h.04l.09-.03,.08-.03h.04s.03-.02,.04-.03c.22-.08,.43-.2,.62-.35,.02-.02,.05-.04,.07-.06l.07-.06,.03-.03,.03-.03,.06-.07,.06-.07,.03-.03v-.02l.03-.02,.05-.07,.03-.04,.02-.04c.13-.2,.23-.42,.29-.65v-.04l.02-.04,.02-.08,.02-.09v-.04s.01-.03,.02-.04c.02-.11,.03-.23,.04-.34,.01-.23,0-.46-.03-.68-.03-.22-.08-.44-.15-.65Z" style="fill: inherit;"/><path d="M207.1,12.61c-1.47,0-2.69,1.05-2.96,2.43h-4.42c-.26-.99-1.16-1.72-2.23-1.72s-1.97,.73-2.23,1.72h-5.37c-.24-.66-.87-1.13-1.62-1.13s-1.38,.47-1.62,1.13H0v1.17H186.67c.24,.66,.87,1.13,1.62,1.13s1.38-.47,1.62-1.13h5.37c.26,.99,1.16,1.72,2.23,1.72s1.97-.73,2.23-1.72h4.42c.27,1.39,1.49,2.43,2.96,2.43,1.67,0,3.02-1.35,3.02-3.02s-1.35-3.02-3.02-3.02Z" style="fill: inherit;"/><path d="M264.51,13.81c-.4,.76-1.01,1.4-1.76,1.82,.75,.42,1.36,1.06,1.76,1.82,.81-.89,1.88-1.53,3.09-1.82-1.21-.29-2.28-.93-3.09-1.82Z" style="fill: inherit;"/><path d="M272.78,18.1c.75,.19,1.55,.25,2.34,.13,.2-.03,.39-.07,.58-.12,.19-.05,.38-.1,.56-.17,.18-.07,.36-.14,.53-.23l.06-.03,.06-.03s.08-.04,.13-.07l.12-.07,.03-.02,.03-.02s.04-.03,.06-.04c.16-.11,.31-.23,.45-.35,.14-.12,.27-.25,.39-.39,.12-.14,.23-.28,.33-.44,.05-.08,.09-.17,.13-.27,.04-.1,.07-.21,.07-.35,0-.13-.03-.25-.07-.35-.04-.1-.08-.19-.13-.27-.1-.16-.21-.31-.33-.44-.12-.14-.25-.26-.39-.39-.14-.12-.28-.24-.45-.35-.02-.01-.04-.03-.06-.04-.02-.01-.05-.03-.06-.04-.04-.02-.08-.05-.12-.07-.04-.02-.08-.04-.13-.07l-.06-.03s-.04-.02-.06-.03c-.17-.09-.35-.16-.53-.23-.18-.07-.37-.13-.56-.17-.19-.05-.38-.09-.58-.12-.78-.12-1.59-.06-2.34,.13-.75,.19-1.44,.5-2.04,.88-.6,.37-1.11,.81-1.52,1.24-.07,.07-.13,.14-.19,.2-.27-.28-.5-.56-.69-.82-.07-.09-.12-.17-.18-.26-.05-.08-.11-.16-.15-.23-.09-.15-.17-.28-.22-.39-.06-.11-.1-.19-.13-.25-.02-.04-.03-.07-.04-.08,0,.01,.02,.04,.03,.09,.02,.06,.06,.15,.11,.26,.05,.11,.11,.25,.2,.4,.04,.08,.09,.16,.13,.25,.05,.09,.1,.18,.16,.27,.17,.28,.39,.58,.66,.9-.27,.31-.48,.62-.66,.9-.03,.05-.06,.09-.08,.14-.03,.05-.05,.09-.08,.13-.05,.09-.09,.17-.13,.25-.08,.16-.14,.29-.2,.4-.05,.11-.09,.2-.11,.26-.02,.05-.03,.07-.03,.09,0-.01,.02-.04,.04-.08,.03-.06,.07-.14,.13-.25,.06-.11,.13-.24,.22-.39,.05-.07,.1-.15,.15-.23l.09-.13s.06-.09,.09-.13c.19-.25,.42-.53,.69-.82,.06,.07,.12,.14,.19,.2,.41,.43,.92,.87,1.52,1.24,.6,.37,1.29,.69,2.04,.88Zm-3.41-2.28c-.07-.06-.13-.13-.2-.19,.06-.06,.13-.13,.2-.19,.43-.39,.95-.78,1.55-1.1,.59-.32,1.27-.58,1.97-.71,.7-.14,1.44-.15,2.14-.02,.17,.03,.35,.07,.51,.12,.17,.05,.33,.11,.49,.17,.16,.07,.31,.14,.46,.22,.02,0,.04,.02,.06,.03l.06,.03s.07,.04,.11,.06l.11,.07s.03,.02,.05,.03l.05,.03c.13,.09,.25,.2,.37,.3,.12,.11,.23,.22,.32,.34,.1,.12,.19,.23,.25,.35,.03,.06,.06,.11,.08,.16,.02,.05,.02,.09,.02,.11s0,.06-.02,.11c-.02,.05-.04,.1-.08,.16-.06,.11-.15,.23-.25,.34-.1,.12-.21,.23-.32,.34-.12,.11-.24,.21-.37,.3-.02,.01-.03,.02-.05,.03l-.02,.02-.03,.02-.11,.07s-.07,.04-.11,.06l-.06,.03-.06,.03c-.15,.08-.3,.15-.46,.22-.16,.07-.32,.12-.49,.17-.17,.05-.34,.09-.51,.12-.7,.13-1.43,.12-2.14-.02-.7-.13-1.37-.39-1.97-.71-.6-.32-1.12-.71-1.55-1.1Z" style="fill: inherit;"/><path d="M289.3,10.31c-.02-.12-.05-.23-.09-.34-.04-.11-.09-.22-.14-.33-.06-.11-.12-.21-.19-.3-.07-.1-.15-.19-.23-.27-.17-.17-.36-.31-.56-.42l-.08-.04s-.05-.03-.08-.04c-.05-.03-.1-.05-.15-.07-.1-.05-.21-.09-.31-.12-.03,0-.05-.02-.08-.03l-.08-.02c-.05-.02-.11-.03-.16-.05l-.16-.04-.16-.03c-.22-.04-.44-.07-.66-.09-.22-.01-.44-.01-.66,0h-.17c-.06,.02-.11,.03-.16,.03-.06,0-.11,.02-.16,.02h-.08s-.05,.02-.08,.03c-.22,.04-.43,.1-.64,.17-.11,.03-.21,.07-.31,.11l-.15,.06s-.05,.02-.08,.03l-.08,.03s-.05,.02-.08,.03l-.07,.04s-.1,.05-.15,.08l-.14,.08-.14,.09c-.19,.12-.37,.24-.54,.38-.17,.14-.34,.29-.49,.45-.04,.04-.07,.08-.11,.12-.03,.04-.06,.08-.09,.13-.01,.02-.03,.04-.04,.06-.01,.02-.02,.04-.03,.06-.02,.04-.03,.08-.05,.12v.05s-.02,.03-.02,.05c0,.03,0,.06,0,.09,0,.05,.02,.09,.06,.12,.03,.02,.08,.03,.13,.02,.03,0,.05-.01,.08-.03,.01,0,.03-.01,.04-.02l.05-.02s.06-.04,.1-.06c.02-.01,.03-.02,.05-.04,.02-.01,.03-.03,.05-.04,.03-.03,.07-.06,.1-.09,.04-.03,.07-.07,.1-.1,.14-.14,.28-.27,.44-.4,.15-.12,.32-.24,.48-.34l.13-.08,.13-.07s.09-.05,.13-.07l.07-.03s.04-.02,.07-.03l.07-.03s.04-.02,.07-.03l.14-.06c.09-.03,.18-.07,.28-.1,.19-.06,.38-.11,.57-.15,.02,0,.05-.01,.07-.01h.07s.1-.03,.15-.03c.05,0,.1-.01,.15-.02h.15c.2-.03,.39-.03,.59-.02,.2,.01,.39,.04,.58,.07l.14,.03,.14,.04s.09,.03,.14,.04l.07,.02s.05,.02,.07,.02c.09,.03,.18,.07,.27,.11,.04,.02,.09,.04,.13,.06,.02,.01,.04,.02,.06,.03l.06,.03c.16,.09,.31,.2,.44,.33,.06,.06,.12,.13,.18,.2,.05,.07,.1,.15,.14,.23,.04,.08,.08,.16,.11,.25,.03,.08,.05,.17,.07,.26,.02,.09,.03,.18,.04,.27,0,.09,0,.19,0,.28-.01,.38-.1,.76-.24,1.13-.13,.37-.31,.73-.52,1.07-.1,.17-.21,.34-.33,.5-.03,.04-.06,.08-.09,.12l-.09,.12s-.06,.08-.09,.12l-.1,.12c-.28,.34-.56,.67-.87,1-.14-.14-.29-.28-.43-.41-.62-.58-1.28-1.11-1.96-1.61-.68-.5-1.38-.97-2.09-1.41l-.22-.14-.22-.14c-.15-.09-.3-.18-.45-.27-.07-.05-.15-.09-.22-.13l-.22-.13c-.15-.09-.3-.17-.45-.26-.73-.41-1.47-.8-2.2-1.2-.73-.4-1.45-.8-2.15-1.24-.7-.43-1.38-.9-2.02-1.41-.04-.03-.08-.06-.12-.1l-.12-.1c-.08-.07-.16-.13-.23-.2-.15-.13-.3-.27-.45-.41-.15-.14-.29-.29-.42-.43-.04-.04-.07-.07-.1-.11l-.05-.05s-.03-.04-.05-.06c-.06-.08-.12-.15-.18-.23-.11-.16-.22-.33-.31-.5-.02-.04-.05-.09-.07-.13l-.07-.13c-.04-.09-.08-.18-.12-.27l-.03-.07s-.02-.05-.03-.07l-.03-.07v-.03l-.03-.03-.05-.14-.04-.14c-.05-.19-.1-.38-.13-.57-.03-.19-.04-.38-.03-.56,0-.02,0-.05,0-.07v-.07s.02-.09,.03-.14v-.07s.02-.05,.03-.07l.02-.07v-.03l.02-.03c.05-.17,.13-.34,.22-.49h0v-.03l.03-.03,.04-.05,.04-.05,.02-.03h.01v-.02s.07-.06,.1-.09c.02-.01,.03-.03,.05-.04l.05-.04,.03-.02,.03-.02,.05-.04,.06-.03,.03-.02,.03-.02,.06-.03s.04-.02,.06-.03c.04-.02,.08-.04,.12-.05h.03l.03-.02s.04-.01,.06-.02c.04-.01,.09-.03,.13-.03h.07l.07-.02h.07l.07-.02c.18-.01,.36,0,.54,.03,.18,.04,.36,.09,.53,.17,.34,.16,.65,.39,.9,.67,.12,.14,.23,.29,.32,.46l.02,.03,.02,.03,.03,.06s.02,.04,.03,.06c0,.02,.02,.04,.03,.06l.02,.06s.02,.04,.02,.06c.01,.04,.03,.09,.04,.13,.05,.18,.1,.34,.16,.46,.01,.03,.03,.06,.05,.08,.01,.03,.03,.05,.05,.07,.03,.04,.07,.06,.11,.07s.08-.02,.12-.05c.02-.02,.04-.04,.05-.07,.02-.03,.03-.06,.04-.1,0-.02,.01-.04,.02-.06,0-.02,0-.04,.01-.07,0-.02,0-.05,0-.07,0-.02,0-.05,0-.08,0-.03,0-.05,0-.08,0-.03,0-.05,0-.08,0-.03,0-.06-.01-.08,0-.03-.01-.06-.02-.09-.01-.06-.03-.11-.05-.17,0-.03-.02-.05-.03-.08l-.03-.08s-.02-.05-.04-.08c-.01-.03-.02-.05-.04-.08l-.04-.08-.02-.04s-.01-.03-.02-.04c-.11-.2-.25-.39-.4-.56-.15-.17-.32-.33-.5-.46-.02-.02-.05-.03-.07-.05l-.07-.05-.07-.05-.04-.02-.04-.02-.07-.04s-.05-.03-.08-.04c-.05-.03-.1-.05-.15-.08-.21-.1-.43-.17-.66-.21-.23-.04-.47-.06-.7-.04h-.13l-.04,.02h-.09s-.06,.03-.09,.03c-.06,.01-.11,.03-.17,.04-.03,0-.06,.02-.08,.03h-.04l-.02,.02h-.02c-.05,.03-.11,.05-.16,.08-.03,.01-.05,.02-.08,.04l-.08,.04s-.03,.01-.04,.02l-.04,.02-.08,.05-.07,.05-.04,.03s-.02,.02-.04,.03c-.19,.15-.36,.33-.49,.53-.13,.2-.23,.42-.3,.64v.04l-.02,.04-.02,.08s-.01,.06-.02,.09l-.02,.09c0,.06-.02,.11-.02,.17v.09s-.01,.06-.01,.09c-.01,.23,0,.46,.03,.68,.07,.44,.19,.87,.36,1.27,.04,.1,.09,.2,.13,.3l.07,.15s.05,.1,.08,.14c.11,.19,.22,.38,.35,.56,.06,.09,.13,.18,.2,.26,.02,.02,.03,.04,.05,.06l.05,.06s.07,.08,.11,.12c.15,.16,.3,.31,.45,.46,.15,.15,.31,.29,.47,.43,.08,.07,.16,.14,.24,.21l.12,.1s.08,.07,.12,.1c.66,.53,1.36,1.01,2.08,1.45,.72,.44,1.45,.85,2.18,1.25,.73,.4,1.47,.79,2.19,1.2,.15,.08,.3,.17,.45,.25l.22,.13c.07,.04,.15,.09,.22,.13,.15,.09,.29,.18,.44,.27l.22,.14,.22,.14c.7,.44,1.39,.9,2.05,1.39,.66,.49,1.31,1.01,1.91,1.56,.14,.13,.28,.27,.42,.41-.13,.13-.26,.26-.4,.39-.6,.57-1.23,1.1-1.89,1.6-.66,.5-1.34,.98-2.03,1.43-.57,.38-1.16,.74-1.75,1.09-1.42,.85-2.92,1.58-4.38,2.44-.73,.43-1.44,.89-2.11,1.42-.34,.26-.66,.54-.97,.84-.04,.04-.08,.07-.12,.11l-.11,.11c-.08,.08-.15,.15-.22,.23l-.06,.06s-.04,.04-.05,.06l-.05,.06-.03,.03-.03,.03s-.07,.09-.1,.13l-.1,.13c-.26,.36-.47,.75-.64,1.15-.04,.1-.08,.2-.12,.31l-.05,.16c-.02,.05-.03,.11-.05,.16-.06,.21-.11,.43-.15,.65-.03,.23-.05,.46-.03,.68,0,.11,.02,.23,.04,.34,0,.01,0,.03,0,.04v.04l.03,.09,.02,.08v.04l.02,.02v.02c.07,.22,.17,.44,.3,.65l.02,.04,.03,.04,.05,.07v.02l.03,.02,.03,.03,.06,.07,.06,.07,.03,.03,.03,.03,.07,.06s.05,.04,.07,.06c.19,.15,.4,.27,.62,.35,.01,0,.03,.01,.04,.02h.04l.08,.04,.09,.02h.04s.03,.02,.04,.02l.09,.02s.06,0,.09,.01c.06,.01,.12,.02,.18,.02,.23,.02,.47,0,.7-.04,.23-.04,.45-.12,.66-.21l.08-.04,.04-.02,.04-.02,.08-.04,.07-.04c.05-.03,.1-.06,.15-.09,.02-.02,.05-.03,.07-.05,.02-.02,.05-.03,.07-.05,.05-.03,.09-.07,.13-.11,.02-.02,.04-.04,.07-.06l.06-.06s.04-.04,.06-.06l.06-.06,.06-.06s.04-.04,.06-.06c.15-.17,.29-.36,.4-.56l.02-.04,.02-.04,.04-.08s.02-.05,.04-.08c.01-.03,.02-.05,.04-.08l.03-.08s.02-.05,.03-.08l.03-.08s0-.03,.01-.04v-.04s.03-.06,.03-.09c0-.03,0-.06,.01-.08,0-.03,0-.06,0-.08,0-.03,0-.05,0-.08,0-.03,0-.05,0-.08,0-.02,0-.05,0-.07,0-.02,0-.05-.01-.07,0-.02-.01-.04-.02-.06-.01-.04-.03-.07-.04-.1-.02-.03-.04-.05-.05-.07-.04-.04-.08-.06-.12-.05s-.08,.03-.11,.07c-.02,.02-.03,.04-.05,.07-.02,.03-.03,.05-.05,.08-.06,.12-.11,.28-.16,.46v.03s-.02,.02-.02,.03l-.02,.07s-.02,.04-.02,.06l-.03,.06-.03,.06s-.02,.04-.03,.06l-.03,.06-.02,.03-.02,.03c-.09,.16-.2,.32-.33,.46-.01,.02-.03,.03-.05,.05l-.05,.05-.05,.05s-.03,.03-.05,.05l-.05,.05s-.04,.03-.05,.05c-.04,.03-.07,.06-.11,.09-.15,.11-.31,.21-.48,.29-.17,.08-.35,.13-.53,.17-.18,.03-.36,.04-.54,.03-.05,0-.09,0-.14-.02-.02,0-.04,0-.07-.01h-.07l-.03-.02h-.03l-.07-.03-.06-.02h-.03l-.03-.02c-.17-.06-.33-.15-.47-.26-.02-.01-.03-.03-.05-.04l-.05-.04-.02-.02-.02-.02-.05-.05-.04-.05-.02-.03h-.01v-.03l-.05-.05-.02-.03-.02-.03c-.1-.15-.17-.32-.22-.49v-.03l-.02-.03-.02-.07v-.07l-.02-.03s0-.02,0-.03c-.01-.09-.03-.18-.03-.28,0-.19,0-.38,.03-.56,.03-.19,.07-.38,.13-.57,.01-.05,.03-.09,.04-.14l.05-.14c.03-.09,.07-.19,.11-.28l.03-.07,.03-.07,.03-.07,.02-.03,.02-.03,.07-.13,.07-.13c.1-.17,.2-.34,.32-.5l.09-.12s.06-.08,.09-.11l.02-.03,.02-.03,.05-.06s.03-.04,.05-.06l.05-.06c.07-.07,.14-.15,.21-.22l.11-.11s.07-.07,.11-.11c.29-.28,.6-.55,.93-.8,.64-.5,1.34-.95,2.05-1.37,.71-.42,1.45-.81,2.18-1.21,.74-.4,1.48-.79,2.2-1.23,.59-.36,1.18-.72,1.77-1.11,.7-.46,1.4-.94,2.07-1.46,.67-.51,1.32-1.06,1.94-1.64,.14-.13,.27-.26,.4-.39,.29,.31,.56,.63,.81,.97,.24,.32,.47,.66,.67,1.01l.15,.26,.14,.27,.12,.27,.06,.14,.05,.14c.13,.37,.21,.75,.22,1.13,.01,.38-.05,.76-.2,1.09-.08,.16-.17,.32-.29,.45-.12,.14-.26,.25-.41,.35-.15,.1-.32,.18-.5,.24-.04,.02-.09,.03-.14,.04l-.07,.02s-.05,.01-.07,.02c-.05,.01-.09,.03-.14,.04l-.14,.03c-.19,.04-.39,.06-.58,.07-.2,.01-.39,0-.59,0h-.15l-.15-.03h-.07l-.07-.02h-.07s-.05-.02-.07-.03h-.07s-.05-.02-.07-.03l-.14-.04c-.09-.03-.19-.05-.28-.08-.19-.06-.37-.13-.55-.22-.02-.01-.04-.02-.07-.03l-.07-.03s-.09-.04-.13-.07c-.04-.02-.09-.05-.13-.07l-.13-.08c-.17-.1-.33-.22-.48-.34-.15-.12-.3-.26-.43-.4-.03-.04-.07-.07-.1-.1-.03-.03-.07-.06-.1-.09-.02-.01-.03-.03-.05-.04-.02-.01-.03-.03-.05-.04-.03-.02-.06-.04-.1-.06l-.05-.02s-.03-.01-.04-.02c-.03-.01-.06-.02-.08-.03-.05,0-.1,0-.13,.02-.03,.02-.05,.06-.06,.12,0,.03,0,.06,0,.09,0,.02,0,.03,0,.05v.05s.04,.07,.06,.12c0,.02,.02,.04,.03,.06,.01,.02,.02,.04,.04,.06,.03,.04,.05,.08,.09,.13,.03,.04,.07,.08,.11,.12,.15,.16,.32,.31,.49,.45,.17,.14,.35,.26,.54,.38l.14,.09s.1,.05,.14,.08c.05,.03,.1,.05,.15,.08l.07,.04s.05,.02,.07,.03c.2,.09,.4,.17,.61,.24,.1,.04,.21,.06,.32,.09l.16,.04s.05,.01,.08,.02l.08,.02s.05,.01,.08,.02h.08l.08,.03h.08l.16,.03h.16c.22,.03,.44,.03,.66,.02,.22-.01,.44-.04,.66-.08l.16-.03c.05-.01,.11-.03,.16-.04,.03,0,.05-.01,.08-.02l.08-.02c.05-.02,.11-.03,.16-.05,.22-.08,.43-.17,.62-.3,.2-.13,.38-.28,.53-.46,.16-.18,.28-.38,.38-.6,.1-.21,.16-.44,.2-.67,.04-.23,.05-.46,.05-.68-.01-.45-.11-.89-.25-1.31-.02-.05-.04-.1-.06-.16-.02-.05-.04-.1-.06-.15-.04-.1-.09-.2-.13-.3l-.15-.29-.16-.28c-.21-.37-.45-.73-.71-1.07-.27-.36-.57-.71-.87-1.04,.32-.34,.62-.69,.92-1.05l.1-.12s.07-.08,.1-.13l.1-.13s.06-.08,.1-.13c.13-.18,.25-.36,.36-.54,.22-.37,.42-.77,.57-1.18,.04-.1,.07-.21,.1-.32,.03-.11,.06-.21,.08-.32s.04-.22,.06-.33c.01-.11,.02-.23,.03-.34,0-.11,0-.23,0-.35,0-.12-.02-.23-.05-.35Z" style="fill: inherit;"/><path d="M313.33,15.04c-.24-.66-.87-1.13-1.62-1.13s-1.38,.47-1.62,1.13h-5.37c-.26-.99-1.16-1.72-2.23-1.72s-1.97,.73-2.23,1.72h-4.42c-.27-1.39-1.49-2.43-2.96-2.43-1.67,0-3.02,1.35-3.02,3.02s1.35,3.02,3.02,3.02c1.47,0,2.69-1.05,2.96-2.43h4.42c.26,.99,1.16,1.72,2.23,1.72s1.97-.73,2.23-1.72h5.37c.24,.66,.87,1.13,1.62,1.13s1.38-.47,1.62-1.13h186.67v-1.17h-186.67Z" style="fill: inherit;"/><path d="M255.16,21.78c-.25-.42-.47-.87-.66-1.32-.01-.03-.02-.06-.04-.08l-.03-.09-.07-.17s-.02-.06-.03-.09l-.03-.09-.06-.17c-.04-.12-.07-.23-.11-.35l-.05-.18c-.02-.06-.03-.12-.05-.18-.12-.48-.2-.96-.25-1.45-.05-.49-.07-.98-.05-1.48,.03-.99,.2-1.97,.47-2.93,.26-.9,.62-1.77,1.05-2.6-.03-.05-.06-.11-.09-.16-.48-.88-1.05-1.71-1.7-2.47-.28-.33-.58-.66-.89-.97-.31,.31-.6,.63-.89,.97-.48,.57-.91,1.17-1.3,1.8,.02,.04,.04,.07,.06,.11,.52,.95,.94,1.96,1.24,3,.3,1.04,.48,2.13,.52,3.22,.04,1.09-.07,2.19-.34,3.26-.02,.07-.03,.13-.05,.2l-.05,.2c-.04,.13-.08,.26-.12,.39l-.07,.19-.03,.1s-.02,.06-.04,.1l-.07,.19-.04,.1s-.03,.06-.04,.1c-.21,.51-.45,1-.73,1.47l-.1,.18-.06,.1h0c.07,.09,.15,.17,.22,.26,.17,.18,.34,.35,.52,.51,.18,.16,.36,.31,.55,.44,.16,.11,.31,.2,.46,.27l.06,.02h.03l.03,.02s.04,.01,.05,.02h.05c.06,.03,.12,.04,.16,.04,.04,0,.09,0,.16-.02l.05-.02h.03l.03-.02s.07-.03,.11-.05c.02,0,.04-.02,.06-.03,.02,0,.04-.02,.06-.03,.04-.02,.08-.04,.12-.07l.06-.04,.06-.04s.08-.05,.12-.08c.02-.02,.05-.03,.07-.05,.02-.02,.05-.03,.07-.05,.05-.04,.09-.07,.14-.11,.09-.07,.18-.15,.27-.23,.18-.16,.35-.33,.52-.51,.17-.18,.33-.36,.47-.55,.07-.09,.14-.19,.21-.28l.05-.07,.03-.05v-.02l-.1-.16Z" style="fill: inherit;"/><path d="M257.93,7c-.31,.31-.61,.63-.89,.97-.64,.77-1.22,1.59-1.69,2.47-.03,.05-.06,.11-.09,.16,.44,.83,.8,1.7,1.06,2.6,.28,.96,.44,1.94,.47,2.93,.02,.49,0,.99-.05,1.48-.05,.49-.14,.98-.25,1.45-.01,.06-.03,.12-.05,.18l-.05,.18c-.04,.12-.07,.24-.11,.35l-.06,.17-.03,.09s-.02,.06-.03,.09l-.07,.17-.03,.09s-.02,.06-.04,.08c-.19,.46-.41,.9-.66,1.32l-.09,.16v.02l.02,.05,.05,.07c.06,.09,.14,.19,.21,.28,.15,.19,.31,.37,.47,.55,.17,.18,.34,.35,.52,.51,.09,.08,.18,.16,.27,.23,.05,.04,.09,.07,.14,.11,.02,.02,.05,.03,.07,.05,.02,.02,.05,.03,.07,.05,.04,.03,.08,.05,.12,.08l.06,.04,.06,.04s.08,.04,.12,.07c.02,.01,.04,.02,.06,.03,.02,0,.04,.02,.06,.03,.04,.02,.07,.03,.11,.05h.04v.02l.06,.02c.06,.02,.12,.02,.16,.02,.04,0,.1,0,.16-.03h.05s.04-.03,.05-.03h.03l.03-.02,.06-.02c.15-.07,.31-.17,.46-.27,.19-.13,.37-.28,.55-.44,.18-.16,.35-.33,.52-.51,.08-.08,.15-.16,.22-.25h0l-.06-.1-.11-.18c-.28-.47-.52-.96-.73-1.47-.01-.03-.03-.06-.04-.1l-.04-.1-.07-.19s-.02-.06-.04-.1l-.03-.1-.07-.19c-.04-.13-.08-.26-.12-.39l-.05-.2c-.02-.07-.04-.13-.05-.2-.27-1.07-.38-2.17-.34-3.26,.04-1.09,.22-2.18,.52-3.22,.3-1.04,.72-2.05,1.24-3,.02-.04,.04-.07,.06-.11-.39-.63-.83-1.23-1.3-1.8-.28-.33-.58-.66-.89-.97Z" style="fill: inherit;"/><path d="M244.63,21.78c-.25-.42-.47-.87-.66-1.32-.01-.03-.02-.06-.04-.08l-.03-.09-.07-.17s-.02-.06-.03-.09l-.03-.09-.06-.17c-.04-.12-.07-.23-.11-.35l-.05-.18c-.02-.06-.03-.12-.05-.18-.12-.48-.2-.96-.25-1.45-.05-.49-.07-.98-.05-1.48,.03-.99,.2-1.97,.47-2.93,.26-.9,.62-1.77,1.05-2.6-.03-.05-.06-.11-.09-.16-.48-.88-1.05-1.71-1.69-2.47-.28-.33-.58-.66-.89-.97-.31,.31-.6,.63-.89,.97-.48,.57-.91,1.17-1.3,1.8,.02,.04,.04,.07,.06,.11,.52,.95,.94,1.96,1.24,3,.3,1.04,.48,2.13,.52,3.22,.04,1.09-.07,2.19-.34,3.26-.02,.07-.03,.13-.05,.2l-.05,.2c-.04,.13-.08,.26-.12,.39l-.07,.19-.03,.1s-.02,.06-.04,.1l-.07,.19-.04,.1s-.03,.06-.04,.1c-.21,.51-.45,1-.73,1.47l-.1,.18-.06,.1h0c.07,.09,.15,.17,.22,.26,.17,.18,.34,.35,.52,.51,.18,.16,.36,.31,.55,.44,.16,.11,.31,.2,.46,.27l.06,.02h.03l.03,.02s.04,.01,.05,.02h.05c.06,.03,.12,.04,.16,.04,.04,0,.09,0,.16-.02l.05-.02h.03l.03-.02s.07-.03,.11-.05c.02,0,.04-.02,.06-.03,.02,0,.04-.02,.06-.03,.04-.02,.08-.04,.12-.07l.06-.04,.06-.04s.08-.05,.12-.08c.02-.02,.05-.03,.07-.05,.02-.02,.05-.03,.07-.05,.05-.04,.09-.07,.14-.11,.09-.07,.18-.15,.27-.23,.18-.16,.35-.33,.52-.51,.17-.18,.33-.36,.47-.55,.07-.09,.14-.19,.21-.28l.05-.07,.03-.05v-.02l-.1-.16Z" style="fill: inherit;"/><path d="M249.47,22.56l-.11-.18c-.28-.47-.52-.96-.73-1.47-.01-.03-.03-.06-.04-.1l-.04-.1-.07-.19s-.02-.06-.04-.1l-.03-.1-.07-.19c-.04-.13-.08-.26-.12-.39l-.05-.2c-.02-.07-.04-.13-.05-.2-.26-1.07-.38-2.17-.34-3.26,.04-1.09,.22-2.18,.52-3.22,.3-1.04,.72-2.05,1.24-3,.02-.04,.04-.07,.06-.11-.39-.63-.83-1.23-1.3-1.8-.28-.33-.58-.66-.89-.97-.31,.31-.61,.63-.89,.97-.64,.77-1.22,1.59-1.69,2.47-.03,.05-.06,.11-.09,.16,.44,.83,.8,1.7,1.06,2.6,.28,.96,.44,1.94,.47,2.93,.02,.49,0,.99-.05,1.48-.05,.49-.14,.98-.25,1.45-.01,.06-.03,.12-.05,.18l-.05,.18c-.04,.12-.07,.24-.11,.35l-.06,.17-.03,.09s-.02,.06-.03,.09l-.07,.17-.03,.09s-.02,.06-.04,.08c-.19,.46-.41,.9-.66,1.32l-.09,.16v.02l.02,.05,.05,.07c.06,.09,.14,.19,.21,.28,.15,.19,.31,.37,.47,.55,.17,.18,.34,.35,.52,.51,.09,.08,.18,.16,.27,.23,.05,.04,.09,.07,.14,.11,.02,.02,.05,.03,.07,.05,.02,.02,.05,.03,.07,.05,.04,.03,.08,.05,.12,.08l.06,.04,.06,.04s.08,.04,.12,.07c.02,.01,.04,.02,.06,.03,.02,0,.04,.02,.06,.03,.04,.02,.07,.03,.11,.05h.04v.02l.06,.02c.06,.02,.12,.02,.16,.02,.04,0,.1,0,.16-.03h.05s.04-.03,.05-.03h.03l.03-.02,.06-.02c.15-.07,.31-.17,.46-.27,.19-.13,.37-.28,.55-.44,.18-.16,.35-.33,.52-.51,.08-.08,.15-.16,.22-.25h0l-.06-.1Z" style="fill: inherit;"/><path d="M251.58,15.63c0-.87-.71-1.58-1.58-1.58s-1.58,.71-1.58,1.58,.71,1.58,1.58,1.58,1.58-.71,1.58-1.58Z" style="fill: inherit;"/></g></g></g></svg>