<svg xmlns="http://www.w3.org/2000/svg"
  xmlns:xlink="http://www.w3.org/1999/xlink" preserveAspectRatio="xMidYMid meet" version="1.0" viewBox="-0.1 -0.2 478.0 301.5" zoomAndPan="magnify" style="fill: rgb(0, 0, 0);" original_string_length="24287" width="294.7098390967554px" height="185.9351166664984px">
  <g id="__id95_srssiplt4e">
    <path d="M225.8,43.6c-5.4-1.1-10.7-1.7-14.7-1.6c-4.5,0.1-6.9,1-7.4,2.7c0,0,0,0,0,0.1l-12,30 c-0.1,0.3-12.3,29.4-13.8,58.1l-46.1-12.7c-2.9-0.8-5.9-1.2-9-1.2c-4.4,0-8.9,0.5-13.2,1.5c-4.3,1-8.6,2.4-12.7,4.4 c-28.1,16.9-95.5,39-96.2,39.2c-0.5,0.2-0.8,0.7-0.6,1.3c0.1,0.4,0.5,0.7,1,0.7c0.1,0,0.2,0,0.3,0c0.7-0.2,68.3-22.4,96.5-39.4 c3.9-1.8,8-3.3,12.2-4.2c4.2-0.9,8.5-1.4,12.8-1.4c2.8,0,5.7,0.4,8.4,1.1l46.5,12.9c-0.2,7.2,0.3,13.7,1.5,19.5l-46-11.2 c-0.5-0.1-1.1,0.2-1.2,0.7c-0.1,0.5,0.2,1.1,0.7,1.2l47,11.4c0.6,2.6,1.4,5.2,2.4,7.5c0.7,1.7,2.1,4.5,3.2,6.8 c0.4,0.9,0.8,1.6,1.1,2.2l0.4,0.9c0.7,1.5,1.5,3.1,2.1,5c-1.7-0.4-3-0.7-3.4-0.7c0,0,0,0,0,0L170,164c-0.1-0.1-0.2-0.2-0.4-0.2 l-31.3-9.4c-0.5-0.2-1.1,0.1-1.2,0.7c-0.2,0.5,0.1,1.1,0.7,1.2l31.1,9.4l13.2,12.3c-40.8-6.1-67.8-26.2-68.1-26.4 c-0.4-0.3-1.1-0.2-1.4,0.2c-0.3,0.4-0.2,1.1,0.2,1.4c0.3,0.2,29.2,21.8,72.5,27.3c2.7,0.4,10.6,2.3,10.6,5.8c0,3.4-8.5,5.7-11.3,6.2 c-0.3,0-31.2,2.5-65,0c-0.2,0-0.5,0-0.6,0.2c-0.4,0.3-43.3,29.6-92.2,21c-1.4-0.6-12.5-5.4-23.7,1.8c-0.5,0.3-0.6,0.9-0.3,1.4 c0.2,0.3,0.5,0.5,0.8,0.5c0.2,0,0.4,0,0.5-0.2c10.8-6.8,21.8-1.6,21.9-1.6c0.1,0,0.2,0.1,0.3,0.1c47.6,8.5,89.5-18.5,93.5-21.1 c9.1,0.7,18,1,26.1,1.1c2.7,1.6,26.9,15.4,32.7,16.2c0.4,0.1,0.7,0.1,1,0.1c1.1,0,1.9-0.3,2.4-1c0.7-1,0.5-2.4-0.7-4.4 c-0.8-1.3-1.8-2.6-3-3.8l-7.7-7.4c4.2-0.2,7.6-0.3,10-0.5l7.9,4.1c0.1,0.4,0.3,0.9,0.5,1.7l-8.5,41.3c-0.1,0.6-2.1,13.6-16,16.5 l-8.4,1.4c-2.7,0.4-4.8,2.5-5.4,5.1c0,0.2-0.1,0.4-0.1,0.6c0,1.2,0.7,2.2,1.8,2.7c3.3,1.4,13.3,5.7,25.2,8.1l1.5,0.3 c9,1.8,16.8,2.5,22.1,2.5c1.5,0,2.9-0.1,4-0.2c1.3-0.1,2.4-1,2.6-2.3c0.1-0.4,0.1-0.9,0.1-1.3c0-2.3-1.1-4.3-3-5.6l-7.1-4.6 c-11.7-8.1-8.4-20.9-8.2-21.5l6.1-29.5c0.1,0.2,0.2,0.4,0.4,0.6c2.3,3.8,4.3,5.7,6.2,5.8c0,0,0,0,0.1,0c0.7,0,1.7-0.3,2.6-1.5 c0.8-1.2,1.1-2.6,0.8-4.1l-1.7-9.6c0.7,1.4,1.7,2.6,2.9,3.6c1.1,0.9,2.2,1.4,3.1,1.4c0.3,0,0.6-0.1,1-0.2c1.2-0.5,2-1.8,2.4-3.9 c0.2-1.4,0.2-3-0.1-4.6l-3.5-16.8c-0.3-1.4-1-2.6-2-3.5c0.2-0.2,0.4-0.4,0.6-0.6c4.7,4.8,8.5,8,11.4,9.5c1.4,0.7,3.1,1.6,4.6,1.6 c0.7,0,1.3-0.2,1.8-0.7c1.9-2-0.6-7.1-1.5-8.7l-6.6-9.9c0.3-0.2,0.5-0.4,0.7-0.6c7.5-7.5,17.6-22.8,23.1-52.9 c3.3-17.9,3.4-32.9,3.4-33l0.8-32.2C246.6,49.1,233.1,45.1,225.8,43.6z M211.2,44.1c0.3,0,0.6,0,0.9,0c3.8,0,8.4,0.5,13.3,1.5 c12.6,2.6,18.6,6.5,18.4,7.6c-0.1,0.3-1.2,1.2-5.6,1.3c-3.9,0.1-9-0.4-14.3-1.5c-12.6-2.6-18.6-6.5-18.4-7.6 C205.6,45.1,206.8,44.2,211.2,44.1z M176.8,204c1.1,1.1,2,2.2,2.7,3.3c1,1.8,0.8,2.3,0.8,2.3c0,0.1-0.4,0.2-1.5,0.1 c-4-0.6-19.2-8.7-28.9-14.2c6.6,0,12.7-0.1,17.8-0.3L176.8,204z M184.3,194.3c0.2,0,0.4,0,0.4,0c0.5-0.1,2.9-0.5,5.4-1.4 c-0.1,1.3-0.3,2.7-0.6,4.1L184.3,194.3z M203.1,217.7c-0.5,0.7-0.8,0.7-0.9,0.7c-0.5,0-2-0.5-4.5-4.8c-0.5-0.9-1-1.7-1.5-2.5 c0.5-2.3,1-4.7,1.4-7l0.6-2.9c0.4-2,0.9-4,1.5-5.8c0.1,0.3,0.3,0.5,0.4,0.8l0.2,0.4c0.2,0.6,0.3,1.1,0.4,1.7l2.9,16.8 C203.8,216,203.6,217,203.1,217.7z M211.2,201.7c0.3,1.4,0.3,2.6,0.1,3.9c-0.2,1.3-0.6,2.2-1.1,2.4c-0.4,0.2-1.2-0.2-2.1-0.9 c-1.4-1.1-2.5-2.7-3.1-4.6l-3-7.2c0,0,0,0,0,0c-0.4-0.9-0.8-1.8-1.4-2.6c1.5-4.1,3.4-7.5,5.7-10.3c0.7,0.7,1.2,1.5,1.4,2.5 L211.2,201.7z M224.6,189.4c0,0-0.7,0.6-4.1-1.2c-2.7-1.5-6.3-4.5-10.9-9.1c0.1-0.1,0.3-0.3,0.4-0.4l0.6-0.5c0.7-0.6,1.8-1.5,3-2.5 c0.9-0.7,1.8-1.4,2.6-2.1l6.5,9.6C224.3,185.9,225.1,188.9,224.6,189.4z M217.1,170.3c-0.3,0.3-0.7,0.7-1.2,1.1 c-1,0.8-2.2,1.8-3.4,2.8c-1.2,1-2.4,1.9-3.1,2.5l-0.6,0.5c-0.4,0.3-0.8,0.7-1.3,1.1c-0.6,0.6-1.3,1.3-2.1,2.1 c-2.9,3.2-5.2,7.2-7,12.2c0,0,0,0.1,0,0.1c-0.9,2.5-1.6,5.2-2.2,8l-0.6,2.9c-0.5,2.4-1,4.9-1.5,7.4l-6.6,32c0,0.1-3.9,14.7,9,23.7 l7.2,4.6c1.3,0.8,2.1,2.3,2.1,3.9c0,0.3,0,0.6-0.1,0.9c-0.1,0.4-0.4,0.7-0.8,0.7c-4.8,0.4-14.1,0-25.5-2.3l-1.5-0.3 c-11.6-2.4-21.5-6.6-24.8-8c-0.3-0.1-0.6-0.5-0.6-0.8c0-0.1,0-0.2,0-0.2c0.4-1.8,1.9-3.3,3.7-3.6l8.4-1.4 c15.3-3.2,17.6-18,17.6-18.1l8.5-41.5l0.2-0.9c0.5-2.6,0.9-5.1,1.1-7.5c3-1.3,5.6-3.2,5.6-6c0-3.2-3.4-5.2-6.6-6.3 c-0.8-2.7-1.8-4.8-2.6-6.6l-0.4-0.9c-0.3-0.6-0.7-1.4-1.1-2.3c-1.1-2.2-2.5-5-3.1-6.6c-1-2.4-1.8-5.1-2.4-7.8 c-1.4-6.2-2-13.4-1.7-21.4c1.1-28.8,13.6-58.4,13.7-58.7l11.2-27.9c3.3,3.3,13,6.1,18.9,7.3c5,1,9.8,1.6,13.7,1.6c0.3,0,0.7,0,1,0 c2.4-0.1,4.2-0.3,5.5-0.9L243,85.7C243,86.3,242.5,144.8,217.1,170.3z M238.4,89.9c0.2,0.8,0.6,3.6-0.3,11.3c-0.1,0.5-0.5,0.9-1,0.9 c0,0-0.1,0-0.1,0c-0.5-0.1-0.9-0.6-0.9-1.1c0.5-4.6,0.6-7.3,0.5-8.9c-1.6,0.8-4.2,1.1-6.9,1.1c-2,0-3.9-0.1-5.5-0.3 c-0.5-0.1-1-0.5-0.9-1.1c0.1-0.5,0.5-1,1.1-0.9c8.8,0.9,11.8-0.5,11.9-1.1c0-0.2-0.3-1-2.4-2.3c-0.5-0.3-0.6-0.9-0.3-1.4 c0.3-0.5,0.9-0.6,1.4-0.3C237.4,87.2,238.5,88.5,238.4,89.9z M220.9,81.7c0.1-0.5,0.7-0.9,1.2-0.7c3.6,0.9,6.9,2,9.6,3.2 c0.5,0.2,0.7,0.8,0.5,1.3c-0.2,0.4-0.5,0.6-0.9,0.6c-0.1,0-0.3,0-0.4-0.1c-2.6-1.1-5.8-2.2-9.3-3.1 C221.1,82.7,220.8,82.2,220.9,81.7z M213,80.2c0.1-0.5,0.6-0.9,1.1-0.8c1.4,0.2,2.8,0.5,4.1,0.8c0.5,0.1,0.9,0.6,0.8,1.2 c-0.1,0.5-0.5,0.8-1,0.8c-0.1,0-0.1,0-0.2,0c-1.4-0.3-2.7-0.5-4.1-0.7C213.3,81.2,213,80.7,213,80.2z M216.4,89.6 c0.5,0.1,0.9,0.6,0.8,1.2c-0.1,0.5-0.5,0.8-1,0.8c-0.1,0-0.1,0-0.2,0c-3.9-0.8-7.6-1.8-10.8-3c-0.5-0.2-0.8-0.8-0.6-1.3 c0.2-0.5,0.8-0.8,1.3-0.6C208.9,87.8,212.6,88.8,216.4,89.6z M219.4,90.2c0.7,0.1,1.5,0.2,2.2,0.3c0.5,0.1,0.9,0.6,0.9,1.1 c-0.1,0.5-0.5,0.9-1,0.9c0,0-0.1,0-0.1,0c-0.7-0.1-1.5-0.2-2.2-0.3c-0.5-0.1-0.9-0.6-0.8-1.2C218.4,90.5,218.9,90.1,219.4,90.2z M237.5,105.9c-1.1,8.1-2.9,17.4-5.5,27.4c-0.1,0.5-0.5,0.8-1,0.8c-0.1,0-0.2,0-0.2,0c-0.5-0.1-0.9-0.7-0.7-1.2 c2.5-9.9,4.4-19.1,5.4-27.1c0.1-0.5,0.6-0.9,1.1-0.9C237.2,104.9,237.6,105.4,237.5,105.9z M231,137.1c-0.8,2.9-1.7,5.7-2.6,8.4 c-0.1,0.4-0.5,0.7-0.9,0.7c-0.1,0-0.2,0-0.3-0.1c-0.5-0.2-0.8-0.8-0.6-1.3c0.9-2.6,1.8-5.3,2.6-8.2c0.1-0.5,0.7-0.8,1.2-0.7 C230.9,136,231.2,136.6,231,137.1z M227.2,148.6c-1.7,4.1-2.4,5.8-4.4,8.9c-0.2,0.3-0.5,0.4-0.8,0.4c-0.2,0-0.4-0.1-0.6-0.2 c-0.5-0.3-0.6-0.9-0.3-1.4c1.9-2.9,2.5-4.4,4.2-8.5c0.2-0.5,0.8-0.8,1.3-0.5C227.1,147.6,227.4,148.1,227.2,148.6z M219.9,160.1 c0.4,0.3,0.5,1,0.2,1.4c-0.2,0.3-0.4,0.5-0.5,0.7c-0.3,0.5-0.5,0.7-1.1,1.4c-0.2,0.2-0.5,0.3-0.7,0.3c-0.2,0-0.5-0.1-0.7-0.3 c-0.4-0.4-0.4-1-0.1-1.4c0.5-0.6,0.7-0.8,1-1.2c0.1-0.2,0.3-0.4,0.5-0.7C218.8,159.8,219.5,159.8,219.9,160.1z M215.6,165.2 c0.4,0.4,0.3,1-0.1,1.4c-1.7,1.6-3.5,2.9-5.3,3.8c-2.3,1.2-4.9,1.8-7.5,1.8c-3.1,0-6.3-0.9-9-2.7c-0.5-0.3-0.6-0.9-0.3-1.4 c0.3-0.5,0.9-0.6,1.4-0.3c4.3,2.9,9.8,3.2,14.4,0.8c1.7-0.9,3.3-2,4.9-3.5C214.6,164.8,215.2,164.8,215.6,165.2z M192.3,165.6 c0.4,0.4,0.3,1-0.1,1.4c-0.2,0.2-0.4,0.3-0.7,0.3c-0.3,0-0.5-0.1-0.7-0.3c-0.2-0.3-0.5-0.5-0.7-0.8c-2.6-3.3-4.8-6.6-6-13.9 c-0.1-0.5,0.3-1.1,0.8-1.2c0.5-0.1,1.1,0.3,1.2,0.8c1.2,6.8,3.3,9.9,5.7,13C191.9,165.2,192.1,165.4,192.3,165.6z M184.4,148.4 c-0.5,0-0.9-0.4-1-0.9c-0.1-0.6-0.1-1.2-0.2-1.9c0-0.6,0.4-1,0.9-1.1c0.6,0,1,0.4,1.1,0.9c0.1,0.6,0.1,1.2,0.2,1.8 c0.1,0.5-0.3,1-0.9,1.1C184.5,148.4,184.5,148.4,184.4,148.4z M183,142.3c-0.2-5.3,0.1-11,1.1-17c0.4-2.3,0.7-4.6,1.1-6.8 c0.1-0.5,0.6-0.9,1.2-0.8c0.5,0.1,0.9,0.6,0.8,1.2c-0.4,2.2-0.8,4.5-1.1,6.8c-0.9,5.9-1.2,11.5-1,16.7c0,0.6-0.4,1-1,1c0,0,0,0,0,0 C183.5,143.3,183.1,142.8,183,142.3z M185.8,115.6c0.1-0.7,0.4-1.8,0.5-2.5c0-0.1,0-0.2,0-0.2c0,0,0-0.1,0-0.1c0-0.1,0-0.1,0-0.2 c0-0.1,0-0.1,0-0.1l0,0c0.1-0.4,0.4-1,1.2-0.8c0.7,0.1,0.8,0.6,0.8,1.2l0,0l-0.1,0.2c0,0.1-0.1,0.3-0.1,0.4 c-0.1,0.7-0.3,1.7-0.5,2.5c-0.1,0.5-0.5,0.8-1,0.8c-0.1,0-0.1,0-0.2,0C186,116.7,185.6,116.2,185.8,115.6z M187.2,108.6 c0.9-3.8,1.8-7.5,2.8-10.9c0.2-0.5,0.7-0.8,1.2-0.7c0.5,0.2,0.8,0.7,0.7,1.2c-1,3.4-1.9,7-2.7,10.8c-0.1,0.5-0.5,0.8-1,0.8 c-0.1,0-0.1,0-0.2,0C187.4,109.7,187.1,109.1,187.2,108.6z M191.6,92.5c2.6-8.3,4.1-10.8,4.5-11.3c1.3-3.4,10.7-2.7,14.8-2.3 c0.5,0.1,0.9,0.6,0.9,1.1c-0.1,0.5-0.6,0.9-1.1,0.9c-9.3-1-12.6,0.4-12.7,1c-0.1,0.3,0.7,1.7,5.1,3.7c0.5,0.2,0.7,0.8,0.5,1.3 c-0.2,0.4-0.5,0.6-0.9,0.6c-0.1,0-0.3,0-0.4-0.1c-2.6-1.1-4.4-2.3-5.3-3.4c-0.7,1.5-1.8,4.3-3.3,9.1c-0.1,0.4-0.5,0.7-1,0.7 c-0.1,0-0.2,0-0.3,0C191.7,93.6,191.4,93,191.6,92.5z M160.4,263.6c0.2,0.1,20.7,8.4,39.5,8c0.5,0,1,0.4,1,1c0,0.6-0.4,1-1,1 c-0.4,0-0.8,0-1.2,0c-18.9,0-38.9-8.1-39.1-8.2c-0.5-0.2-0.8-0.8-0.5-1.3C159.3,263.6,159.9,263.4,160.4,263.6z M176.5,259.7 c-0.2-0.5,0-1.1,0.6-1.3c0.5-0.2,1.1,0,1.3,0.5c0.3,0.7,1.4,2.8,3,3c1,0.2,2.2-0.4,3.5-1.7c0.4-0.4,1-0.4,1.4,0c0.4,0.4,0.4,1,0,1.4 c-1.5,1.6-3,2.4-4.5,2.4c-0.3,0-0.5,0-0.8-0.1C178.1,263.4,176.6,259.9,176.5,259.7z M215.6,99.6c-4.8-0.4-8-1.7-9.5-3.8 c-2.6-3.7-9-3.4-9.1-3.4c-0.5,0-1-0.4-1-1c0-0.6,0.4-1,0.9-1c0.3,0,7.6-0.3,10.8,4.2c1.1,1.6,4,2.7,8,3c1.8,0.1,3.8,0,5.8-0.5 c2.5-0.6,7.2-1.1,10.5,2.2c0.4,0.4,0.4,1,0,1.4c-0.2,0.2-0.5,0.3-0.7,0.3c-0.3,0-0.5-0.1-0.7-0.3c-2.6-2.6-6.5-2.1-8.6-1.6 C219.8,99.6,217.6,99.8,215.6,99.6z M206.9,110.3c1.3,0,2.5-0.9,2.8-2.3c0.2-0.7,0-1.5-0.4-2.1s-1.1-1.1-1.8-1.2 c-1.5-0.3-3,0.7-3.4,2.2c-0.3,1.5,0.7,3,2.2,3.4C206.5,110.2,206.7,110.3,206.9,110.3z M206.1,107.2c0.1-0.4,0.4-0.7,0.8-0.7 c0.1,0,0.1,0,0.2,0c0.2,0,0.4,0.2,0.5,0.4c0.1,0.2,0.2,0.4,0.1,0.6c0,0,0,0,0,0c-0.1,0.5-0.5,0.8-1,0.7 C206.3,108.1,206,107.7,206.1,107.2z M197.5,111.9c-1.7-0.4-3.5,0.8-3.8,2.5c-0.2,0.8,0,1.7,0.5,2.4c0.5,0.7,1.2,1.2,2,1.4 c0.2,0,0.4,0.1,0.7,0.1c1.5,0,2.9-1.1,3.2-2.6C200.3,114,199.2,112.2,197.5,111.9z M198,115.3c-0.1,0.7-0.8,1.1-1.5,1 c-0.3-0.1-0.6-0.3-0.8-0.5s-0.2-0.6-0.2-0.9c0.1-0.3,0.3-0.6,0.5-0.8c0.2-0.1,0.4-0.2,0.7-0.2c0.1,0,0.2,0,0.2,0 C197.7,114,198.2,114.6,198,115.3z M201.5,128.9c-0.2,1,0,2,0.5,2.8c0.6,0.8,1.4,1.4,2.4,1.6c0.3,0.1,0.5,0.1,0.8,0.1 c0.7,0,1.4-0.2,2.1-0.6c0.8-0.6,1.4-1.4,1.6-2.4c0.2-1,0-2-0.5-2.8c-0.6-0.8-1.4-1.4-2.4-1.6c-1-0.2-2,0-2.8,0.5 C202.3,127,201.7,127.9,201.5,128.9z M203.4,129.3c0.1-0.5,0.4-0.9,0.8-1.1c0.3-0.2,0.6-0.3,1-0.3c0.1,0,0.2,0,0.4,0 c0.5,0.1,0.9,0.4,1.1,0.8s0.4,0.9,0.3,1.3c-0.1,0.5-0.4,0.9-0.8,1.1c-0.4,0.3-0.9,0.4-1.3,0.3c-0.5-0.1-0.9-0.4-1.1-0.8 C203.4,130.2,203.3,129.7,203.4,129.3z M198.6,137.3c0.2,0,0.3,0,0.5,0c0.4,0,0.9-0.1,1.2-0.4c0.5-0.3,0.8-0.8,1-1.4s0-1.2-0.3-1.7 s-0.8-0.8-1.4-1c-0.6-0.1-1.2,0-1.7,0.3c-0.5,0.3-0.8,0.8-1,1.4s0,1.2,0.3,1.7C197.5,136.9,198,137.2,198.6,137.3z M198.9,134.9 c0,0,0.1,0,0.1,0c0,0,0,0,0.1,0c0.1,0,0.1,0.1,0.2,0.1c0,0,0.1,0.1,0,0.2v0c0,0.1-0.1,0.1-0.1,0.2c0,0-0.1,0.1-0.2,0 c-0.1,0-0.1-0.1-0.2-0.1c0,0-0.1-0.1,0-0.2C198.8,135,198.9,134.9,198.9,134.9z M194.7,151.1c-0.8-0.2-1.6,0-2.2,0.4 c-0.7,0.4-1.1,1.1-1.3,1.9c-0.3,1.6,0.7,3.1,2.3,3.5c0.2,0,0.4,0.1,0.6,0.1c0.6,0,1.1-0.2,1.6-0.5c0.7-0.4,1.1-1.1,1.3-1.9 s0-1.6-0.4-2.2C196.1,151.8,195.4,151.3,194.7,151.1z M195,154.2c-0.1,0.2-0.2,0.5-0.4,0.6c-0.2,0.1-0.5,0.2-0.7,0.1 c-0.5-0.1-0.8-0.6-0.7-1.1c0.1-0.2,0.2-0.5,0.4-0.6c0.2-0.1,0.3-0.2,0.5-0.2c0.1,0,0.1,0,0.2,0c0.2,0.1,0.5,0.2,0.6,0.4 C195,153.7,195,154,195,154.2z M268.8,113.9c-0.3-0.5-0.1-1.1,0.3-1.4c2.4-1.5,5.5-3.1,8.8-4.5c0.5-0.2,1.1,0,1.3,0.5 c0.2,0.5,0,1.1-0.5,1.3c-3.3,1.4-6.2,2.9-8.5,4.3c-0.2,0.1-0.3,0.2-0.5,0.2C269.3,114.4,269,114.2,268.8,113.9z M280.9,108 c-0.2-0.5,0.1-1.1,0.6-1.3c1.3-0.5,2.6-0.9,3.9-1.3c0.5-0.2,1.1,0.1,1.3,0.7c0.2,0.5-0.1,1.1-0.7,1.3c-1.3,0.4-2.5,0.8-3.8,1.3 c-0.1,0-0.2,0.1-0.3,0.1C281.4,108.6,281,108.4,280.9,108z M287.9,105.7c-0.1-0.5,0.2-1.1,0.7-1.2c3.9-1,13-3.1,14.6,0.1 c0,0,0,0,0,0c0.1,0.2,2.9,3.9,6.9,12.3c0.2,0.5,0,1.1-0.5,1.3c-0.1,0.1-0.3,0.1-0.4,0.1c-0.4,0-0.7-0.2-0.9-0.6 c-2.4-5-4.4-8.4-5.6-10.3c-0.8,1.2-2.3,2.5-4.6,4c-0.2,0.1-0.4,0.2-0.5,0.2c-0.3,0-0.7-0.2-0.8-0.5c-0.3-0.5-0.2-1.1,0.3-1.4 c4-2.6,4.5-4,4.4-4.3c-0.2-0.6-3.6-1.5-12.4,0.9C288.6,106.5,288,106.2,287.9,105.7z M284.2,116.9c-0.2-0.5,0.1-1.1,0.6-1.3 c3.6-1.3,6.9-2.8,9.7-4.4c0.5-0.3,1.1-0.1,1.4,0.4c0.3,0.5,0.1,1.1-0.4,1.4c-2.9,1.6-6.4,3.1-10,4.5c-0.1,0-0.2,0.1-0.3,0.1 C284.7,117.6,284.3,117.3,284.2,116.9z M279.8,117.3c0.7-0.2,1.4-0.4,2-0.6c0.5-0.2,1.1,0.1,1.3,0.6c0.2,0.5-0.1,1.1-0.6,1.3 c-0.7,0.2-1.4,0.5-2.1,0.7c-0.1,0-0.2,0-0.3,0c-0.4,0-0.8-0.3-1-0.7C279,118,279.3,117.4,279.8,117.3z M266.8,131.6 c-0.4,0-0.8-0.3-1-0.7c-2.2-7.8-2.4-11.1-2.4-11.7c-0.3-1.3,0.6-2.8,2.7-4.5c0.4-0.4,1.1-0.3,1.4,0.1c0.4,0.4,0.3,1.1-0.1,1.4 c-1.9,1.5-2.1,2.4-2,2.6c0.2,0.6,3.3,1.4,11.7-0.7c0.5-0.1,1.1,0.2,1.2,0.7c0.1,0.5-0.2,1.1-0.7,1.2c-2.6,0.7-6.3,1.4-9.2,1.4 c-1,0-2-0.1-2.7-0.3c0.2,1.7,0.8,4.7,2.1,9.3c0.2,0.5-0.2,1.1-0.7,1.2C267,131.6,266.9,131.6,266.8,131.6z M277.3,160.7 c-0.1,0.1-0.3,0.1-0.4,0.1c-0.4,0-0.8-0.2-0.9-0.6c-3.9-9.3-7.1-17.9-9.3-25.7c-0.2-0.5,0.2-1.1,0.7-1.2c0.5-0.2,1.1,0.2,1.2,0.7 c2.2,7.6,5.3,16.2,9.2,25.4C278,159.9,277.8,160.5,277.3,160.7z M282.6,171.8c-0.2,0.1-0.3,0.1-0.5,0.1c-0.4,0-0.7-0.2-0.9-0.5 c-1.3-2.4-2.6-5-3.8-7.7c-0.2-0.5,0-1.1,0.5-1.3c0.5-0.2,1.1,0,1.3,0.5c1.2,2.7,2.4,5.2,3.7,7.5C283.3,171,283.1,171.6,282.6,171.8z M325,165c0,0.6,0.1,1.2,0.1,1.9c0,0.6-0.4,1-1,1c0,0,0,0,0,0c-0.5,0-1-0.4-1-1c0-0.6,0-1.2-0.1-1.8c0-0.6,0.4-1,0.9-1.1 C324.5,164,325,164.4,325,165z M318.2,139.5c0.5-0.2,1.1,0.1,1.3,0.6c0.7,2,1,3,1.7,5.3c1.8,5.7,3,11.2,3.5,16.3 c0.1,0.5-0.3,1-0.9,1.1c0,0-0.1,0-0.1,0c-0.5,0-0.9-0.4-1-0.9c-0.5-5-1.7-10.4-3.4-15.9c-0.7-2.2-1-3.2-1.7-5.3 C317.4,140.2,317.7,139.7,318.2,139.5z M315.5,131.8c0.5-0.2,1.1,0.1,1.3,0.6c0.5,1.3,0.9,2.5,1.4,3.9c0.2,0.5-0.1,1.1-0.6,1.3 c-0.1,0-0.2,0.1-0.3,0.1c-0.4,0-0.8-0.3-0.9-0.7c-0.5-1.3-0.9-2.6-1.4-3.9C314.7,132.6,315,132,315.5,131.8z M310.2,119.1 c0.5-0.2,1.1,0,1.3,0.5c1.5,3.2,2.9,6.6,4.3,10.1c0.2,0.5-0.1,1.1-0.6,1.3c-0.1,0-0.2,0.1-0.4,0.1c-0.4,0-0.8-0.2-0.9-0.6 c-1.4-3.5-2.8-6.9-4.2-10C309.5,120,309.7,119.4,310.2,119.1z M329.1,293.2c23.7-2.9,37-13.7,37.1-13.8c0.4-0.4,1.1-0.3,1.4,0.1 c0.4,0.4,0.3,1.1-0.1,1.4c-0.6,0.5-13.8,11.3-38.2,14.3c0,0-0.1,0-0.1,0c-0.5,0-0.9-0.4-1-0.9C328.1,293.7,328.5,293.3,329.1,293.2z M340.3,281.6c-0.4-0.3-0.5-1-0.2-1.4c0.3-0.4,1-0.5,1.4-0.2c1.5,1.1,2.7,1.5,3.7,1.2c1.5-0.5,2.3-2.7,2.5-3.5 c0.1-0.5,0.7-0.9,1.2-0.7c0.5,0.1,0.9,0.7,0.7,1.2c0,0.2-1,3.9-3.8,4.9c-0.5,0.2-0.9,0.2-1.4,0.2 C343.2,283.3,341.8,282.7,340.3,281.6z M287,125.3c-2,0.5-4.1,0.6-6.3,0.4c-2.1-0.2-5.9,0-8.1,2.8c-0.2,0.3-0.5,0.4-0.8,0.4 c-0.2,0-0.4-0.1-0.6-0.2c-0.4-0.3-0.5-1-0.2-1.4c2.7-3.6,7.3-3.8,9.8-3.6c2,0.2,3.9,0,5.7-0.4c3.8-0.9,6.4-2.3,7.3-4 c2.4-4.9,9.5-5.7,9.8-5.7c0.6-0.1,1,0.3,1.1,0.9c0.1,0.5-0.3,1-0.9,1.1c-0.1,0-6.3,0.7-8.2,4.6C294.5,122.5,291.6,124.2,287,125.3z M299.1,132.7c0.3-0.7,0.3-1.4,0.1-2.1c-0.5-1.4-2.2-2.2-3.6-1.7c-0.7,0.3-1.3,0.8-1.6,1.5c-0.3,0.7-0.3,1.4-0.1,2.1 s0.8,1.3,1.5,1.6c0.4,0.2,0.8,0.3,1.2,0.3c0.3,0,0.7-0.1,1-0.2C298.2,133.9,298.8,133.3,299.1,132.7z M297.2,131.8 c-0.1,0.2-0.2,0.3-0.5,0.4c-0.2,0.1-0.4,0.1-0.6,0c-0.2-0.1-0.3-0.3-0.4-0.5s-0.1-0.4,0-0.6c0.1-0.2,0.2-0.3,0.5-0.4 c0.1,0,0.2,0,0.3,0c0.3,0,0.6,0.2,0.8,0.5C297.3,131.4,297.3,131.6,297.2,131.8z M308.7,134.5c-0.8-0.4-1.6-0.4-2.4-0.1 c-0.8,0.3-1.4,0.9-1.8,1.7c-0.4,0.8-0.4,1.6-0.1,2.4c0.3,0.8,0.9,1.4,1.7,1.8c0.4,0.2,0.9,0.3,1.3,0.3c0.4,0,0.7-0.1,1.1-0.2 c1.6-0.6,2.5-2.4,1.9-4.1C310.1,135.5,309.5,134.9,308.7,134.5z M307.8,138.5c-0.3,0.1-0.6,0.1-0.9,0c-0.3-0.1-0.5-0.4-0.6-0.7 s-0.1-0.6,0-0.9c0.1-0.3,0.4-0.5,0.7-0.6c0.1,0,0.3-0.1,0.4-0.1c0.2,0,0.3,0,0.5,0.1c0.3,0.1,0.5,0.4,0.6,0.7 C308.7,137.6,308.4,138.3,307.8,138.5z M300.2,149.2c-0.9,0.3-1.7,1-2.1,1.9c-0.4,0.9-0.5,1.9-0.1,2.8c0.3,0.9,1,1.7,1.9,2.1 c0.5,0.2,1,0.3,1.6,0.3c0.4,0,0.9-0.1,1.3-0.2c0.9-0.3,1.7-1,2.1-1.9s0.5-1.9,0.1-2.8C304.2,149.5,302.1,148.5,300.2,149.2z M303,153.4c-0.2,0.4-0.5,0.7-1,0.9c-0.4,0.2-0.9,0.1-1.3-0.1c-0.4-0.2-0.7-0.5-0.9-1c0,0,0,0,0,0c-0.2-0.4-0.1-0.9,0.1-1.3 c0.2-0.4,0.5-0.7,1-0.9c0.2-0.1,0.4-0.1,0.6-0.1c0.7,0,1.3,0.4,1.6,1.1C303.2,152.6,303.2,153,303,153.4z M317,172 c-0.7-0.3-1.5-0.4-2.2-0.1c-0.7,0.3-1.3,0.8-1.6,1.5c-0.3,0.7-0.4,1.5-0.1,2.2c0.4,1.2,1.5,1.9,2.7,1.9c0.3,0,0.7-0.1,1-0.2 c0.7-0.3,1.3-0.8,1.6-1.5c0.3-0.7,0.4-1.5,0.1-2.2C318.2,172.9,317.7,172.4,317,172z M316.6,175c-0.1,0.2-0.3,0.4-0.5,0.5 c-0.2,0.1-0.5,0.1-0.7,0s-0.4-0.3-0.5-0.5v0c-0.1-0.2-0.1-0.5,0-0.7s0.3-0.4,0.5-0.5c0.1,0,0.2-0.1,0.3-0.1c0.1,0,0.3,0,0.4,0.1 c0.2,0.1,0.4,0.3,0.5,0.5C316.7,174.6,316.7,174.8,316.6,175z M477.2,225c-0.1-0.1-11.8-6-23.8-19.2c-12.9-14.2-42.3-30.8-67.5-32.9 c-23.9-2-30.8-2.5-31.6-2.5l-23.2-5.9c-2.7-32-23.8-66.6-24-66.9l-16.4-27.9c0,0,0,0,0,0c-1.9-4-15.2-0.3-22.1,2.2 c-5.2,1.9-10,4.2-13.3,6.4c-3.8,2.5-5.4,4.5-4.9,6.2c0,0,0,0,0,0l5.6,31.8c0.1,0.4,6.2,39.3,24.3,65.4h-20.1c-0.3,0-7.2,0.1-7.8,4.5 c-0.1,1.1-0.4,3.8,14.7,6.4l10.3,9.6c1.2,1.1,2.6,2.1,4.2,2.8l3.7,1.7l14.4,17.3c0.7,0.8,1.5,1.5,2.5,2l5.4,2.8l7.8,15.5 c2.4,4.8,6.8,8.5,13.1,11c0.9,0.4,2,0.7,3,1.1l2.8,7.7c0.2,0.5,5.4,12.7-4.9,22.4l-6.4,5.6c-1.4,1.3-2.2,3.1-2.2,5 c0,0.8,0.1,1.5,0.4,2.3c0.4,1.2,1.5,1.9,2.8,1.9c0.1,0,0.1,0,0.2,0c5-0.3,14.3-2.1,25.5-6.2l1.4-0.5c11.4-4.2,20.6-9.9,23.7-11.8 c0.9-0.5,1.4-1.5,1.4-2.5c0-0.3-0.1-0.7-0.2-1c-0.9-2.5-3.4-4.3-6.1-4.3l-8.5-0.1c-14.2-0.8-18.1-13.4-18.3-14l-0.5-1.3 c20.3,4.7,49.5,7.6,65.4,4.8c23.6-4.1,52.9,17.3,53.2,17.6c0.2,0.1,0.4,0.2,0.6,0.2c0.3,0,0.6-0.1,0.8-0.4c0.3-0.4,0.2-1.1-0.2-1.4 c-0.1-0.1-7.6-5.6-18-10.6c-9.7-4.6-23.9-9.6-36.7-7.4c-19.9,3.5-61-2.1-78.4-8.9c-5.8-2.3-9.8-5.6-12-10l-6.6-13.1l7.8,4.1l3.3,3.7 c1.3,1.4,2.8,2.5,4.6,3.1c0,0,0.1,0,0.1,0c0.8,0.3,1.6,0.5,2.5,0.6l5,0.6l11.9,6.2c0.1,0.1,0.3,0.1,0.5,0.1c0.4,0,0.7-0.2,0.9-0.5 c0.3-0.5,0.1-1.1-0.4-1.3l-27.2-14.2c0,0,0,0,0,0l-16.4-8.6c-0.7-0.4-1.3-0.9-1.9-1.5l-11.8-14.2l50.6,22.8c0.1,0.1,0.3,0.1,0.4,0.1 c0.4,0,0.7-0.2,0.9-0.6c0.2-0.5,0-1.1-0.5-1.3l-58.5-26.3c-1.3-0.6-2.6-1.4-3.6-2.4l-8-7.4c1.9,0.4,3.8,0.8,5.7,1.3l58.3,15.4 c0.1,0,0.2,0,0.3,0c0.4,0,0.8-0.3,1-0.7c0.1-0.5-0.2-1.1-0.7-1.2L277,192.6c-3-0.8-6-1.4-8.9-1.9c-11.5-1.9-13.7-3.9-13.7-4.3 c0.3-2.6,5.7-2.7,5.8-2.7h98.1c0.6,0,1-0.4,1-1s-0.4-1-1-1h-26c-0.3-0.2-0.9-0.5-1.7-1c0.7-4.3,0.9-9.1,0.6-14.2l22.6,5.7 c0.1,0,0.1,0,0.2,0c0.1,0,6.2,0.4,31.7,2.5c24.6,2,53.5,18.3,66.2,32.2c12.3,13.5,23.9,19.4,24.4,19.7c0.1,0.1,0.3,0.1,0.4,0.1 c0.4,0,0.7-0.2,0.9-0.6C477.9,225.8,477.7,225.2,477.2,225z M341.2,261.4c0,0.1,4.5,14.4,20.2,15.3l8.5,0.1c1.9,0,3.6,1.2,4.2,3 c0,0.1,0.1,0.2,0.1,0.3c0,0.3-0.2,0.6-0.4,0.8c-3,1.9-12.1,7.5-23.3,11.6l-1.4,0.5c-10.9,4-20,5.8-24.9,6.1c-0.4,0-0.8-0.2-0.9-0.6 c-0.2-0.5-0.3-1.1-0.3-1.6c0-1.3,0.6-2.6,1.6-3.5l6.4-5.6c11.4-10.8,5.4-24.6,5.4-24.7l-2.3-6.1c2,0.6,4.1,1.2,6.3,1.7L341.2,261.4z M323.5,237.1l1.2,0.6l0.2,0.5c0,0,0,0.1,0,0.1C324.4,237.9,323.9,237.5,323.5,237.1z M327.5,239.6c-0.1-0.2-0.1-0.3-0.2-0.5 l1.6,0.8C328.5,239.8,328,239.7,327.5,239.6z M256.4,79.9c3.3-2.1,7.9-4.4,12.9-6.2c7.9-2.9,13.7-3.8,16.9-3.8 c1.7,0,2.6,0.3,2.8,0.6c0.1,0.3-0.4,1.7-4.1,4.1c-3.3,2.1-7.9,4.4-12.9,6.2c-5.1,1.9-10,3.2-13.9,3.6c-4.4,0.5-5.6-0.2-5.7-0.4 C252.2,83.7,252.7,82.4,256.4,79.9z M258,116l-5.2-29.6c0.7,0.2,1.5,0.2,2.4,0.2c0.9,0,1.9-0.1,3.1-0.2c4-0.5,9.1-1.8,14.3-3.8 c5.2-1.9,10-4.2,13.3-6.4c2-1.3,3.4-2.5,4.2-3.6l15.2,25.9c0.2,0.3,21.4,35,23.8,66.8c0.4,5.7,0.2,11-0.6,15.8 c0,0.2-0.1,0.4-0.1,0.6h-4.4c1-2.8,1-5.9,1-8.5c0-0.6,0-1.1,0-1.7c0-0.6-0.4-1-1-1c-0.5,0-1,0.4-1,1c0,0.5,0,1.1,0,1.7 c0,2.8,0,6-1.2,8.5h-31.8c0-0.1-0.1-0.2-0.1-0.3l-0.5-0.7c-1.3-1.8-3.7-5-4.8-7.3c-0.2-0.5-0.8-0.7-1.3-0.5 c-0.5,0.2-0.7,0.8-0.5,1.3c1.2,2.4,3.5,5.7,4.8,7.5h-4.9C264.3,156,258,116.4,258,116z M277.5,60.9l0.2-3.8c0-0.6,0.5-1,1-1 c0.6,0,1,0.5,1,1l-0.2,3.8c0,0.5-0.5,1-1,1c0,0,0,0,0,0C277.9,61.9,277.4,61.5,277.5,60.9z M277.8,53.1l0.2-5.4c0-0.6,0.5-1,1-1 c0.6,0,1,0.5,1,1l-0.2,5.4c0,0.5-0.5,1-1,1c0,0,0,0,0,0C278.2,54.2,277.8,53.7,277.8,53.1z M278.2,43.1l0.4-10.1c0-0.6,0.5-1,1-1 c0.6,0,1,0.5,1,1l-0.4,10.1c0,0.5-0.5,1-1,1c0,0,0,0,0,0C278.6,44.2,278.2,43.7,278.2,43.1z M286.1,59.4l2.7-9 c0.2-0.5,0.7-0.8,1.2-0.7c0.5,0.2,0.8,0.7,0.7,1.2l-2.7,9c-0.1,0.4-0.5,0.7-1,0.7c-0.1,0-0.2,0-0.3,0 C286.2,60.5,285.9,59.9,286.1,59.4z M290.7,44.1l0.9-2.8c0.2-0.5,0.7-0.8,1.2-0.7c0.5,0.2,0.8,0.7,0.7,1.2l-0.9,2.8 c-0.1,0.4-0.5,0.7-1,0.7c-0.1,0-0.2,0-0.3,0C290.8,45.2,290.5,44.7,290.7,44.1z M291.6,60.4l2.4-3.8c0.3-0.5,0.9-0.6,1.4-0.3 s0.6,0.9,0.3,1.4l-2.4,3.8c-0.2,0.3-0.5,0.5-0.8,0.5c-0.2,0-0.4-0.1-0.5-0.2C291.5,61.5,291.3,60.9,291.6,60.4z M296.6,52.7l1.7-2.6 c0.3-0.5,0.9-0.6,1.4-0.3c0.5,0.3,0.6,0.9,0.3,1.4l-1.7,2.6c-0.2,0.3-0.5,0.5-0.8,0.5c-0.2,0-0.4-0.1-0.5-0.2 C296.4,53.8,296.3,53.2,296.6,52.7z M300.6,46.5l4.6-7.2c0.3-0.5,0.9-0.6,1.4-0.3c0.5,0.3,0.6,0.9,0.3,1.4l-4.6,7.2 c-0.2,0.3-0.5,0.5-0.8,0.5c-0.2,0-0.4-0.1-0.5-0.2C300.4,47.5,300.3,46.9,300.6,46.5z M307.8,35.2l2.7-4.3c0.3-0.5,0.9-0.6,1.4-0.3 c0.5,0.3,0.6,0.9,0.3,1.4l-2.7,4.3c-0.2,0.3-0.5,0.5-0.8,0.5c-0.2,0-0.4-0.1-0.5-0.2C307.6,36.3,307.5,35.6,307.8,35.2z M296.2,64.9 l12.1-8.6c0.5-0.3,1.1-0.2,1.4,0.2c0.3,0.5,0.2,1.1-0.2,1.4l-12.1,8.6c-0.2,0.1-0.4,0.2-0.6,0.2c-0.3,0-0.6-0.1-0.8-0.4 C295.7,65.8,295.8,65.2,296.2,64.9z M318.8,65.7c-0.2-0.5,0-1.1,0.5-1.3l9.2-3.9c0.5-0.2,1.1,0,1.3,0.5s0,1.1-0.5,1.3l-9.2,3.9 c-0.1,0.1-0.3,0.1-0.4,0.1C319.3,66.3,319,66,318.8,65.7z M312.1,67.4l3-1.2c0.5-0.2,1.1,0,1.3,0.5c0.2,0.5,0,1.1-0.5,1.3l-3,1.2 c-0.1,0.1-0.3,0.1-0.4,0.1c-0.4,0-0.8-0.2-0.9-0.6C311.4,68.2,311.6,67.6,312.1,67.4z M308.9,69.8c0.2,0.5,0,1.1-0.5,1.3l-6,2.5 c-0.1,0.1-0.3,0.1-0.4,0.1c-0.4,0-0.8-0.2-0.9-0.6c-0.2-0.5,0-1.1,0.5-1.3l6-2.5C308.1,69,308.7,69.3,308.9,69.8z M218,26.6l0.3-3.5 c0.1-0.5,0.5-1,1.1-0.9c0.5,0.1,1,0.5,0.9,1.1l-0.3,3.5c0,0.5-0.5,0.9-1,0.9c0,0-0.1,0-0.1,0C218.3,27.6,217.9,27.1,218,26.6z M218.7,18.8l0.5-5.1c0.1-0.5,0.5-1,1.1-0.9c0.5,0.1,1,0.5,0.9,1.1l-0.5,5.1c0,0.5-0.5,0.9-1,0.9c0,0-0.1,0-0.1,0 C219.1,19.9,218.7,19.4,218.7,18.8z M219.7,8.7l0.7-7.8c0.1-0.5,0.5-1,1.1-0.9c0.5,0.1,1,0.5,0.9,1.1l-0.7,7.8c0,0.5-0.5,0.9-1,0.9 c0,0-0.1,0-0.1,0C220.1,9.7,219.7,9.2,219.7,8.7z M210,28.4L207.8,14c-0.1-0.5,0.3-1.1,0.8-1.1c0.5-0.1,1.1,0.3,1.1,0.8l2.3,14.4 c0.1,0.5-0.3,1.1-0.8,1.1c-0.1,0-0.1,0-0.2,0C210.5,29.3,210.1,28.9,210,28.4z M201.8,19.1c0.5-0.2,1.1,0.1,1.3,0.6l3.1,9.5 c0.2,0.5-0.1,1.1-0.6,1.3c-0.1,0-0.2,0.1-0.3,0.1c-0.4,0-0.8-0.3-0.9-0.7l-3.1-9.5C200.9,19.9,201.2,19.3,201.8,19.1z M197.6,6.6 c0.5-0.2,1.1,0.1,1.3,0.6l2.4,7.1c0.2,0.5-0.1,1.1-0.6,1.3c-0.1,0-0.2,0.1-0.3,0.1c-0.4,0-0.8-0.3-0.9-0.7L197,7.9 C196.8,7.4,197.1,6.8,197.6,6.6z M194.8,1.3c-0.2-0.5,0.1-1.1,0.6-1.3c0.5-0.2,1.1,0.1,1.3,0.6l1.1,3.3c0.2,0.5-0.1,1.1-0.6,1.3 c-0.1,0-0.2,0.1-0.3,0.1c-0.4,0-0.8-0.3-0.9-0.7L194.8,1.3z M198.8,33.7l-2.8-3.4c-0.3-0.4-0.3-1.1,0.2-1.4c0.4-0.3,1.1-0.3,1.4,0.2 l2.8,3.4c0.3,0.4,0.3,1.1-0.2,1.4c-0.2,0.1-0.4,0.2-0.6,0.2C199.3,34,199,33.9,198.8,33.7z M190.9,23.8c-0.3-0.4-0.3-1.1,0.2-1.4 c0.4-0.3,1.1-0.3,1.4,0.2l2.2,2.7c0.3,0.4,0.3,1.1-0.2,1.4c-0.2,0.1-0.4,0.2-0.6,0.2c-0.3,0-0.6-0.1-0.8-0.4L190.9,23.8z M195.1,36.7l2.3,1.9c0.4,0.4,0.5,1,0.1,1.4c-0.2,0.2-0.5,0.4-0.8,0.4c-0.2,0-0.5-0.1-0.6-0.2l-2.3-1.9c-0.4-0.4-0.5-1-0.1-1.4 C194.1,36.4,194.7,36.3,195.1,36.7z M182.6,28.9c-0.4-0.4-0.5-1-0.1-1.4c0.4-0.4,1-0.5,1.4-0.1l7,5.8c0.4,0.4,0.5,1,0.1,1.4 c-0.2,0.2-0.5,0.4-0.8,0.4c-0.2,0-0.5-0.1-0.6-0.2L182.6,28.9z M176.7,24c-0.4-0.4-0.5-1-0.1-1.4c0.4-0.4,1-0.5,1.4-0.1l2.4,2 c0.4,0.4,0.5,1,0.1,1.4c-0.2,0.2-0.5,0.4-0.8,0.4c-0.2,0-0.5-0.1-0.6-0.2L176.7,24z M161.4,58.1l10.9,1.4l1.4,10.9 c0.1,0.5,0.5,0.9,1,0.9s0.9-0.4,1-0.9l1.4-10.9l10.9-1.4c0.5-0.1,0.9-0.5,0.9-1s-0.4-0.9-0.9-1l-10.9-1.4l-1.4-10.8 c-0.1-0.5-0.5-0.9-1-0.9s-0.9,0.4-1,0.9l-1.4,10.8l-10.9,1.4c-0.5,0.1-0.9,0.5-0.9,1S160.9,58.1,161.4,58.1z M173.3,56.6 c0.4-0.1,0.8-0.4,0.9-0.9l0.5-3.9l0.5,3.9c0.1,0.5,0.4,0.8,0.9,0.9l3.9,0.5l-3.9,0.5c-0.5,0.1-0.8,0.4-0.9,0.9l-0.5,3.9l-0.5-3.9 c-0.1-0.5-0.4-0.8-0.9-0.9l-3.9-0.5L173.3,56.6z M323.3,105.2c0,0.5,0.4,0.9,0.9,1l10.9,1.4l1.4,10.9c0.1,0.5,0.5,0.9,1,0.9 s0.9-0.4,1-0.9l1.4-10.9l10.9-1.4c0.5-0.1,0.9-0.5,0.9-1s-0.4-0.9-0.9-1l-10.9-1.4L338.5,92c-0.1-0.5-0.5-0.9-1-0.9s-0.9,0.4-1,0.9 l-1.4,10.8l-10.9,1.4C323.7,104.3,323.3,104.7,323.3,105.2z M336.1,104.7c0.5-0.1,0.8-0.4,0.9-0.9l0.5-3.9l0.5,3.9 c0.1,0.5,0.4,0.8,0.9,0.9l3.9,0.5l-3.9,0.5c-0.5,0.1-0.8,0.4-0.9,0.9l-0.5,3.9l-0.5-3.9c-0.1-0.5-0.4-0.8-0.9-0.9l-3.9-0.5 L336.1,104.7z M261.9,53.4c2,0,3.7-1.7,3.7-3.7s-1.7-3.7-3.7-3.7c-2,0-3.7,1.7-3.7,3.7S259.8,53.4,261.9,53.4z M261.9,48 c0.9,0,1.7,0.8,1.7,1.7s-0.8,1.7-1.7,1.7c-0.9,0-1.7-0.8-1.7-1.7S260.9,48,261.9,48z M359.3,134c2.2,0,4-1.8,4-4s-1.8-4-4-4 c-2.2,0-4,1.8-4,4S357,134,359.3,134z M359.3,128c1.1,0,2,0.9,2,2c0,1.1-0.9,2-2,2s-2-0.9-2-2C357.2,128.9,358.1,128,359.3,128z M146.4,105.9c2.6,0,4.6-2.1,4.6-4.6s-2.1-4.6-4.6-4.6s-4.6,2.1-4.6,4.6S143.9,105.9,146.4,105.9z M146.4,98.6 c1.5,0,2.6,1.2,2.6,2.6s-1.2,2.6-2.6,2.6s-2.6-1.2-2.6-2.6S145,98.6,146.4,98.6z M170.9,81.2c1.3,0,2.4,1.1,2.4,2.4 c0,1.3-1.1,2.4-2.4,2.4c-1.3,0-2.4-1.1-2.4-2.4C168.5,82.3,169.5,81.2,170.9,81.2z M342.7,151.1c1.2,0,2.1,0.9,2.1,2.1 c0,1.2-0.9,2.1-2.1,2.1c-1.2,0-2.1-0.9-2.1-2.1C340.6,152,341.5,151.1,342.7,151.1z M248.8,37.8c0,1.1-0.9,2-2,2c-1.1,0-2-0.9-2-2 c0-1.1,0.9-2,2-2C247.9,35.7,248.8,36.6,248.8,37.8z" style="fill: rgb(255, 252, 247);"/>
  </g>
</svg>