<?xml version="1.0" encoding="UTF-8"?><!DOCTYPE svg PUBLIC "-//W3C//DTD SVG 1.0//EN" "http://www.w3.org/TR/2001/REC-SVG-20010904/DTD/svg10.dtd" []><svg xmlns="http://www.w3.org/2000/svg" xmlns:xlink="http://www.w3.org/1999/xlink" clip-rule="evenodd" fill-rule="evenodd" height="500" preserveAspectRatio="xMidYMid meet" stroke-linejoin="round" stroke-miterlimit="2" version="1.0" viewBox="78.5 0.0 343.1 500.0" width="343" zoomAndPan="magnify"><path d="M0 0H500V500H0z" fill="none"/><g><g><g id="change1_1"><path d="M129.117,155.207c-0.049,22.436 -0.044,44.613 1.205,66.991c0.776,13.929 2.689,27.904 4.696,41.7c1.727,11.869 6.459,25.986 14.965,35.058c8.104,8.631 23.631,10.54 32.761,2.48c7.744,-6.842 11.847,-18.149 15.291,-27.48c7.489,-20.255 16.57,-91.215 15.91,-92.504c-0.883,-1.721 -14.175,-8.242 -18.783,-10.499c-19.478,-9.555 -44.073,-16.731 -66.045,-15.746Z" fill="#fed2d0"/></g><g id="change2_1"><path d="M127.695,154.77c5.125,-3.925 14.442,-5.423 20.593,-5.852c12.516,-0.874 26.004,-0.116 37.574,5.166c4.139,1.891 10.313,6.833 14.041,9.362c5.482,3.715 14.796,15.388 14.349,16.61c-0.2,0.54 -6.195,1.155 -8.291,1.499c-9.541,1.548 -17.931,0.312 -27.414,-0.999c-7.792,-1.084 -18.434,-4.666 -25.544,-7.922c-12.958,-5.941 -24.385,-15.995 -25.308,-17.864Z" fill="#fe7874"/></g><g id="change1_2"><path d="M183.025,156.559c0.036,-0.031 0.072,-0.062 0.107,-0.094c2.601,-2.408 2.761,-6.472 0.357,-9.077c-2.404,-2.604 -6.472,-2.765 -9.077,-0.361c-0.035,0.036 -0.066,0.067 -0.102,0.098c-2.605,2.405 -2.766,6.472 -0.361,9.077c2.408,2.605 6.472,2.766 9.076,0.357Z" fill="#fed2d0"/></g><g id="change1_3"><path d="M152.378,118.369c-0.04,0.032 -0.076,0.063 -0.111,0.098c-2.685,2.311 -2.989,6.37 -0.674,9.055c2.315,2.685 6.374,2.988 9.059,0.673c0.036,-0.031 0.076,-0.062 0.112,-0.093c2.685,-2.315 2.984,-6.374 0.673,-9.059c-2.315,-2.685 -6.374,-2.989 -9.059,-0.674Z" fill="#fed2d0"/></g><g id="change1_4"><path d="M194.511,104.823c-0.732,0.424 -1.392,0.995 -1.927,1.717c-2.962,3.952 -0.696,6.758 -0.517,7.075c1.061,1.9 2.747,3.18 5.356,3.278c0.714,0.031 2.083,0.013 3.667,-0.977c0.183,-0.116 0.847,-0.638 1.093,-0.856c2.622,-2.382 2.819,-6.45 0.437,-9.073c-2.105,-2.324 -5.531,-2.747 -8.109,-1.164Zm9.434,7.163c-0.201,0.79 -0.558,1.553 -1.08,2.248c0.736,-0.981 0.986,-1.757 1.08,-2.248Z" fill="#fed2d0"/></g><g id="change1_5"><path d="M177.932,126.973c-0.103,0.014 -0.201,0.032 -0.263,0.049c-1.187,0.335 -1.878,1.566 -1.544,2.752c0.33,1.178 1.548,1.869 2.726,1.548c0.343,-0.067 0.972,-0.205 1.204,-0.348c0.678,-0.415 1.093,-1.026 1.137,-1.918c0.063,-1.231 -0.887,-2.274 -2.118,-2.337c-0.411,-0.018 -0.803,0.076 -1.142,0.254Zm0.901,4.354c-0.13,0.026 -0.219,0.04 -0.219,0.04c0,-0 0.134,-0.018 0.219,-0.04Zm-2.003,-3.02c-0.049,0.161 -0.085,0.339 -0.094,0.535c0.009,-0.187 0.04,-0.365 0.094,-0.535Z" fill="#fed2d0"/></g><g id="change1_6"><path d="M152.106,154.48c-0.785,0.839 -0.807,2.155 -0.022,3.02c0.829,0.91 2.239,0.981 3.153,0.152c0.304,-0.277 0.754,-0.937 0.79,-1.035c0.201,-0.517 0.174,-0.954 0.098,-1.285c-0.049,-0.236 -0.999,-2.747 -3.341,-1.436c-0.272,0.152 -0.499,0.352 -0.678,0.584Zm1.49,3.573c0.312,0.067 0.776,0.067 1.365,-0.267c-0.433,0.245 -0.91,0.325 -1.365,0.267Z" fill="#fed2d0"/></g><g id="change1_7"><path d="M203.102,151.599c-0.041,-1.146 -0.955,-2.092 -2.124,-2.15c-1.226,-0.058 -2.274,0.892 -2.332,2.119c0.004,-0.121 0.035,-0.241 0.035,-0.241c0,-0 -0.018,1.128 0.049,1.316c0.206,0.584 0.576,0.977 1.062,1.235c0.201,0.107 0.807,0.513 1.891,0.098c0.986,-0.374 1.552,-1.373 1.419,-2.377Zm-1.593,-1.847c-0.303,-0.116 -0.767,-0.187 -1.414,0.058c0.473,-0.178 0.968,-0.187 1.414,-0.058Z" fill="#fed2d0"/></g><g id="change1_8"><path d="M178.507,111.821c0.972,0.259 2.034,-0.169 2.534,-1.092c0.588,-1.084 0.182,-2.44 -0.897,-3.024c-0.638,-0.348 -0.21,-0.277 -1.271,-0.326c-1.231,-0.063 -2.279,0.888 -2.337,2.119c-0.058,1.177 0.816,2.19 1.971,2.323Z" fill="#fed2d0"/></g><g id="change1_9"><path d="M142.806,129.806c-0.245,0.004 -0.134,0.009 -0.33,-0c-2.457,-0.121 -4.549,1.779 -4.67,4.237c-0.12,2.462 1.78,4.554 4.242,4.675c0.5,0.022 0.219,0.017 0.852,0.008c2.462,-0.022 4.438,-2.042 4.411,-4.505c-0.022,-2.462 -2.043,-4.438 -4.505,-4.415Z" fill="#fed2d0"/></g><g id="change1_10"><path d="M204.529,132.411c-0.749,-1.174 -2.039,-1.976 -3.537,-2.048c-2.458,-0.12 -4.55,1.78 -4.67,4.238c0.009,-0.165 0.049,-0.464 0.049,-0.464c-0,-0 0.223,2.694 0.758,3.443c0.531,0.749 1.503,2.235 4.358,1.869c2.44,-0.317 4.166,-2.551 3.854,-4.996c-0.098,-0.762 -0.388,-1.458 -0.812,-2.042Zm-3.096,-1.816c-0.307,-0.04 -0.664,-0.049 -1.088,0.005c0.37,-0.045 0.736,-0.049 1.088,-0.005Z" fill="#fed2d0"/></g><g id="change2_2"><path d="M156.442,193.098c-0.469,-1.855 -2.106,-3.265 -4.113,-3.363c-2.457,-0.12 -4.549,1.78 -4.67,4.238c-0.031,0.651 0.005,0.905 0.031,1.083c0.049,0.339 -0.022,0.629 0.768,1.954c1.257,2.114 3.996,2.81 6.11,1.552c1.905,-1.137 2.659,-3.47 1.874,-5.464Z" fill="#fe7874"/></g><g id="change2_3"><path d="M191.603,225.235c0.031,0.014 0.062,0.027 0.089,0.04c2.221,1.071 4.888,0.134 5.955,-2.083c1.07,-2.216 0.133,-4.884 -2.083,-5.954c-0.032,-0.013 -0.063,-0.027 -0.09,-0.04c-2.221,-1.071 -4.888,-0.134 -5.954,2.083c-1.071,2.216 -0.134,4.884 2.083,5.954Z" fill="#fe7874"/></g><g id="change2_4"><path d="M172.173,226.685l-0.084,-0c-2.463,-0.067 -4.514,1.873 -4.581,4.335c-0.072,2.463 1.873,4.514 4.335,4.581c0.027,0 0.054,0 0.085,0.005c2.462,0.067 4.514,-1.878 4.581,-4.336c0.067,-2.462 -1.874,-4.514 -4.336,-4.585Z" fill="#fe7874"/></g><g id="change2_5"><path d="M148.096,234.883c0.023,-0.018 0.045,-0.031 0.067,-0.049c1.989,-1.45 2.431,-4.242 0.977,-6.231c-1.45,-1.989 -4.242,-2.427 -6.231,-0.977c-0.022,0.013 -0.045,0.031 -0.067,0.045c-1.989,1.454 -2.426,4.246 -0.977,6.235c1.45,1.99 4.242,2.427 6.231,0.977Z" fill="#fe7874"/></g><g id="change2_6"><path d="M160.938,261.449l-0.009,0c-2.458,-0.12 -4.55,1.78 -4.67,4.242c-0.121,2.458 1.779,4.549 4.237,4.67c0.201,0.009 0.553,0.013 0.598,0.013c0.334,-0.013 0.571,-0.058 0.709,-0.085c0.45,-0.093 6.316,-8.149 -0.495,-8.818c-0.125,-0.013 -0.245,-0.022 -0.37,-0.022Zm-0.937,8.836c0.116,0.022 0.259,0.045 0.433,0.062c-0.148,-0.013 -0.295,-0.035 -0.433,-0.062Zm-0.183,-0.04l0.107,0.022l-0.125,-0.027l0.018,0.005Z" fill="#fe7874"/></g><g id="change2_7"><path d="M190.126,244.656c0,-0.036 0.005,-0.067 0.005,-0.103c0.12,-2.462 -1.78,-4.554 -4.238,-4.674c-2.457,-0.116 -4.554,1.784 -4.67,4.242c-0.004,0.035 -0.004,0.071 -0.008,0.107c-0.116,2.457 1.784,4.549 4.241,4.67c2.458,0.12 4.55,-1.78 4.67,-4.242Z" fill="#fe7874"/></g><g id="change2_8"><path d="M175.505,196.015c-3.042,-1.159 -6.556,0.054 -8.202,2.975c-1.807,3.221 -0.665,7.302 2.555,9.113c1.99,1.12 1.401,1.106 4.091,1.106c3.693,0.005 6.69,-2.993 6.69,-6.686c0,-3.158 -2.19,-5.807 -5.134,-6.508Zm0.152,0.058c0.883,0.277 1.289,0.687 1.289,0.687c-0,0 -0.277,-0.178 -0.531,-0.321c-0.25,-0.138 -0.499,-0.263 -0.758,-0.366Zm-1.343,-0.232l0.09,0.005l-0.076,-0.005l-0.014,0Z" fill="#fe7874"/></g><g id="change2_9"><path d="M174.448,281.547c-0.214,1.74 0.245,3.551 1.427,5.018c3.569,4.429 7.779,2.065 8.408,1.727c0.567,-0.304 3.493,-6.58 3.493,-6.58c-0,0 0.035,0.402 0.018,0.768c0.178,-3.689 -2.672,-6.829 -6.361,-7.008c-3.591,-0.174 -6.664,2.525 -6.985,6.075Zm8.372,-5.642c1.213,0.326 2.342,0.99 3.234,1.976c-1.28,-1.45 -2.547,-1.842 -3.234,-1.976Z" fill="#fe7874"/></g><g id="change2_10"><path d="M150.973,247.68c-0.241,-0.919 -1.057,-1.615 -2.052,-1.664c-1.231,-0.058 -2.274,0.892 -2.337,2.119c-0.018,0.419 0,0.584 0.018,0.696c0.036,0.232 0.005,0.446 0.642,1.271c0.75,0.977 2.15,1.16 3.127,0.406c0.879,-0.674 1.115,-1.883 0.602,-2.828Z" fill="#fe7874"/></g><g id="change2_11"><path d="M203.744,198.763c-0.156,-1.03 -1.017,-1.847 -2.101,-1.9c-1.231,-0.058 -2.275,0.892 -2.333,2.119c-0.053,1.061 -0.209,0.508 0.402,1.681c0.566,1.088 1.918,1.512 3.006,0.946c1.039,-0.544 1.472,-1.789 1.026,-2.846Z" fill="#fe7874"/></g><g id="change2_12"><path d="M159.805,218.616c0.29,0.112 0.611,0.165 0.941,0.143c1.226,-0.076 2.163,-1.138 2.087,-2.364c-0.058,-0.91 -0.406,-1.236 -0.548,-1.401c-0.268,-0.307 -2.025,-0.753 -2.025,-0.753c-0,-0 0.12,-0.014 0.223,-0.009c-1.227,-0.063 -2.275,0.887 -2.333,2.118c-0.054,1.071 0.66,2.003 1.655,2.266Z" fill="#fe7874"/></g><g id="change2_13"><path d="M140.643,178.009c-0.326,-0.379 -0.165,-0.196 -0.491,-0.553c-0.825,-0.915 -2.239,-0.981 -3.149,-0.156c-0.91,0.829 -0.981,2.239 -0.151,3.153c0.258,0.286 0.129,0.138 0.388,0.442c0.798,0.941 2.208,1.052 3.144,0.259c0.937,-0.799 1.053,-2.208 0.259,-3.145Z" fill="#fe7874"/></g><g id="change2_14"><path d="M179.921,257.693c-0.174,-1.008 -1.03,-1.797 -2.092,-1.846c-1.227,-0.063 -2.275,0.887 -2.333,2.118c-0.053,1.08 -0.04,0.866 0.602,2.03c0.598,1.075 1.959,1.467 3.034,0.87c1.079,-0.598 1.467,-1.954 0.869,-3.033l-0.08,-0.139Zm-0.138,-0.218c-0.063,-0.116 -0.121,-0.183 -0.121,-0.183c0,-0 0.049,0.076 0.121,0.183Z" fill="#fe7874"/></g><g id="change2_15"><path d="M156.647,285.829c-0.027,0.005 -0.054,0.005 -0.08,0.014c-1.218,0.192 -2.052,1.329 -1.865,2.542c0.192,1.218 1.329,2.052 2.547,1.865c0.027,-0.005 0.053,-0.005 0.08,-0.014c1.213,-0.183 2.052,-1.329 1.86,-2.547c-0.187,-1.213 -1.325,-2.051 -2.542,-1.86Z" fill="#fe7874"/></g><g id="change3_1"><path d="M129.585,85.792c0.093,-0.981 0.964,-1.701 1.945,-1.608c0.98,0.093 1.7,0.965 1.607,1.945c-5.38,56.667 -4.798,115.279 2.047,171.518c1.308,10.74 5.382,27.313 14.052,37.779c5.516,6.658 12.944,10.774 22.81,8.901c8.478,-1.609 14.247,-7.746 18.392,-15.203c6.532,-11.751 9.056,-26.805 11.065,-34.28c15.094,-56.153 11.029,-111.596 11.42,-169.119c0.007,-0.985 0.812,-1.779 1.797,-1.772c0.984,0.007 1.778,0.812 1.772,1.796c-0.394,57.832 3.632,113.568 -11.543,170.021c-2.058,7.656 -4.703,23.053 -11.392,35.088c-4.67,8.401 -11.294,15.161 -20.846,16.974c-11.326,2.152 -19.89,-2.486 -26.223,-10.13c-9.101,-10.986 -13.473,-28.349 -14.846,-39.623c-6.876,-56.492 -7.462,-115.367 -2.057,-172.287Z" fill="#1b1b1b"/></g><g id="change3_2"><path d="M130.289,86.635c-0.752,-0.636 -0.846,-1.763 -0.21,-2.514c0.637,-0.752 1.763,-0.846 2.515,-0.209c7.76,6.567 18.493,9.374 28.447,10.131c17.911,1.356 36.036,-3.727 52.375,-10.834c0.903,-0.393 1.955,0.022 2.348,0.925c0.392,0.902 -0.022,1.954 -0.925,2.347c-16.863,7.336 -35.582,12.52 -54.068,11.12c-10.679,-0.812 -22.158,-3.92 -30.482,-10.966Z" fill="#1b1b1b"/></g><g id="change3_3"><path d="M133.17,85.578c-0.37,0.913 -1.411,1.353 -2.324,0.983c-0.912,-0.37 -1.352,-1.412 -0.982,-2.324c1.03,-2.54 3.74,-4.33 5.973,-5.589c4.882,-2.754 10.001,-4.517 15.443,-5.831c10.44,-2.53 21.413,-3.763 32.126,-2.104c4.854,0.752 9.321,2.387 13.994,3.709c6.569,1.854 13.532,4.261 18.604,8.984c0.72,0.671 0.76,1.801 0.089,2.521c-0.671,0.721 -1.801,0.761 -2.521,0.09c-4.661,-4.34 -11.106,-6.457 -17.142,-8.162c-4.533,-1.282 -8.862,-2.886 -13.571,-3.615c-10.251,-1.588 -20.75,-0.376 -30.739,2.045c-5.119,1.236 -9.939,2.881 -14.53,5.471c-1.595,0.9 -3.684,2.008 -4.42,3.822Z" fill="#1b1b1b"/></g><g id="change3_4"><path d="M122.255,487.66c18.343,0.183 69.325,-1.025 87.552,-1.497c-10.145,-5.143 -25.619,-11.609 -32.623,-15.988c-1.699,-1.063 -2.941,-2.043 -3.614,-2.853c-0.481,-0.579 -0.738,-1.136 -0.838,-1.621c-2.523,-12.232 -3.149,-118.71 -1.36,-157.807c0.045,-0.984 0.881,-1.746 1.864,-1.701c0.984,0.045 1.746,0.88 1.701,1.864c-1.775,38.783 -1.221,144.248 1.271,156.834c0.083,0.095 0.501,0.571 0.887,0.883c1.234,0.995 3.197,2.159 5.608,3.444c9.883,5.266 27.001,12.319 34.657,17.015l0.392,0.319l0.321,0.488l0.151,0.631l-0.088,0.655l-0.364,0.627l-0.361,0.309l-0.402,0.194l-0.511,0.092c-0.176,0.008 -1.166,0.037 -2.82,0.082c-14.715,0.399 -82.599,2.063 -95.97,1.498c-1.241,-0.052 -2.076,-0.139 -2.443,-0.226l-0.471,-0.161l-0.348,-0.208l-0.326,-0.313l-0.231,-0.365l-0.141,-0.421l-0.032,-0.463l0.066,-0.397l0.158,-0.377l0.313,-0.407l0.303,-0.238c0.073,-0.045 0.462,-0.253 1.125,-0.589c5.612,-2.843 33.535,-16.665 44.561,-22.383c1.337,-20.438 1.567,-122.742 1.396,-156.828c-0.005,-0.985 0.79,-1.788 1.775,-1.793c0.985,-0.005 1.788,0.791 1.793,1.775c0.174,34.739 -0.075,140.201 -1.477,158.108c-0.048,0.613 -0.408,1.158 -0.953,1.442c-8.534,4.458 -30.025,15.136 -40.521,20.376Z" fill="#1b1b1b"/></g><g id="change2_16"><path d="M168.632,349.622c1.516,-3.261 3.827,-5.75 5.99,-8.555c9.184,-11.901 23.805,-20.242 38.676,-22.102c5.584,-0.7 11.927,-0.303 16.65,3.221c4.318,3.22 4.497,8.778 1.312,12.699c-3.528,4.344 -8.72,5.669 -13.734,7.497c-11.258,4.108 -23.403,5.201 -29.179,5.634c-9.385,0.709 -14.836,1.342 -19.715,1.606Zm13.582,-7.454c12.319,-8.064 8.109,-5.285 21.499,-11.128c3.969,-1.731 9.656,-4.171 13.854,-2.641c2.007,0.732 6.351,1.205 4.139,4.095c-1.651,2.159 -9.501,5.04 -13.636,5.999c-7.118,1.65 -7.453,1.249 -14.594,2.627c-3.564,0.692 -9.447,0.201 -11.262,1.048Z" fill="#fe7874"/></g><g id="change2_17"><path d="M170.287,347.753c-4.091,0.646 -8.083,4.835 -11.004,7.453c-10.643,9.532 -17.346,25.04 -20.081,38.752c-1.119,5.602 -1.605,10.789 -1.467,16.49c0.013,0.406 -0.031,15.245 0.673,15.366c1.258,0.218 11.129,-14.836 12.467,-16.343c0.803,-0.901 -0.089,-3.916 -0.169,-4.982c-0.281,-3.649 0.058,-7.815 0.713,-11.406c2.012,-11.021 3.8,-20.62 8.921,-30.526c2.194,-4.242 6.142,-11.629 9.947,-14.804Z" fill="#fe7874"/></g><g id="change2_18"><path d="M172.004,350.005c-2.453,-4.184 -8.635,-8.332 -12.338,-11.414c-9.861,-8.216 -19.812,-15.468 -33.22,-16.204c-7.061,-0.388 -16.745,1.021 -21.745,6.507c-1.284,1.41 -2.435,3.631 -3.193,5.371c-5.852,13.403 8.84,23.59 21.472,23.992c10.174,0.321 19.773,-2.114 29.563,-4.67c3.783,-0.986 7.525,-1.731 11.379,-2.373c1.766,-0.29 6.298,-1.561 8.082,-1.209Zm-9.139,-2.779c0.95,0.005 -11.861,-5.53 -18.408,-8.662c-7.191,-3.443 -14.184,-6.231 -22.516,-5.646c-6.414,0.446 -14.613,3.483 -9.528,11.177c0.937,1.419 2.98,3.185 9.068,5.023c5.308,1.601 8.163,0.99 13.551,0.227c4.911,-0.696 10.825,-1.4 15.767,-1.78c3.368,-0.258 8.685,-0.343 12.066,-0.339Z" fill="#fe7874"/></g><g id="change2_19"><path d="M172.325,346.401c-12.587,10.393 -12.601,30.01 -5.089,43.4c1.427,2.542 3.532,4.603 5.236,6.936c2.529,3.465 4.746,7.261 6.249,11.275c1.887,5.036 2.596,10.255 2.984,15.589c0.138,1.887 0.201,3.774 0.156,5.669c0,0.085 -0.076,1.62 0.076,1.62c0.584,-0 1.539,-1.169 1.931,-1.517c1.428,-1.276 2.596,-2.578 3.876,-3.992c2.802,-3.096 7.967,-5.727 7.904,-10.348c-0.031,-2.003 -0.856,-3.992 -1.324,-5.915c-2.521,-10.321 -10.536,-17.31 -16.165,-25.714c-2.739,-4.085 -4.103,-8.778 -5.41,-13.439c-2.11,-7.524 -2.333,-15.972 -0.424,-23.564Z" fill="#fe7874"/></g><g id="change3_5"><path d="M102.287,343.322c-0.297,0.676 -1.087,0.984 -1.763,0.687c-0.677,-0.297 -0.984,-1.087 -0.687,-1.763c1.695,-3.861 5.4,-6.415 9.116,-8.067c0.674,-0.3 1.466,0.004 1.766,0.679c0.3,0.675 -0.004,1.467 -0.679,1.767c-3.127,1.39 -6.326,3.448 -7.753,6.697Z" fill="#1b1b1b"/></g><g id="change3_6"><path d="M224.612,329.234c-0.663,-0.326 -0.936,-1.129 -0.61,-1.792c0.326,-0.662 1.129,-0.935 1.792,-0.609c4.582,2.256 6.6,4.425 6.941,8.042c0.069,0.735 -0.472,1.389 -1.207,1.458c-0.735,0.069 -1.388,-0.472 -1.458,-1.207c-0.257,-2.735 -1.993,-4.186 -5.458,-5.892Z" fill="#1b1b1b"/></g><g id="change3_7"><path d="M162.453,372.064c-0.218,0.706 -0.968,1.102 -1.674,0.884c-0.705,-0.218 -1.101,-0.968 -0.883,-1.674c1.316,-4.263 1.496,-8.777 3.005,-13.036c3.956,-11.165 12.407,-22.348 21.619,-29.69c3.309,-2.633 7.147,-5.633 11.2,-6.952c0.703,-0.229 1.458,0.156 1.687,0.858c0.228,0.703 -0.156,1.458 -0.859,1.687c-3.761,1.223 -7.291,4.057 -10.36,6.5c-8.843,7.047 -16.967,17.774 -20.764,28.491c-1.497,4.224 -1.665,8.703 -2.971,12.932Z" fill="#1b1b1b"/></g><g id="change3_8"><path d="M159.692,353.451c-0.982,0.298 -1.83,0.574 -2.07,0.632c-6.324,1.556 -12.728,2.825 -19.088,4.197c-0.722,0.156 -1.434,-0.304 -1.59,-1.026c-0.156,-0.721 0.304,-1.434 1.026,-1.59c6.335,-1.366 12.714,-2.63 19.013,-4.179l0.003,-0.001c0.526,-0.128 3.867,-1.253 5.331,-1.471c0.481,-0.071 0.855,-0.049 1.073,0.004l0.504,0.221l0.401,0.409l0.187,0.411l0.06,0.391l-0.073,0.548l-0.236,0.534c-0.52,0.893 -2.302,2.438 -2.565,2.724c-2.772,3.015 -5.608,6.186 -8.489,9.08c-0.521,0.523 -1.369,0.525 -1.892,0.004c-0.523,-0.521 -0.525,-1.369 -0.004,-1.892c2.853,-2.867 5.662,-6.009 8.409,-8.996Z" fill="#1b1b1b"/></g><g id="change3_9"><path d="M140.04,422.899c0.379,-0.326 0.718,-0.719 0.994,-0.983l0.005,-0.005c2.137,-2.022 3.348,-4.683 5.287,-6.833c0.495,-0.548 1.342,-0.592 1.89,-0.098c0.549,0.495 0.593,1.342 0.098,1.89c-1.986,2.203 -3.246,4.913 -5.431,6.981c-0.397,0.379 -0.915,0.973 -1.485,1.384c-0.605,0.437 -1.271,0.686 -1.936,0.658l-0.003,-0l-0.352,-0.052l-0.325,-0.116l-0.505,-0.35c-0.264,-0.255 -0.507,-0.647 -0.674,-1.149c-0.372,-1.123 -0.4,-3.032 -0.428,-3.519c-0.284,-4.371 -1.136,-8.549 -1.01,-12.969c0.021,-0.738 0.638,-1.321 1.376,-1.3c0.738,0.021 1.321,0.638 1.299,1.376c-0.123,4.338 0.728,8.436 1.006,12.726c0,0.003 0.001,0.006 0.001,0.009c0.016,0.285 0.019,1.151 0.125,1.981c0.014,0.111 0.039,0.241 0.068,0.369Z" fill="#1b1b1b"/></g><g id="change3_10"><path d="M181.978,389.637c-0.483,-0.558 -0.422,-1.404 0.136,-1.887c0.558,-0.484 1.404,-0.423 1.887,0.136c6.436,7.434 11.402,19.22 12.24,29.031c0.063,0.736 -0.483,1.385 -1.219,1.447c-0.736,0.063 -1.385,-0.483 -1.447,-1.219c-0.795,-9.296 -5.499,-20.464 -11.597,-27.508Z" fill="#1b1b1b"/></g><g id="change3_11"><path d="M188.435,425.532c-0.46,0.578 -1.303,0.673 -1.881,0.214c-0.577,-0.46 -0.673,-1.303 -0.213,-1.881c2.142,-2.692 5.237,-5.669 8.076,-7.673c0.604,-0.426 1.439,-0.282 1.865,0.322c0.426,0.603 0.282,1.439 -0.322,1.865c-2.646,1.867 -5.529,4.644 -7.525,7.153Z" fill="#1b1b1b"/></g><g id="change3_12"><path d="M152.632,335.507c-0.673,-0.302 -0.974,-1.095 -0.671,-1.769c0.302,-0.673 1.095,-0.974 1.769,-0.672c6.646,2.988 11.839,7.641 16.357,13.23c0.465,0.574 0.375,1.418 -0.199,1.882c-0.574,0.464 -1.418,0.375 -1.882,-0.2c-4.251,-5.258 -9.12,-9.66 -15.374,-12.471Z" fill="#1b1b1b"/></g><g id="change1_11"><path d="M237.259,175.44c6.642,21.432 13.256,42.596 21.12,63.587c4.893,13.064 10.888,25.834 16.914,38.404c5.187,10.816 13.912,22.877 24.737,28.996c10.308,5.83 25.7,3.02 32.012,-7.395c5.352,-8.84 5.892,-20.861 6.405,-30.79c1.106,-21.566 -11.378,-92.004 -12.395,-93.039c-1.352,-1.382 -15.986,-3.639 -21.058,-4.424c-21.441,-3.314 -47.057,-2.828 -67.735,4.661Z" fill="#fed2d0"/></g><g id="change2_20"><path d="M235.769,175.449c3.725,-5.277 12.173,-9.483 17.918,-11.727c11.681,-4.567 24.781,-7.863 37.404,-6.271c4.514,0.571 11.878,3.448 16.191,4.75c6.339,1.909 18.712,10.282 18.649,11.579c-0.031,0.571 -5.571,2.949 -7.466,3.899c-8.649,4.326 -17.026,5.647 -26.468,7.221c-7.761,1.289 -18.988,1.044 -26.745,0.054c-14.139,-1.807 -28.042,-7.998 -29.483,-9.505Z" fill="#fe7874"/></g><g id="change1_12"><path d="M289.12,160.663c0.022,-0.045 0.049,-0.085 0.071,-0.125c1.766,-3.074 0.709,-7.003 -2.364,-8.769c-3.073,-1.771 -7.003,-0.71 -8.769,2.359c-0.022,0.045 -0.049,0.085 -0.071,0.125c-1.767,3.073 -0.709,7.003 2.364,8.769c3.073,1.771 7.002,0.709 8.769,-2.359Z" fill="#fed2d0"/></g><g id="change1_13"><path d="M248.477,133.343c-0.022,0.044 -0.049,0.084 -0.076,0.125c-1.873,3.01 -0.95,6.976 2.061,8.849c3.006,1.873 6.971,0.95 8.845,-2.061c0.026,-0.04 0.053,-0.084 0.08,-0.125c1.873,-3.01 0.95,-6.976 -2.061,-8.845c-3.01,-1.873 -6.976,-0.954 -8.849,2.057Z" fill="#fed2d0"/></g><g id="change1_14"><path d="M284.659,107.852c-0.571,0.624 -1.03,1.365 -1.329,2.212c-1.646,4.657 1.352,6.659 1.615,6.909c1.583,1.499 3.573,2.217 6.093,1.535c0.691,-0.188 1.989,-0.611 3.207,-2.03c0.142,-0.165 0.62,-0.861 0.785,-1.142c1.797,-3.055 0.771,-6.998 -2.284,-8.791c-2.703,-1.588 -6.097,-0.972 -8.087,1.307Zm11.142,4.023c0.041,0.816 -0.071,1.65 -0.361,2.471c0.41,-1.16 0.415,-1.971 0.361,-2.471Z" fill="#fed2d0"/></g><g id="change1_15"><path d="M275.431,133.94c-0.089,0.045 -0.174,0.09 -0.232,0.125c-1.03,0.669 -1.325,2.052 -0.651,3.083c0.664,1.025 2.034,1.324 3.055,0.669c0.317,-0.166 0.874,-0.487 1.048,-0.692c0.527,-0.598 0.745,-1.307 0.518,-2.172c-0.308,-1.191 -1.526,-1.905 -2.717,-1.597c-0.406,0.103 -0.745,0.308 -1.021,0.584Zm2.163,3.885c-0.116,0.063 -0.192,0.103 -0.192,0.103c0,0 0.116,-0.058 0.192,-0.103Zm-2.81,-2.288c0,0.17 0.022,0.353 0.072,0.54c-0.05,-0.183 -0.072,-0.361 -0.072,-0.54Z" fill="#fed2d0"/></g><g id="change1_16"><path d="M258.986,167.893c-0.5,1.035 -0.125,2.297 0.883,2.89c1.057,0.62 2.426,0.268 3.051,-0.794c0.209,-0.357 0.437,-1.119 0.446,-1.222c0.035,-0.553 -0.121,-0.963 -0.29,-1.262c-0.116,-0.205 -1.776,-2.32 -3.618,-0.37c-0.214,0.223 -0.37,0.481 -0.472,0.758Zm2.488,2.966c0.317,-0.027 0.759,-0.17 1.223,-0.66c-0.339,0.361 -0.772,0.58 -1.223,0.66Z" fill="#fed2d0"/></g><g id="change1_17"><path d="M306.801,149.94c-0.379,-1.084 -1.535,-1.713 -2.663,-1.419c-1.191,0.313 -1.909,1.53 -1.597,2.721c-0.031,-0.12 -0.04,-0.245 -0.04,-0.245c-0,-0 0.325,1.084 0.441,1.244c0.371,0.495 0.839,0.759 1.383,0.861c0.223,0.04 0.923,0.25 1.833,-0.468c0.83,-0.651 1.071,-1.775 0.643,-2.694Zm-2.065,-1.289c-0.326,-0.018 -0.794,0.049 -1.334,0.477c0.397,-0.312 0.865,-0.468 1.334,-0.477Z" fill="#fed2d0"/></g><g id="change1_18"><path d="M271.47,119.302c0.999,-0.041 1.891,-0.768 2.092,-1.798c0.236,-1.209 -0.553,-2.382 -1.757,-2.618c-0.718,-0.138 -0.286,-0.201 -1.316,0.067c-1.191,0.307 -1.905,1.53 -1.593,2.721c0.295,1.141 1.428,1.846 2.574,1.628Z" fill="#fed2d0"/></g><g id="change1_19"><path d="M242.754,147.116c-0.232,0.072 -0.129,0.045 -0.316,0.094c-2.382,0.62 -3.814,3.055 -3.194,5.437c0.62,2.386 3.055,3.818 5.442,3.198c0.486,-0.129 0.214,-0.049 0.816,-0.245c2.342,-0.758 3.626,-3.274 2.868,-5.616c-0.758,-2.341 -3.274,-3.626 -5.616,-2.868Z" fill="#fed2d0"/></g><g id="change1_20"><path d="M302.447,131.197c-1.066,-0.892 -2.538,-1.275 -3.987,-0.901c-2.382,0.62 -3.814,3.056 -3.194,5.442c-0.044,-0.161 -0.094,-0.459 -0.094,-0.459c0,-0 1.017,2.502 1.749,3.064c0.731,0.557 2.105,1.681 4.719,0.482c2.235,-1.031 3.216,-3.68 2.19,-5.919c-0.326,-0.701 -0.803,-1.276 -1.383,-1.709Zm-3.497,-0.807c-0.303,0.049 -0.651,0.152 -1.039,0.33c0.339,-0.156 0.687,-0.268 1.039,-0.33Z" fill="#fed2d0"/></g><g id="change2_21"><path d="M274.633,203.46c-1,-1.628 -2.98,-2.489 -4.92,-1.981c-2.387,0.62 -3.818,3.056 -3.203,5.438c0.17,0.628 0.277,0.86 0.357,1.025c0.143,0.308 0.169,0.607 1.307,1.633c1.838,1.646 4.661,1.49 6.302,-0.339c1.481,-1.65 1.504,-4.104 0.157,-5.776Z" fill="#fe7874"/></g><g id="change2_22"><path d="M317.778,223.656c0.035,0.005 0.067,0.009 0.102,0.014c2.436,0.357 4.701,-1.33 5.063,-3.765c0.357,-2.435 -1.329,-4.706 -3.765,-5.062c-0.035,-0.005 -0.067,-0.009 -0.102,-0.014c-2.436,-0.357 -4.702,1.329 -5.058,3.765c-0.362,2.435 1.324,4.701 3.76,5.062Z" fill="#fe7874"/></g><g id="change2_23"><path d="M299.669,230.833c-0.032,0.009 -0.058,0.018 -0.085,0.022c-2.369,0.669 -3.751,3.136 -3.082,5.504c0.669,2.373 3.135,3.752 5.508,3.083c0.027,-0.009 0.054,-0.014 0.08,-0.023c2.369,-0.669 3.752,-3.135 3.083,-5.504c-0.669,-2.368 -3.136,-3.751 -5.504,-3.082Z" fill="#fe7874"/></g><g id="change2_24"><path d="M279.129,245.833c0.017,-0.022 0.031,-0.044 0.049,-0.067c1.467,-1.976 1.052,-4.772 -0.924,-6.235c-1.976,-1.468 -4.772,-1.057 -6.24,0.923c-0.018,0.022 -0.035,0.045 -0.053,0.063c-1.463,1.98 -1.048,4.777 0.923,6.24c1.98,1.467 4.777,1.052 6.245,-0.924Z" fill="#fe7874"/></g><g id="change2_25"><path d="M299.307,267.368l-0.009,-0c-2.381,0.62 -3.813,3.055 -3.193,5.437c0.62,2.386 3.055,3.818 5.437,3.198c0.192,-0.053 0.531,-0.151 0.575,-0.169c0.313,-0.107 0.522,-0.223 0.647,-0.29c0.406,-0.223 3.604,-9.657 -3.1,-8.27c-0.12,0.027 -0.241,0.058 -0.357,0.094Zm1.659,8.715l-0.124,0.009l0.017,0l0.107,-0.009Zm0.076,-0.004c0.121,-0.013 0.263,-0.036 0.433,-0.071c-0.143,0.031 -0.29,0.053 -0.433,0.071Z" fill="#fe7874"/></g><g id="change2_26"><path d="M322.162,242.635c-0.009,-0.035 -0.018,-0.067 -0.027,-0.102c-0.62,-2.382 -3.059,-3.814 -5.441,-3.194c-2.382,0.62 -3.814,3.055 -3.194,5.437c0.009,0.036 0.018,0.072 0.027,0.103c0.62,2.382 3.055,3.813 5.442,3.193c2.381,-0.615 3.813,-3.055 3.193,-5.437Z" fill="#fe7874"/></g><g id="change2_27"><path d="M293.705,200.56c-3.252,-0.196 -6.245,2.012 -6.945,5.291c-0.767,3.612 1.544,7.167 5.156,7.934c2.235,0.473 1.669,0.638 4.233,-0.16c3.524,-1.102 5.495,-4.857 4.394,-8.381c-0.937,-3.015 -3.818,-4.889 -6.838,-4.684Zm0.161,0.014c0.923,-0 1.436,0.268 1.436,0.268c-0,-0 -0.321,-0.085 -0.607,-0.148c-0.276,-0.058 -0.553,-0.098 -0.829,-0.12Zm-1.339,0.174l-0.013,0.004l0.089,-0.022l-0.076,0.018Z" fill="#fe7874"/></g><g id="change2_28"><path d="M318.192,282.52c0.313,1.726 1.294,3.314 2.86,4.362c4.728,3.162 8.042,-0.343 8.541,-0.856c0.446,-0.451 1.369,-7.32 1.369,-7.32c0,0 0.152,0.366 0.246,0.727c-0.928,-3.572 -4.581,-5.722 -8.158,-4.795c-3.479,0.906 -5.607,4.398 -4.858,7.882Zm9.983,-6.954c-1.651,-1.008 -2.975,-1.004 -3.671,-0.923c1.253,-0.054 2.529,0.241 3.671,0.923Z" fill="#fe7874"/></g><g id="change2_29"><path d="M285.685,257.194c-0.499,-0.803 -1.485,-1.227 -2.448,-0.977c-1.196,0.308 -1.91,1.53 -1.602,2.721c0.107,0.401 0.174,0.557 0.223,0.66c0.107,0.205 0.139,0.419 0.99,1.017c1.009,0.709 2.4,0.464 3.109,-0.54c0.638,-0.91 0.5,-2.132 -0.272,-2.881Z" fill="#fe7874"/></g><g id="change2_30"><path d="M321.475,194.767c-0.455,-0.937 -1.521,-1.459 -2.569,-1.187c-1.191,0.308 -1.909,1.53 -1.597,2.721c0.268,1.026 -0.049,0.548 0.883,1.481c0.87,0.874 2.284,0.874 3.154,0.004c0.83,-0.825 0.874,-2.141 0.129,-3.019Z" fill="#fe7874"/></g><g id="change2_31"><path d="M285.453,226.814c0.313,0.023 0.634,-0.022 0.941,-0.138c1.151,-0.442 1.727,-1.731 1.29,-2.881c-0.326,-0.852 -0.754,-1.057 -0.942,-1.173c-0.343,-0.215 -2.154,-0.116 -2.154,-0.116c0,-0 0.107,-0.05 0.205,-0.076c-1.191,0.308 -1.904,1.53 -1.597,2.721c0.273,1.034 1.231,1.712 2.257,1.663Z" fill="#fe7874"/></g><g id="change2_32"><path d="M255.056,193.772c-0.424,-0.268 -0.214,-0.143 -0.629,-0.388c-1.062,-0.62 -2.431,-0.268 -3.055,0.794c-0.62,1.061 -0.268,2.431 0.794,3.055c0.334,0.196 0.169,0.094 0.504,0.308c1.043,0.656 2.422,0.348 3.077,-0.696c0.66,-1.039 0.348,-2.418 -0.691,-3.073Z" fill="#fe7874"/></g><g id="change2_33"><path d="M316.306,258.122c-0.469,-0.91 -1.517,-1.41 -2.547,-1.142c-1.191,0.312 -1.909,1.53 -1.597,2.721c0.272,1.048 0.223,0.838 1.182,1.757c0.892,0.847 2.306,0.816 3.154,-0.076c0.851,-0.887 0.816,-2.301 -0.072,-3.153l-0.12,-0.107Zm-0.197,-0.17c-0.093,-0.094 -0.169,-0.134 -0.169,-0.134c-0,0 0.071,0.054 0.169,0.134Z" fill="#fe7874"/></g><g id="change2_34"><path d="M302.479,291.918c-0.027,0.009 -0.049,0.022 -0.072,0.031c-1.106,0.549 -1.565,1.882 -1.021,2.988c0.54,1.102 1.878,1.557 2.984,1.017c0.022,-0.013 0.049,-0.017 0.071,-0.035c1.106,-0.54 1.561,-1.878 1.022,-2.98c-0.545,-1.11 -1.883,-1.565 -2.984,-1.021Z" fill="#fe7874"/></g><g id="change3_13"><path d="M217.012,109.045c-0.204,-0.963 0.413,-1.91 1.377,-2.114c0.963,-0.203 1.911,0.414 2.114,1.377c11.758,55.693 29.786,111.465 53.084,163.103c4.452,9.865 13.282,24.471 24.678,31.875c7.249,4.71 15.568,6.423 24.426,1.692c7.613,-4.064 11.29,-11.64 13.023,-19.993c2.731,-13.164 0.653,-28.284 0.344,-36.016c-2.336,-58.101 -22.739,-109.812 -39.514,-164.835c-0.288,-0.942 0.244,-1.939 1.186,-2.227c0.942,-0.287 1.94,0.245 2.227,1.187c16.865,55.317 37.318,107.32 39.666,165.732c0.317,7.919 2.382,23.402 -0.415,36.883c-1.953,9.411 -6.26,17.839 -14.836,22.417c-10.171,5.432 -19.728,3.56 -28.051,-1.848c-11.963,-7.773 -21.313,-23.043 -25.987,-33.399c-23.402,-51.869 -41.512,-107.892 -53.322,-163.834Z" fill="#1b1b1b"/></g><g id="change3_14"><path d="M217.938,109.638c-0.907,-0.383 -1.332,-1.431 -0.949,-2.338c0.383,-0.907 1.431,-1.332 2.338,-0.949c9.36,3.955 20.444,3.436 30.166,1.19c17.503,-4.048 33.288,-14.299 46.77,-25.955c0.744,-0.644 1.872,-0.562 2.516,0.183c0.644,0.745 0.562,1.873 -0.183,2.517c-13.914,12.029 -30.235,22.554 -48.299,26.731c-10.43,2.41 -22.317,2.864 -32.359,-1.379Z" fill="#1b1b1b"/></g><g id="change3_15"><path d="M220.371,107.77c-0.081,0.981 -0.943,1.713 -1.924,1.632c-0.981,-0.08 -1.713,-0.942 -1.633,-1.923c0.224,-2.738 2.283,-5.251 4.037,-7.12c3.834,-4.082 8.197,-7.293 13.002,-10.17c9.208,-5.525 19.316,-9.977 30.037,-11.586l0.002,-0.001c4.858,-0.724 9.607,-0.498 14.461,-0.63c6.824,-0.186 14.189,0.031 20.436,3.025c0.888,0.426 1.264,1.492 0.838,2.38c-0.425,0.888 -1.492,1.264 -2.38,0.838c-5.742,-2.751 -12.525,-2.847 -18.797,-2.676c-4.709,0.128 -9.318,-0.11 -14.031,0.592c-10.259,1.54 -19.92,5.831 -28.731,11.118c-4.518,2.706 -8.63,5.714 -12.235,9.553c-1.253,1.334 -2.923,3.012 -3.082,4.968Z" fill="#1b1b1b"/></g><g id="change3_16"><path d="M329.818,494.823c17.565,-5.292 65.873,-21.646 83.128,-27.532c-11.217,-1.884 -27.917,-3.442 -35.909,-5.534c-1.939,-0.507 -3.416,-1.073 -4.3,-1.645c-0.631,-0.409 -1.043,-0.864 -1.283,-1.297c-6.052,-10.925 -38.394,-112.377 -48.346,-150.23c-0.25,-0.952 0.32,-1.929 1.272,-2.179c0.953,-0.251 1.929,0.319 2.179,1.272c9.873,37.55 41.842,138.053 47.972,149.327c0.107,0.066 0.648,0.396 1.11,0.578c1.474,0.582 3.694,1.108 6.378,1.615c11.004,2.08 29.447,3.708 38.173,5.912c0.022,0.006 0.045,0.012 0.067,0.019l0.476,0.22l0.423,0.389l0.288,0.533l0.093,0.598l-0.063,0.443l-0.182,0.43l-0.462,0.521l-0.489,0.262c-0.166,0.061 -1.103,0.385 -2.67,0.922c-13.927,4.77 -78.23,26.597 -91.162,30.042c-1.201,0.32 -2.024,0.485 -2.401,0.511l-0.498,-0.013l-0.395,-0.096l-0.404,-0.202l-0.329,-0.28l-0.259,-0.359l-0.173,-0.448l-0.002,-0.005l-0.048,-0.418l0.046,-0.399l0.179,-0.466l0.214,-0.305c0.055,-0.064 0.364,-0.377 0.895,-0.893c4.51,-4.386 27.042,-25.903 35.862,-34.646c-4.816,-19.91 -35.097,-117.631 -45.422,-150.118c-0.299,-0.938 0.221,-1.942 1.16,-2.24c0.938,-0.299 1.942,0.221 2.24,1.16c10.523,33.109 41.727,133.848 45.727,151.363c0.137,0.599 -0.044,1.226 -0.48,1.66c-6.817,6.798 -24.148,23.398 -32.605,31.528Z" fill="#1b1b1b"/></g><g id="change2_35"><path d="M332.925,343.23c0.7,-3.528 2.351,-6.49 3.791,-9.733c6.098,-13.738 18.324,-25.312 32.325,-30.647c5.258,-2.007 11.512,-3.127 16.94,-0.816c4.956,2.096 6.45,7.453 4.287,12.016c-2.396,5.058 -7.128,7.578 -11.562,10.545c-9.96,6.663 -21.499,10.606 -27.007,12.399c-8.952,2.913 -14.095,4.822 -18.774,6.236Zm11.423,-10.46c10.054,-10.763 6.628,-7.06 18.247,-15.914c3.444,-2.623 8.395,-6.343 12.833,-5.857c2.123,0.237 6.454,-0.334 4.991,2.998c-1.088,2.489 -8.033,7.15 -11.824,9.063c-6.521,3.292 -6.945,2.984 -13.551,6.017c-3.301,1.517 -9.13,2.44 -10.696,3.693Z" fill="#fe7874"/></g><g id="change2_36"><path d="M334.089,341.022c-3.818,1.601 -6.704,6.615 -8.921,9.849c-8.073,11.788 -10.91,28.443 -10.312,42.413c0.245,5.709 0.999,10.861 2.493,16.365c0.103,0.393 3.587,14.818 4.3,14.769c1.271,-0.085 7.289,-17.052 8.23,-18.832c0.566,-1.071 -1.017,-3.787 -1.347,-4.799c-1.138,-3.48 -1.798,-7.605 -2.016,-11.25c-0.661,-11.186 -1.2,-20.936 1.427,-31.771c1.124,-4.643 3.207,-12.756 6.146,-16.744Z" fill="#fe7874"/></g><g id="change2_37"><path d="M336.293,342.802c-3.377,-3.484 -10.366,-6.044 -14.697,-8.158c-11.526,-5.643 -22.918,-10.326 -36.116,-7.859c-6.954,1.298 -16.022,4.964 -19.576,11.48c-0.915,1.678 -1.504,4.109 -1.829,5.973c-2.502,14.411 14.188,20.825 26.552,18.216c9.96,-2.105 18.707,-6.748 27.61,-11.552c3.439,-1.856 6.9,-3.47 10.491,-5.005c1.646,-0.705 5.749,-3.011 7.565,-3.095Zm-9.537,-0.527c0.924,-0.223 -12.837,-2.56 -19.942,-4.05c-7.801,-1.637 -15.254,-2.685 -23.207,-0.142c-6.129,1.958 -13.377,6.851 -6.602,13.122c1.245,1.155 3.645,2.382 9.996,2.725c5.535,0.299 8.167,-0.976 13.221,-2.993c4.607,-1.842 10.178,-3.929 14.893,-5.472c3.207,-1.049 8.354,-2.396 11.641,-3.19Z" fill="#fe7874"/></g><g id="change2_38"><path d="M335.748,339.229c-9.759,13.082 -5.12,32.141 5.357,43.364c1.99,2.132 4.528,3.63 6.736,5.495c3.273,2.765 6.329,5.928 8.742,9.469c3.028,4.447 4.955,9.345 6.601,14.438c0.58,1.802 1.093,3.618 1.499,5.469c0.018,0.085 0.308,1.588 0.455,1.552c0.566,-0.138 1.218,-1.499 1.516,-1.931c1.084,-1.575 1.909,-3.118 2.819,-4.795c1.985,-3.676 6.379,-7.458 5.219,-11.927c-0.504,-1.94 -1.78,-3.676 -2.69,-5.433c-4.897,-9.429 -14.34,-14.313 -21.802,-21.142c-3.631,-3.319 -6.071,-7.551 -8.448,-11.771c-3.836,-6.811 -6.057,-14.965 -6.004,-22.788Z" fill="#fe7874"/></g><g id="change3_17"><path d="M266.981,352.856c-0.129,0.727 -0.823,1.213 -1.551,1.085c-0.727,-0.128 -1.213,-0.822 -1.085,-1.55c0.731,-4.151 3.723,-7.511 6.939,-10.001c0.584,-0.452 1.426,-0.345 1.878,0.239c0.452,0.584 0.345,1.425 -0.239,1.878c-2.708,2.095 -5.327,4.854 -5.942,8.349Z" fill="#1b1b1b"/></g><g id="change3_18"><path d="M382.472,310.142c-0.721,-0.159 -1.177,-0.874 -1.018,-1.595c0.16,-0.721 0.875,-1.177 1.596,-1.018c4.984,1.103 7.463,2.729 8.652,6.164c0.241,0.698 -0.129,1.46 -0.827,1.702c-0.698,0.242 -1.461,-0.129 -1.702,-0.827c-0.899,-2.596 -2.933,-3.592 -6.701,-4.426Z" fill="#1b1b1b"/></g><g id="change3_19"><path d="M332.249,366.5c-0.044,0.737 -0.679,1.3 -1.416,1.255c-0.737,-0.044 -1.3,-0.679 -1.255,-1.416c0.268,-4.456 -0.627,-8.885 -0.174,-13.377c1.192,-11.784 6.747,-24.655 13.957,-33.977c2.587,-3.341 5.603,-7.165 9.231,-9.409c0.628,-0.389 1.453,-0.194 1.842,0.434c0.388,0.628 0.194,1.453 -0.434,1.842c-3.366,2.082 -6.122,5.671 -8.522,8.771c-6.921,8.948 -12.267,21.296 -13.412,32.608c-0.448,4.455 0.45,8.849 0.183,13.269Z" fill="#1b1b1b"/></g><g id="change3_20"><path d="M325.149,349.073c-0.88,0.522 -1.637,0.99 -1.858,1.106l-0.002,0c-5.774,3.008 -11.691,5.761 -17.545,8.604c-0.665,0.322 -1.466,0.045 -1.788,-0.62c-0.323,-0.664 -0.046,-1.465 0.619,-1.788c5.831,-2.831 11.725,-5.573 17.476,-8.568c0.483,-0.253 3.462,-2.137 4.832,-2.697c0.448,-0.184 0.815,-0.251 1.038,-0.252l0.542,0.093l0.491,0.302l0.005,0.005l0.278,0.356l0.149,0.364l0.057,0.548l-0.102,0.574c-0.293,0.993 -1.656,2.916 -1.841,3.253c-1.98,3.593 -3.983,7.347 -6.098,10.836c-0.383,0.632 -1.206,0.834 -1.838,0.451c-0.631,-0.382 -0.833,-1.206 -0.451,-1.837c2.094,-3.455 4.076,-7.172 6.036,-10.73Z" fill="#1b1b1b"/></g><g id="change3_21"><path d="M322.54,421.197c0.292,-0.408 0.529,-0.87 0.736,-1.192l0.001,-0.002c1.595,-2.472 2.14,-5.346 3.515,-7.897c0.35,-0.651 1.162,-0.894 1.812,-0.544c0.65,0.351 0.894,1.163 0.544,1.813c-1.409,2.614 -1.988,5.547 -3.621,8.078c-0.297,0.461 -0.66,1.159 -1.115,1.693c-0.484,0.567 -1.071,0.967 -1.723,1.098l-0.002,0.001l-0.355,0.034l-0.345,-0.036l-0.573,-0.221c-0.316,-0.184 -0.645,-0.507 -0.926,-0.956c-0.626,-1.001 -1.107,-2.849 -1.252,-3.308l-0.001,-0.003c-1.31,-4.178 -3.132,-8.04 -4.059,-12.363c-0.155,-0.722 0.305,-1.434 1.027,-1.589c0.722,-0.155 1.434,0.305 1.589,1.028c0.91,4.24 2.71,8.022 3.996,12.121c0.086,0.274 0.298,1.12 0.599,1.905c0.04,0.103 0.095,0.223 0.153,0.34Z" fill="#1b1b1b"/></g><g id="change3_22"><path d="M355.389,378.933c-0.602,-0.427 -0.744,-1.263 -0.316,-1.866c0.427,-0.602 1.263,-0.743 1.865,-0.316c8.017,5.694 15.634,15.968 18.777,25.299c0.235,0.7 -0.141,1.459 -0.841,1.695c-0.7,0.236 -1.46,-0.141 -1.696,-0.841c-2.977,-8.841 -10.194,-18.576 -17.789,-23.971Z" fill="#1b1b1b"/></g><g id="change3_23"><path d="M370.18,412.274c-0.309,0.671 -1.104,0.965 -1.775,0.656c-0.671,-0.309 -0.965,-1.105 -0.655,-1.776c1.44,-3.126 3.741,-6.75 6.022,-9.372c0.484,-0.557 1.33,-0.616 1.887,-0.132c0.558,0.485 0.617,1.331 0.132,1.888c-2.126,2.444 -4.268,5.823 -5.611,8.736Z" fill="#1b1b1b"/></g><g id="change3_24"><path d="M314.034,333.319c-0.726,-0.134 -1.207,-0.832 -1.074,-1.558c0.134,-0.726 0.832,-1.208 1.559,-1.074c7.165,1.319 13.317,4.61 19.03,8.968c0.587,0.448 0.701,1.288 0.253,1.875c-0.448,0.587 -1.289,0.701 -1.876,0.253c-5.375,-4.1 -11.15,-7.223 -17.892,-8.464Z" fill="#1b1b1b"/></g><g id="change1_21"><path d="M103.617,262.363c0.143,-0.142 5.728,-21.731 5.808,-21.731c0.076,0 5.598,21.566 5.74,21.709c0.143,0.138 16.067,6.262 16.067,6.338c-0,0.076 -15.585,5.094 -15.728,5.237c-0.142,0.138 -6.003,21.704 -6.079,21.704c-0.08,-0 -5.665,-21.588 -5.808,-21.731c-0.142,-0.138 -15.709,-5.58 -15.709,-5.656c0,-0.076 15.567,-5.731 15.709,-5.87Z" fill="#fed2d0"/></g><g id="change1_22"><path d="M86.668,218.87c0.071,-0.067 2.989,-10.531 3.029,-10.531c0.044,0 2.926,10.456 3.001,10.522c0.072,0.067 8.39,3.034 8.39,3.069c0,0.04 -8.14,2.471 -8.211,2.538c-0.076,0.067 -3.136,10.518 -3.18,10.518c-0.04,-0 -2.958,-10.46 -3.029,-10.527c-0.076,-0.071 -8.207,-2.707 -8.207,-2.743c-0,-0.036 8.131,-2.779 8.207,-2.846Z" fill="#fed2d0"/></g><g id="change1_23"><path d="M176.464,21.731c0.143,-0.138 5.727,-21.731 5.808,-21.731c0.075,0 5.597,21.57 5.74,21.709c0.143,0.142 16.066,6.262 16.066,6.338c0,0.08 -15.584,5.098 -15.727,5.236c-0.143,0.143 -6.004,21.709 -6.079,21.709c-0.081,-0 -5.665,-21.593 -5.808,-21.731c-0.143,-0.143 -15.709,-5.58 -15.709,-5.66c-0,-0.076 15.566,-5.732 15.709,-5.87Z" fill="#fed2d0"/></g><g id="change1_24"><path d="M220.711,48.819c0.076,-0.067 2.993,-10.527 3.033,-10.527c0.04,0 2.926,10.451 3.002,10.518c0.071,0.067 8.39,3.033 8.39,3.073c-0,0.036 -8.14,2.467 -8.216,2.534c-0.071,0.071 -3.136,10.517 -3.176,10.517c-0.04,0 -2.957,-10.459 -3.033,-10.526c-0.071,-0.072 -8.203,-2.703 -8.203,-2.744c0,-0.035 8.132,-2.774 8.203,-2.845Z" fill="#fed2d0"/></g><g id="change1_25"><path d="M352.123,154.784c0.138,-0.139 5.727,-21.731 5.802,-21.731c0.081,-0 5.603,21.57 5.741,21.708c0.143,0.143 16.066,6.263 16.066,6.343c0,0.076 -15.584,5.094 -15.723,5.232c-0.142,0.143 -6.003,21.709 -6.084,21.709c-0.075,-0 -5.664,-21.593 -5.802,-21.731c-0.143,-0.143 -15.71,-5.58 -15.71,-5.656c0,-0.08 15.567,-5.731 15.71,-5.874Z" fill="#fed2d0"/></g><g id="change1_26"><path d="M329.022,103.98c0.072,-0.067 2.989,-10.531 3.029,-10.531c0.04,0 2.926,10.455 3.002,10.522c0.071,0.067 8.39,3.033 8.39,3.073c-0,0.036 -8.141,2.467 -8.216,2.534c-0.072,0.071 -3.136,10.518 -3.176,10.518c-0.04,-0 -2.957,-10.46 -3.029,-10.527c-0.076,-0.071 -8.207,-2.707 -8.207,-2.743c0,-0.036 8.131,-2.779 8.207,-2.846Z" fill="#fed2d0"/></g></g></g></svg>