<?xml version="1.0" encoding="UTF-8"?><svg xmlns="http://www.w3.org/2000/svg" xmlns:xlink="http://www.w3.org/1999/xlink" height="436.3" preserveAspectRatio="xMidYMid meet" version="1.0" viewBox="0.0 0.0 500.8 436.3" width="500.8" zoomAndPan="magnify"><g><g id="change1_1"><path d="M243.264,78.969v77.99L145.132,8.638l-0.599-0.905C141.212,3.059,135.765,0,129.594,0 c-6.171,0-11.617,3.059-14.939,7.733c-0.21,0.295-0.406,0.597-0.599,0.905L0.817,179.799v0.002l-0.774,0.611l0.774,0.981v191.304 L0,373.856l1.635,1.152l0.407-0.576h74.581v0h2v0h42.023v61.83h257.553V273.609h122.618v-93.737v-2V78.969H243.264z" fill="#f4eadc"/></g><g id="change2_1"><path d="M75.473,163.313c4.359,1.998,8.401,4.628,11.877,7.801c-1.947,3.617-4.191,7.175-6.757,10.458 c-2.126,0.652-4.462,1.215-6.895,1.606C76.61,176.859,76.762,170.106,75.473,163.313z M78.346,184.269 c-9.462,2.336-21.587,2.546-28.918-4.192c0.372,4.54,1.324,9.067,2.536,13.481c3.409,1.389,6.902,2.043,10.434,2.133 C68.653,193.374,73.928,189.262,78.346,184.269z M67.755,195.424c1.682-0.204,3.367-0.509,5.05-0.905 c9.716-2.287,18.392-7.458,25.872-13.953c-0.874-1.538-1.831-3.036-2.785-4.517c-1.61-2.502-3.309-4.946-5.078-7.339 C85.681,179.267,78.187,189.728,67.755,195.424z M94.623,131.439c0.19-0.172,0.39-0.331,0.585-0.497 c0.317-0.27,0.634-0.54,0.963-0.796c0.221-0.171,0.451-0.332,0.678-0.496c0.32-0.232,0.64-0.463,0.97-0.681 c0.242-0.16,0.49-0.31,0.737-0.463c0.331-0.204,0.665-0.404,1.006-0.594c0.257-0.143,0.518-0.279,0.781-0.414 c0.346-0.178,0.696-0.349,1.051-0.513c0.27-0.124,0.541-0.244,0.815-0.36c0.364-0.153,0.732-0.296,1.104-0.434 c0.277-0.103,0.555-0.205,0.836-0.298c0.386-0.128,0.777-0.243,1.171-0.355c0.279-0.079,0.557-0.161,0.84-0.232 c0.102-0.026,0.201-0.06,0.304-0.084c-6.579-8.116-18.44-14.106-23.512-16.418l10.988,23.29 C94.167,131.875,94.389,131.65,94.623,131.439z M53.452,180.57c2.126-8.113,6.895-15.197,13.538-20.248 c-4.502-1.133-9.143-1.624-13.688-1.379c-0.778,1.5-1.473,3.043-2.034,4.648c-1.537,4.398-2.095,8.904-2.004,13.42 C50.483,178.456,51.895,179.632,53.452,180.57z M56.592,153.426c-0.758,1.142-1.489,2.302-2.177,3.486 c4.97-0.142,10.02,0.549,14.882,1.971c0.137,0.005,0.267,0.043,0.382,0.11c6.883,2.072,13.352,5.605,18.622,10.294 c0.403-0.792,0.793-1.583,1.169-2.374c-0.627-0.819-1.259-1.635-1.905-2.439c-5.802-7.229-12.329-13.838-19.43-19.791 c-1.494,0.079-2.981,0.257-4.453,0.536C60.687,147.093,58.499,150.551,56.592,153.426z M87.65,161.432 c-0.098-0.248-0.182-0.502-0.273-0.753c-0.103-0.286-0.217-0.568-0.311-0.858c-0.122-0.379-0.221-0.766-0.327-1.151 c-0.079-0.287-0.169-0.569-0.239-0.859c-0.097-0.407-0.169-0.822-0.248-1.234c-0.053-0.277-0.119-0.549-0.163-0.829 c-0.073-0.459-0.117-0.926-0.166-1.391c-0.025-0.24-0.065-0.477-0.084-0.719c-0.056-0.71-0.085-1.426-0.085-2.148 c0-0.515,0.021-1.042,0.053-1.576c0.01-0.17,0.027-0.342,0.041-0.514c0.019-0.236,0.032-0.47,0.057-0.709 c-0.194-0.104-0.387-0.208-0.583-0.309c-0.207-0.106-0.413-0.214-0.621-0.316c-0.314-0.153-0.631-0.298-0.949-0.441 c-0.2-0.09-0.4-0.184-0.602-0.271c-0.35-0.15-0.704-0.288-1.058-0.426c-0.172-0.067-0.342-0.139-0.514-0.203 c-0.527-0.195-1.058-0.378-1.591-0.545c-2.891-0.904-5.842-1.387-8.789-1.503C77.132,149.806,82.646,155.396,87.65,161.432z M64.331,176.059c2.657,1.763,5.803,3.046,8.546,3.806c1.329-3.939,1.613-8.04,1.217-12.181 C70.061,169.318,66.569,172.334,64.331,176.059z M98.308,176.121c1.794,2.845,3.547,5.757,4.649,8.912 c0.539-2.661,0.765-5.391,0.648-8.131c-0.239-0.086-0.466-0.191-0.701-0.283c-0.326-0.128-0.653-0.254-0.972-0.393 c-0.334-0.146-0.659-0.305-0.985-0.463c-0.31-0.15-0.62-0.298-0.922-0.46c-0.32-0.171-0.629-0.354-0.941-0.537 c-0.292-0.172-0.587-0.34-0.871-0.522c-0.305-0.195-0.599-0.403-0.895-0.609c-0.274-0.191-0.55-0.378-0.816-0.578 c-0.132-0.099-0.263-0.199-0.392-0.301C96.858,173.868,97.593,174.988,98.308,176.121z M49.611,192.504 c-2.566-9.947-3.674-20.447,0.03-30.276c1.47-3.9,3.609-7.49,5.968-10.912c1.138-1.651,2.358-3.415,3.762-4.969 c-1.735,0.576-3.44,1.286-5.091,2.152c-12.375,6.486-19.048,19.64-17.931,32.766c0.013,0.018,0.03,0.026,0.043,0.045 C39.427,186.189,44.422,189.969,49.611,192.504z M58.458,173.279c-1.39,2.585-2.47,5.35-3.194,8.25 c4.769,2.205,10.545,2.572,16.047,1.97c0.307-0.582,0.586-1.168,0.841-1.759C67.273,180.361,61.42,177.471,58.458,173.279z M86.296,146.174c0.059-0.296,0.126-0.588,0.194-0.88c0.091-0.39,0.187-0.776,0.294-1.159c0.082-0.292,0.168-0.58,0.259-0.867 c0.118-0.374,0.244-0.743,0.378-1.109c0.103-0.282,0.208-0.563,0.319-0.841c0.146-0.362,0.303-0.719,0.464-1.073 c0.122-0.268,0.241-0.535,0.371-0.798c0.176-0.356,0.365-0.703,0.556-1.049c0.137-0.248,0.268-0.498,0.412-0.741 c0.212-0.357,0.439-0.703,0.667-1.05c0.143-0.217,0.278-0.44,0.427-0.652c0.279-0.398,0.575-0.781,0.875-1.163 c0.115-0.147,0.222-0.301,0.34-0.446c0.196-0.239,0.407-0.464,0.61-0.696L81.2,109.776c-1.71,6.393-5.503,23.476-0.542,33.992 c0.102,0.215,0.208,0.424,0.317,0.63c0.103,0.034,0.204,0.079,0.307,0.114c0.677,0.227,1.348,0.477,2.014,0.747 c0.165,0.067,0.331,0.13,0.495,0.199c0.762,0.322,1.515,0.671,2.258,1.048c0.051,0.026,0.105,0.046,0.156,0.072 C86.232,146.442,86.269,146.31,86.296,146.174z M71.075,196.925c-2.808,0.524-5.569,0.793-8.293,0.755 c-0.052,0.019-0.102,0.043-0.154,0.062c-0.324,0.116-0.592,0.058-0.798-0.088c-3.784-0.155-7.495-0.932-11.159-2.478 c-0.007-0.003-0.013-0.005-0.02-0.008c-0.249-0.105-0.498-0.206-0.747-0.319c-4.769-2.158-9.46-5.356-12.93-9.429 c0.621,2.904,1.63,5.773,3.069,8.53l0.015,0.03c4.114,7.849,10.891,13.594,19.217,16.351c0.555,0.184,1.117,0.354,1.686,0.511 c8.277,2.288,17.019,1.353,24.615-2.629c4.595-2.408,8.472-5.74,11.523-9.902c2.095-2.857,3.705-6.014,4.807-9.338 c-0.393-2.335-1.21-4.521-2.262-6.609C91.43,189.404,81.809,194.922,71.075,196.925z M62.714,174.87 c2.551-4.181,6.555-7.484,11.127-9.227c-0.161-1.095-0.361-2.192-0.601-3.287c-1.248-0.499-2.513-0.956-3.797-1.352 c-4.002,2.761-7.339,6.279-9.86,10.325c0,0,0,0,0.001,0.001C60.337,172.643,61.431,173.822,62.714,174.87z M152.715,234.713 c1.682-0.204,3.367-0.509,5.05-0.905c9.717-2.287,18.392-7.458,25.872-13.953c-0.874-1.538-1.831-3.036-2.785-4.517 c-1.61-2.502-3.309-4.946-5.078-7.339C170.641,218.556,163.148,229.017,152.715,234.713z M143.419,212.568 c-1.39,2.585-2.47,5.35-3.194,8.25c4.769,2.205,10.545,2.572,16.047,1.97c0.307-0.582,0.586-1.168,0.841-1.759 C152.234,219.65,146.381,216.76,143.419,212.568z M144.542,210.618C144.542,210.618,144.543,210.618,144.542,210.618 c0.756,1.314,1.85,2.493,3.132,3.541c2.551-4.181,6.555-7.484,11.127-9.227c-0.161-1.095-0.361-2.192-0.601-3.287 c-1.248-0.499-2.513-0.956-3.797-1.352C150.401,203.054,147.064,206.572,144.542,210.618z M172.611,200.722 c-0.097-0.246-0.181-0.498-0.271-0.746c-0.104-0.289-0.219-0.573-0.314-0.866c-0.121-0.375-0.219-0.759-0.324-1.14 c-0.08-0.29-0.171-0.576-0.242-0.87c-0.097-0.404-0.168-0.816-0.246-1.225c-0.053-0.28-0.12-0.555-0.165-0.837 c-0.073-0.458-0.117-0.923-0.166-1.387c-0.026-0.242-0.066-0.48-0.085-0.723c-0.056-0.71-0.085-1.426-0.085-2.148 c0-0.517,0.021-1.046,0.053-1.579c0.01-0.167,0.027-0.335,0.04-0.504c0.019-0.239,0.032-0.475,0.057-0.716 c-0.189-0.102-0.378-0.203-0.569-0.301c-0.213-0.109-0.424-0.22-0.639-0.325c-0.311-0.152-0.625-0.294-0.939-0.436 c-0.203-0.092-0.405-0.187-0.609-0.274c-0.35-0.15-0.703-0.288-1.056-0.425c-0.172-0.067-0.342-0.139-0.514-0.203 c-0.527-0.195-1.058-0.378-1.591-0.545c-2.891-0.904-5.843-1.387-8.79-1.503C162.093,189.095,167.607,194.686,172.611,200.722z M138.412,219.859c2.126-8.113,6.895-15.197,13.538-20.248c-4.502-1.133-9.142-1.624-13.688-1.379 c-0.778,1.5-1.473,3.043-2.034,4.648c-1.537,4.398-2.095,8.904-2.004,13.42C135.443,217.746,136.856,218.921,138.412,219.859z M167.913,148.092l10.988,23.291c0.226-0.219,0.446-0.442,0.679-0.653c0.195-0.176,0.401-0.34,0.601-0.511 c0.312-0.266,0.623-0.531,0.947-0.783c0.225-0.174,0.458-0.337,0.688-0.504c0.316-0.229,0.633-0.457,0.959-0.673 c0.245-0.162,0.496-0.315,0.747-0.469c0.328-0.202,0.658-0.399,0.995-0.587c0.261-0.145,0.525-0.283,0.791-0.42 c0.343-0.176,0.689-0.346,1.04-0.507c0.273-0.126,0.547-0.247,0.825-0.364c0.361-0.152,0.726-0.293,1.095-0.43 c0.28-0.104,0.56-0.206,0.844-0.301c0.383-0.128,0.772-0.242,1.163-0.353c0.282-0.08,0.562-0.163,0.847-0.234 c0.102-0.025,0.2-0.059,0.302-0.083C184.843,156.39,172.984,150.402,167.913,148.092z M183.268,215.41 c1.794,2.845,3.547,5.757,4.649,8.912c0.539-2.661,0.765-5.391,0.648-8.131c-0.238-0.086-0.464-0.191-0.699-0.283 c-0.327-0.128-0.655-0.254-0.975-0.394c-0.333-0.146-0.657-0.304-0.982-0.462c-0.31-0.151-0.621-0.299-0.924-0.46 c-0.319-0.17-0.628-0.354-0.939-0.536c-0.293-0.172-0.588-0.341-0.873-0.523c-0.304-0.194-0.597-0.401-0.893-0.607 c-0.275-0.191-0.552-0.379-0.818-0.58c-0.132-0.099-0.262-0.199-0.392-0.301C181.818,213.157,182.554,214.277,183.268,215.41z M195.42,171.134c3.176,1.612,6.118,3.73,8.72,6.223c0.184,0.071,0.309,0.21,0.393,0.377c3.756,3.701,6.759,8.184,8.663,13.03 c0.409-0.292,0.811-0.588,1.211-0.886c-0.13-0.747-0.263-1.493-0.41-2.237c-1.325-6.721-3.333-13.275-5.92-19.615 c-0.979-0.446-1.988-0.841-3.034-1.16c-2.893,0.265-5.799,2.033-8.261,3.441C196.32,170.572,195.871,170.855,195.42,171.134z M171.256,185.466c0.059-0.299,0.127-0.594,0.196-0.89c0.09-0.386,0.186-0.77,0.292-1.15c0.082-0.294,0.169-0.585,0.261-0.874 c0.118-0.372,0.243-0.739,0.376-1.104c0.103-0.284,0.209-0.567,0.321-0.846c0.145-0.36,0.3-0.713,0.46-1.065 c0.123-0.271,0.244-0.542,0.376-0.808c0.174-0.352,0.361-0.695,0.55-1.038c0.138-0.251,0.272-0.505,0.418-0.751 c0.209-0.353,0.435-0.695,0.66-1.038c0.145-0.221,0.283-0.447,0.435-0.664c0.273-0.39,0.564-0.766,0.857-1.14 c0.121-0.155,0.233-0.317,0.357-0.469c0.195-0.238,0.406-0.463,0.609-0.694l-11.263-23.872c-1.71,6.393-5.503,23.475-0.542,33.992 c0.102,0.215,0.208,0.424,0.317,0.63c0.107,0.035,0.212,0.082,0.319,0.118c0.671,0.226,1.337,0.473,1.999,0.741 c0.167,0.068,0.335,0.132,0.501,0.202c0.76,0.321,1.51,0.669,2.251,1.044c0.053,0.027,0.109,0.048,0.162,0.075 C171.192,185.732,171.229,185.601,171.256,185.466z M141.553,192.715c-0.758,1.142-1.489,2.302-2.177,3.486 c4.97-0.142,10.02,0.549,14.882,1.971c0.137,0.005,0.267,0.043,0.382,0.11c6.883,2.072,13.352,5.605,18.622,10.294 c0.403-0.792,0.793-1.583,1.169-2.374c-0.627-0.819-1.259-1.635-1.905-2.439c-5.802-7.229-12.329-13.838-19.431-19.791 c-1.494,0.079-2.981,0.257-4.453,0.536C145.648,186.383,143.459,189.84,141.553,192.715z M220.771,176.746 c0.181,0.297,0.366,0.59,0.536,0.894c0.198,0.354,0.376,0.718,0.558,1.081c0.154,0.307,0.314,0.611,0.457,0.925 c0.171,0.377,0.321,0.763,0.475,1.148c0.126,0.314,0.26,0.624,0.374,0.943c0.144,0.403,0.263,0.816,0.388,1.227 c0.095,0.314,0.202,0.624,0.286,0.942c0.116,0.438,0.203,0.884,0.297,1.33c0.064,0.303,0.141,0.601,0.195,0.907 c0.088,0.502,0.144,1.014,0.203,1.524c0.03,0.257,0.076,0.51,0.099,0.77c0.067,0.774,0.104,1.555,0.104,2.344 c0,0.702-0.039,1.412-0.096,2.123c-0.015,0.189-0.034,0.377-0.053,0.567c-0.021,0.205-0.032,0.409-0.057,0.614 c2.854-0.752,5.465-2.023,7.778-3.79c1.421-1.085,2.744-2.37,3.981-3.793v-0.065l-9.67-14.616l-6.042,4.612 C220.648,176.534,220.708,176.641,220.771,176.746z M134.571,231.794c-2.566-9.947-3.674-20.447,0.03-30.276 c1.47-3.9,3.609-7.49,5.968-10.912c1.138-1.651,2.357-3.414,3.761-4.969c-1.735,0.576-3.439,1.286-5.091,2.151 c-12.375,6.486-19.048,19.641-17.93,32.766c0.013,0.018,0.03,0.025,0.042,0.045C124.388,225.478,129.383,229.258,134.571,231.794z M134.389,219.367c0.372,4.54,1.324,9.067,2.536,13.482c3.409,1.389,6.902,2.043,10.434,2.133 c6.255-2.318,11.53-6.43,15.948-11.423C153.845,225.895,141.72,226.105,134.389,219.367z M189.54,138.843l7.929-11.091 l-7.906-11.95C188.589,125.43,189.152,134.536,189.54,138.843z M204.461,164.615c0.151,0.039,0.296,0.093,0.446,0.135 c0.167,0.046,0.338,0.082,0.504,0.131c0.108,0.018,0.204,0.048,0.287,0.098c0.089,0.028,0.175,0.062,0.264,0.09 c0.387,0.124,0.77,0.252,1.149,0.392c0.343,0.127,0.68,0.263,1.016,0.404c0.369,0.154,0.735,0.314,1.095,0.484 c0.329,0.155,0.652,0.317,0.973,0.484c0.351,0.183,0.697,0.373,1.038,0.571c0.313,0.181,0.621,0.367,0.925,0.56 c0.332,0.211,0.657,0.429,0.979,0.654c0.295,0.206,0.586,0.414,0.871,0.631c0.312,0.237,0.616,0.483,0.918,0.733 c0.275,0.228,0.547,0.457,0.813,0.696c0.292,0.262,0.574,0.534,0.853,0.808c0.253,0.249,0.506,0.497,0.749,0.755 c0.27,0.286,0.528,0.582,0.785,0.879c0.231,0.267,0.463,0.533,0.683,0.809c0.222,0.277,0.432,0.563,0.642,0.849l6.067-4.631 l-9.335-14.109c-2.655,1.038-5.115,2.322-7.215,3.925C207.245,161.278,205.733,162.839,204.461,164.615z M215.777,202.051 c-0.044-1.192-0.139-2.387-0.243-3.58c-0.186-2.137-0.449-4.266-0.771-6.386c-6.712,4.881-14.75,8.945-23.107,9.458 C199.478,204.143,207.823,203.895,215.777,202.051z M132.47,60.866c-0.392-0.203-0.777-0.419-1.161-0.636 c-0.129-0.073-0.26-0.14-0.388-0.214c-0.509-0.297-1.01-0.605-1.504-0.926c-0.117-0.076-0.23-0.159-0.346-0.237 c-0.373-0.249-0.744-0.499-1.107-0.761c-0.177-0.128-0.348-0.263-0.522-0.394c-0.296-0.222-0.592-0.443-0.881-0.674 c-0.188-0.15-0.37-0.308-0.555-0.462c-0.267-0.222-0.534-0.444-0.794-0.674c-0.188-0.166-0.37-0.338-0.555-0.508 c-0.248-0.229-0.496-0.457-0.737-0.693c-0.184-0.18-0.364-0.364-0.544-0.548c-0.232-0.236-0.463-0.473-0.689-0.716 c-0.178-0.191-0.351-0.386-0.525-0.581c-0.219-0.246-0.435-0.493-0.647-0.745c-0.169-0.201-0.335-0.404-0.499-0.609 c-0.206-0.256-0.408-0.514-0.607-0.776c-0.159-0.21-0.316-0.421-0.471-0.634c-0.194-0.267-0.383-0.537-0.569-0.81 c-0.148-0.217-0.296-0.435-0.439-0.656c-0.181-0.278-0.357-0.56-0.53-0.844c-0.137-0.224-0.274-0.447-0.406-0.674 c-0.055-0.094-0.115-0.185-0.169-0.28c-1.321,1.205-2.508,2.538-3.536,3.976c-9.672,13.53-8.301,38.917-7.565,47.078l26.27-36.744 C132.82,61.037,132.643,60.955,132.47,60.866z M158.658,222.467c2.433-0.391,4.77-0.953,6.895-1.606 c2.566-3.283,4.811-6.84,6.757-10.458c-3.476-3.174-7.518-5.803-11.877-7.801C161.723,209.395,161.571,216.148,158.658,222.467z M203.154,136.344l-4.502-6.805l-7.38,10.322C193.852,139.23,198.162,138.079,203.154,136.344z M153.282,64.599 c-0.142,0.018-0.285,0.03-0.428,0.046c-0.502,0.056-1.004,0.102-1.508,0.137c-0.193,0.013-0.386,0.026-0.58,0.036 c-0.531,0.028-1.062,0.044-1.594,0.048c-0.089,0.001-0.178,0.008-0.267,0.008c-0.022,0-0.044-0.002-0.067-0.002 c-0.699-0.001-1.399-0.028-2.098-0.071c-0.172-0.01-0.343-0.024-0.515-0.037c-0.652-0.049-1.304-0.113-1.955-0.198 c-0.064-0.008-0.129-0.014-0.193-0.022c-0.702-0.096-1.402-0.219-2.101-0.357c-0.169-0.033-0.338-0.069-0.507-0.105 c-0.193-0.041-0.386-0.076-0.579-0.12c0.011,0.05,0.025,0.099,0.036,0.149c0.118,0.537,0.258,1.066,0.415,1.59 c0.045,0.151,0.091,0.301,0.139,0.45c0.186,0.576,0.387,1.146,0.62,1.702c1.515,3.614,4.185,7.324,7.936,11.027 c7.794,7.694,18.334,13.449,22.96,15.776l-4.448-10.616L155.46,64.257c-0.099,0.019-0.197,0.038-0.296,0.056 C154.539,64.425,153.912,64.521,153.282,64.599z M134.155,32.311c0.083,0.038,0.163,0.08,0.247,0.117l-0.234-0.354 C134.173,32.154,134.166,32.231,134.155,32.311z M174.841,93.55l-0.38-0.574l0.319,0.762C174.8,93.674,174.82,93.615,174.841,93.55 z M132.513,31.45c0.161-0.176,0.392-0.295,0.701-0.295c0.152,0,0.282,0.032,0.398,0.081l-4.018-6.074l-1.596,2.412 C129.293,29.172,130.82,30.449,132.513,31.45z M117.47,44.473l0.931-0.772l0.583,1.06c4.124,7.868,10.902,13.616,19.23,16.375 c0.555,0.184,1.117,0.354,1.686,0.512c4.734,1.308,9.62,1.557,14.357,0.79l-9.938-15.021c-0.831,0.379-1.678,0.729-2.544,1.047 c-0.041,0.022-0.086,0.038-0.133,0.054c-0.025,0.009-0.049,0.021-0.074,0.03c-0.2,0.072-0.372,0.063-0.53,0.023 c-7.416-0.151-15.354-3.412-21.317-8.482l-3.877,5.861C116.366,45.439,116.904,44.943,117.47,44.473z M61.989,213.308 c0.117,0.535,0.257,1.062,0.413,1.584c0.046,0.153,0.093,0.306,0.142,0.458c0.186,0.574,0.386,1.143,0.618,1.697 c1.514,3.614,4.184,7.324,7.936,11.028c7.794,7.693,18.333,13.447,22.96,15.775L80.86,212.351c-0.1,0.032-0.199,0.067-0.299,0.098 c-0.088,0.027-0.176,0.05-0.264,0.077c-0.531,0.161-1.065,0.309-1.601,0.446c-0.184,0.047-0.368,0.091-0.552,0.135 c-0.492,0.117-0.986,0.222-1.481,0.317c-0.144,0.028-0.287,0.059-0.431,0.085c-0.627,0.112-1.257,0.208-1.889,0.287 c-0.138,0.017-0.276,0.029-0.414,0.044c-0.507,0.057-1.015,0.103-1.524,0.138c-0.189,0.013-0.378,0.025-0.568,0.035 c-0.538,0.028-1.077,0.045-1.617,0.049c-0.083,0.001-0.167,0.008-0.25,0.008c-0.021,0-0.042-0.002-0.062-0.002 c-0.703-0.001-1.407-0.028-2.11-0.071c-0.167-0.01-0.333-0.023-0.499-0.036c-0.661-0.05-1.321-0.114-1.98-0.201 c-0.057-0.008-0.115-0.012-0.173-0.02c-0.705-0.096-1.407-0.22-2.109-0.359c-0.167-0.033-0.334-0.068-0.501-0.104 c-0.194-0.041-0.388-0.076-0.582-0.12C61.963,213.207,61.978,213.257,61.989,213.308z M98.403,202.113 c-0.195-0.465-0.408-0.928-0.637-1.383c-0.053,0.066-0.11,0.128-0.164,0.194c-0.17,0.209-0.347,0.412-0.521,0.617 c-0.245,0.288-0.492,0.575-0.745,0.854c-0.187,0.206-0.379,0.408-0.571,0.609c-0.253,0.266-0.51,0.53-0.771,0.788 c-0.2,0.197-0.402,0.392-0.607,0.584c-0.267,0.251-0.538,0.497-0.812,0.74c-0.208,0.184-0.418,0.367-0.63,0.546 c-0.285,0.24-0.576,0.474-0.869,0.705c-0.213,0.168-0.424,0.336-0.641,0.499c-0.312,0.235-0.631,0.46-0.951,0.685 c-0.208,0.146-0.413,0.295-0.625,0.437c-0.362,0.243-0.733,0.474-1.105,0.704c-0.18,0.111-0.355,0.228-0.538,0.336 c-0.56,0.333-1.129,0.653-1.71,0.958c-0.579,0.304-1.167,0.585-1.758,0.855c-0.17,0.078-0.342,0.152-0.513,0.227 c-0.454,0.199-0.91,0.387-1.37,0.566c-0.039,0.015-0.078,0.033-0.117,0.048l13.094,31.251 C98.113,235.852,103.871,215.162,98.403,202.113z M130.065,44.098c0.316,0,0.553,0.122,0.714,0.304 c3.401,1.337,6.952,2.116,10.363,2.173c0.702-0.255,1.39-0.537,2.067-0.836l-6.926-10.469c-3.643-1.108-6.921-3.01-9.43-5.965 l-6.027,9.11c2.708,2.338,5.864,4.287,9.201,5.689C130.04,44.105,130.05,44.098,130.065,44.098z M146.252,77.784 c-0.193-0.218-0.385-0.435-0.57-0.653c-0.221-0.26-0.434-0.52-0.645-0.779c-0.174-0.214-0.35-0.429-0.517-0.643 c-0.206-0.264-0.402-0.529-0.598-0.793c-0.155-0.21-0.313-0.419-0.462-0.629c-0.193-0.272-0.373-0.543-0.554-0.814 c-0.135-0.202-0.275-0.404-0.403-0.606c-0.181-0.284-0.348-0.568-0.517-0.852c-0.112-0.188-0.23-0.377-0.337-0.565 c-0.179-0.317-0.342-0.633-0.505-0.949c-0.08-0.155-0.168-0.31-0.244-0.465c-0.232-0.471-0.448-0.941-0.644-1.41 c-0.185-0.442-0.355-0.892-0.513-1.346c-0.053-0.154-0.099-0.31-0.149-0.465c-0.099-0.304-0.197-0.608-0.283-0.917 c-0.052-0.184-0.096-0.371-0.144-0.556c-0.073-0.284-0.144-0.569-0.206-0.857c-0.043-0.198-0.08-0.397-0.118-0.596 c-0.031-0.164-0.07-0.326-0.098-0.491c-0.213-0.063-0.422-0.137-0.634-0.205c-0.248-0.078-0.496-0.156-0.742-0.24 c-0.322-0.11-0.641-0.228-0.959-0.347c-0.238-0.089-0.477-0.175-0.713-0.269c-0.287-0.114-0.57-0.237-0.854-0.359l-26.386,36.907 c7.312-1.786,28.602-7.781,39.493-19.267c-0.132-0.135-0.253-0.27-0.382-0.405c-0.211-0.22-0.42-0.441-0.624-0.661 C146.708,78.296,146.478,78.04,146.252,77.784z M204.562,183.439c0.234-0.676,0.449-1.362,0.645-2.061 c-0.599-0.694-1.217-1.371-1.865-2.017c-3.499,0.45-6.795,1.598-9.772,3.328c0.064,0.962,0.315,1.94,0.702,2.906 C197.37,183.815,201.011,183.082,204.562,183.439z M217.746,205.765c2.271-3.034,3.891-6.609,4.596-10.553 c0.265-1.482,0.399-2.974,0.399-4.433c0-8.885-4.718-16.884-11.959-21.331c2.438,6.312,4.297,12.829,5.487,19.498 C217.2,194.152,218.434,200.251,217.746,205.765z M201.495,177.654c-2.429-2.11-5.124-3.893-7.996-5.244 c-1.495,1.061-2.908,2.227-4.175,3.585c-1.877,2.011-3.367,4.27-4.576,6.677c0.284,1.232,0.747,2.369,1.351,3.421 C190.252,181.672,195.585,178.782,201.495,177.654z M186.962,199.439c4.59,0.491,9.108-0.257,13.413-1.782 c-1.197-0.321-2.41-0.708-3.615-1.162c-0.041-0.012-0.079-0.029-0.117-0.047c-5.594-2.126-10.923-5.716-13.122-11.051 c-1.188,2.932-2.043,6.018-2.725,9.106C182.59,196.452,184.684,198.126,186.962,199.439z M191.718,183.87 c-1.619,1.131-3.126,2.437-4.485,3.924c2.345,2.97,5.882,5.116,9.588,6.585c0.281-0.198,0.548-0.407,0.814-0.617 C194.986,191.187,192.385,187.534,191.718,183.87z M199.89,194.452c-0.007,0.007-0.014,0.013-0.02,0.019 c-0.265,0.24-0.531,0.48-0.812,0.709c1.554,0.501,3.097,0.89,4.563,1.175c2.751-1.24,5.393-2.759,7.885-4.426 c-1.15-3.087-2.773-6.019-4.78-8.681C205.341,187.58,203.218,191.436,199.89,194.452z M188.458,202.477 c-0.812-0.341-1.602-0.743-2.378-1.175c-0.121-0.043-0.228-0.1-0.318-0.176c-5.916-3.411-10.615-9.37-12.375-16.021 c-0.188,0.802-0.35,1.612-0.457,2.439l0,0.002c-0.143,1.104-0.215,2.191-0.215,3.233c0,10.798,6.884,20.337,17.129,23.738 c2.549,0.847,5.202,1.276,7.885,1.276c6.663,0,12.779-2.623,17.301-6.954c0.492-1.556,0.708-3.141,0.758-4.741 C206.72,206.121,197.143,206.119,188.458,202.477z M188.408,174.062c2.398-2.438,5.238-4.319,8.221-5.96 c1.343-0.739,2.77-1.516,4.25-2.13c-1.047-0.132-2.1-0.207-3.15-0.207c-1.434,0-2.903,0.13-4.366,0.388 c-8.42,1.482-15.42,7.302-18.671,14.971c0.328,4.206,1.992,8.134,4.497,11.459C180.823,185.783,183.421,179.13,188.408,174.062z M203.83,185.352c-3.006-0.218-6.079,0.534-8.679,2.045c1.081,1.899,2.562,3.661,3.989,5.038 C201.195,190.412,202.708,188.008,203.83,185.352z M149.291,215.349c2.657,1.763,5.803,3.046,8.546,3.805 c1.329-3.939,1.613-8.04,1.217-12.181C155.022,208.607,151.529,211.623,149.291,215.349z M53.531,210.061 c-0.383-0.199-0.759-0.409-1.135-0.622c-0.138-0.078-0.279-0.15-0.415-0.229c-0.507-0.295-1.007-0.603-1.498-0.923 c-0.134-0.087-0.263-0.182-0.396-0.271c-0.356-0.238-0.711-0.477-1.058-0.728c-0.183-0.132-0.361-0.273-0.541-0.409 c-0.289-0.217-0.578-0.433-0.86-0.658c-0.194-0.156-0.383-0.318-0.574-0.478c-0.26-0.217-0.521-0.433-0.774-0.657 c-0.195-0.172-0.384-0.35-0.575-0.526c-0.241-0.222-0.482-0.445-0.717-0.674c-0.19-0.185-0.375-0.376-0.562-0.565 c-0.226-0.23-0.451-0.461-0.671-0.697c-0.183-0.197-0.362-0.398-0.541-0.599c-0.213-0.24-0.424-0.481-0.631-0.727 c-0.174-0.207-0.344-0.416-0.514-0.627c-0.201-0.25-0.398-0.502-0.592-0.757c-0.164-0.216-0.326-0.434-0.485-0.653 c-0.188-0.26-0.372-0.523-0.554-0.788c-0.153-0.224-0.305-0.449-0.454-0.677c-0.176-0.27-0.346-0.544-0.515-0.82 c-0.142-0.231-0.283-0.462-0.42-0.697c-0.053-0.091-0.111-0.18-0.164-0.272c-1.323,1.206-2.509,2.54-3.536,3.976 c-2.861,4.001-4.753,9.039-5.984,14.359l11.443,14.501l13.246-18.527C53.882,210.233,53.704,210.151,53.531,210.061z M103.447,134.773c2.398-2.438,5.238-4.319,8.221-5.96c1.343-0.739,2.77-1.516,4.249-2.13c-1.047-0.132-2.1-0.207-3.15-0.207 c-1.436,0-2.905,0.13-4.366,0.388c-8.419,1.482-15.419,7.302-18.671,14.971c0.328,4.206,1.992,8.134,4.497,11.459 C95.862,146.494,98.46,139.841,103.447,134.773z M37.937,194.195c-4.528-9.16-4.766-19.38-1.441-28.313l-13.601,20.559v19.7 l4.885,6.191c1.296-4.963,3.192-9.657,5.946-13.509C34.932,197.133,36.354,195.586,37.937,194.195z M114.93,155.163 c-0.007,0.007-0.014,0.013-0.021,0.02c-0.265,0.24-0.531,0.48-0.812,0.709c1.554,0.501,3.097,0.89,4.563,1.175 c2.751-1.24,5.393-2.759,7.885-4.426c-1.15-3.087-2.773-6.019-4.78-8.681C120.381,148.291,118.257,152.146,114.93,155.163z M116.534,138.365c-2.429-2.11-5.124-3.893-7.996-5.244c-1.495,1.061-2.908,2.228-4.175,3.585c-1.877,2.011-3.366,4.27-4.576,6.677 c0.284,1.232,0.746,2.369,1.351,3.421C105.292,142.383,110.624,139.493,116.534,138.365z M110.46,131.845 c3.176,1.612,6.118,3.73,8.72,6.223c0.184,0.071,0.309,0.21,0.393,0.377c3.756,3.701,6.759,8.184,8.663,13.03 c0.409-0.292,0.811-0.588,1.211-0.886c-0.13-0.747-0.263-1.493-0.41-2.237c-1.325-6.721-3.333-13.275-5.92-19.615 c-0.979-0.446-1.988-0.841-3.034-1.16c-2.893,0.265-5.799,2.033-8.261,3.441C111.359,131.283,110.911,131.566,110.46,131.845z M115.414,158.368c-1.197-0.321-2.41-0.708-3.615-1.162c-0.041-0.012-0.079-0.029-0.117-0.047 c-5.594-2.126-10.924-5.716-13.122-11.051c-1.188,2.932-2.043,6.018-2.725,9.106c1.795,1.948,3.888,3.621,6.167,4.935 C106.592,160.641,111.109,159.893,115.414,158.368z M103.498,163.188c-0.812-0.34-1.602-0.743-2.378-1.175 c-0.122-0.043-0.228-0.1-0.319-0.176c-5.916-3.412-10.615-9.37-12.375-16.022c-0.188,0.802-0.351,1.613-0.458,2.441 c-0.143,1.108-0.215,2.196-0.215,3.234c0,1.35,0.108,2.68,0.316,3.98c1.458,9.106,7.849,16.782,16.814,19.758 c2.549,0.847,5.202,1.276,7.884,1.276c6.663,0,12.779-2.623,17.302-6.954c0.492-1.556,0.708-3.141,0.758-4.741 C121.759,166.832,112.182,166.83,103.498,163.188z M236.294,189.441c-0.882,0.883-1.801,1.705-2.767,2.442 c-2.762,2.108-5.912,3.561-9.365,4.34c-1.105,5.4-3.763,10.155-7.478,13.811c-0.091,0.127-0.197,0.228-0.323,0.294 c-4.879,4.649-11.463,7.464-18.633,7.464c-2.422,0-4.816-0.343-7.145-0.982c0.09,3.99-0.496,7.95-1.7,11.716 c-0.016,0.166-0.061,0.316-0.141,0.445c-1.099,3.291-2.68,6.422-4.701,9.286c0.429,0.773,0.829,1.564,1.167,2.371 c0.136,0.325,0.256,0.661,0.38,0.994h22.718l27.987-35.468V189.441z M135.811,137.457c0.181,0.297,0.366,0.59,0.536,0.894 c0.198,0.354,0.376,0.718,0.558,1.081c0.154,0.307,0.314,0.611,0.457,0.925c0.171,0.377,0.321,0.763,0.475,1.148 c0.126,0.314,0.26,0.624,0.374,0.943c0.144,0.403,0.263,0.816,0.388,1.227c0.095,0.314,0.202,0.624,0.286,0.942 c0.116,0.438,0.203,0.884,0.297,1.33c0.064,0.303,0.141,0.601,0.195,0.907c0.088,0.502,0.144,1.014,0.203,1.524 c0.03,0.257,0.076,0.51,0.099,0.77c0.067,0.774,0.104,1.555,0.104,2.344c0,0.703-0.039,1.413-0.096,2.124 c-0.015,0.189-0.034,0.377-0.053,0.566c-0.021,0.205-0.032,0.409-0.057,0.614c2.853-0.752,5.464-2.023,7.779-3.79 c11.245-8.583,16.572-29.387,18.136-36.66l-29.868,22.798C135.687,137.245,135.747,137.352,135.811,137.457z M182.727,240.019 c-0.053,0.067-0.111,0.129-0.164,0.195c-0.169,0.208-0.344,0.41-0.518,0.613c-0.228,0.268-0.455,0.536-0.69,0.796h2.094 c-0.029-0.072-0.054-0.148-0.084-0.22C183.169,240.937,182.956,240.474,182.727,240.019z M122.897,233.484 c-8.566-17.33-1.765-38.464,15.414-47.469c7.794-4.086,16.622-5.137,25.092-3.044c-5.428-13.063,0.489-33.515,1.458-36.662 l-0.967-2.053l2.351,0.932c0.775,0.307,18.82,7.558,27.383,18.902c2.947-0.451,5.872-0.415,8.736,0.082 c1.483-2.232,3.283-4.189,5.392-5.799c2.152-1.643,4.631-2.974,7.291-4.053l-10.73-16.218c-7.253,2.547-13.197,3.883-14.806,4.223 l-1.348,1.888l-0.333-2.512c-0.117-0.883-1.846-14.452-0.02-28.549l-11.556-17.467c-0.122,0.356-0.224,0.646-0.299,0.855 l0.883,2.114l-2.306-1.034c-0.149-0.067-14.727-6.668-25.163-16.607c-12.95,13.645-39.013,19.562-42.673,20.336l-1.348,1.888 l-0.333-2.512c-0.163-1.225-3.432-26.87,4.009-44.469l-63.606,96.141c2.321-2.195,4.969-4.117,7.934-5.671 c7.794-4.085,16.623-5.136,25.092-3.044c-5.428-13.063,0.489-33.516,1.458-36.663l-0.967-2.053l2.351,0.932 c0.775,0.307,18.819,7.558,27.382,18.902c2.941-0.45,5.872-0.414,8.736,0.082c1.483-2.232,3.284-4.19,5.392-5.799 c13.569-10.356,40.063-8.408,43.773-8.078l1.823-1.389l-0.418,2.493c-0.202,1.202-5.105,29.57-19.405,40.484 c-2.763,2.108-5.913,3.561-9.365,4.34c-1.105,5.401-3.762,10.155-7.478,13.812c-0.09,0.126-0.196,0.226-0.321,0.293 c-4.879,4.65-11.464,7.465-18.635,7.465c-2.421,0-4.815-0.343-7.145-0.982c0.09,3.991-0.496,7.951-1.7,11.717 c-0.016,0.165-0.061,0.314-0.14,0.443c-1.099,3.291-2.68,6.422-4.702,9.287c0.43,0.774,0.829,1.566,1.167,2.372 c6.596,15.741-1.974,40.88-3.232,44.393l0.893,2.119l-2.316-1.038c-0.149-0.067-14.727-6.667-25.163-16.606 c-4.977,5.244-11.881,9.346-18.717,12.453l22.373,28.353c1.855-0.992,3.956-1.538,6.152-1.538h30.04 c0.429-10.503,2.386-22.943,8.407-31.365C119.893,236.422,121.315,234.874,122.897,233.484z M69.011,228.814 c-0.136-0.139-0.261-0.279-0.394-0.418c-0.205-0.214-0.408-0.428-0.606-0.643c-0.24-0.259-0.472-0.519-0.701-0.778 c-0.192-0.216-0.383-0.433-0.567-0.649c-0.22-0.259-0.432-0.517-0.642-0.776c-0.176-0.216-0.353-0.432-0.521-0.649 c-0.204-0.261-0.398-0.523-0.591-0.784c-0.158-0.213-0.319-0.426-0.47-0.639c-0.189-0.267-0.366-0.533-0.544-0.8 c-0.138-0.207-0.281-0.414-0.413-0.621c-0.177-0.277-0.339-0.554-0.504-0.831c-0.116-0.196-0.239-0.391-0.349-0.587 c-0.174-0.307-0.331-0.614-0.489-0.92c-0.085-0.164-0.178-0.328-0.258-0.492c-0.231-0.47-0.447-0.939-0.643-1.407 c-0.186-0.443-0.356-0.893-0.514-1.347c-0.051-0.147-0.094-0.297-0.143-0.445c-0.101-0.31-0.201-0.621-0.289-0.936 c-0.051-0.181-0.095-0.365-0.142-0.548c-0.073-0.287-0.145-0.574-0.208-0.864c-0.043-0.197-0.08-0.396-0.118-0.595 c-0.031-0.164-0.07-0.327-0.098-0.492c-0.213-0.063-0.422-0.138-0.634-0.205c-0.248-0.078-0.496-0.155-0.741-0.239 c-0.323-0.11-0.641-0.228-0.96-0.347c-0.238-0.089-0.477-0.175-0.713-0.269c-0.287-0.114-0.57-0.237-0.854-0.359l-13.804,19.308 l8.309,10.53C57.238,237.959,64.158,233.932,69.011,228.814z M127.536,240.578c-0.167-0.199-0.331-0.4-0.494-0.603 c-0.208-0.259-0.413-0.52-0.614-0.784c-0.157-0.207-0.312-0.416-0.465-0.627c-0.195-0.269-0.386-0.542-0.574-0.817 c-0.146-0.214-0.292-0.429-0.434-0.647c-0.184-0.282-0.362-0.568-0.538-0.856c-0.134-0.219-0.268-0.438-0.398-0.66 c-0.056-0.096-0.117-0.188-0.172-0.285c-1.323,1.206-2.508,2.539-3.536,3.976c-5.681,7.946-7.55,19.971-7.979,30.202h8.313v-27.854 h7.797c-0.088-0.096-0.17-0.198-0.256-0.295C127.967,241.081,127.749,240.831,127.536,240.578z M186.868,228.263 c-0.393-2.334-1.21-4.52-2.262-6.609c-8.216,7.039-17.836,12.557-28.571,14.56c-2.808,0.524-5.569,0.793-8.293,0.755 c-0.052,0.019-0.102,0.043-0.154,0.062c-0.323,0.116-0.592,0.058-0.798-0.088c-3.784-0.155-7.496-0.932-11.159-2.478 c-0.007-0.003-0.013-0.005-0.02-0.008c-0.249-0.105-0.498-0.206-0.747-0.319c-4.769-2.158-9.459-5.356-12.93-9.429 c0.619,2.895,1.625,5.755,3.057,8.504l0.03,0.06c1.646,3.138,3.717,5.94,6.143,8.349h47.419c1.253-1.24,2.418-2.578,3.477-4.022 C184.155,234.744,185.766,231.586,186.868,228.263z M130.816,162.762c-0.044-1.192-0.139-2.387-0.243-3.58 c-0.186-2.137-0.449-4.266-0.771-6.386c-6.712,4.881-14.75,8.945-23.107,9.458C114.517,164.854,122.863,164.606,130.816,162.762z M106.758,144.581c-1.619,1.131-3.127,2.437-4.486,3.924c2.345,2.97,5.882,5.116,9.588,6.585c0.281-0.198,0.548-0.407,0.814-0.617 C110.025,151.898,107.425,148.244,106.758,144.581z M132.786,166.476c2.271-3.034,3.89-6.609,4.596-10.553 c0.265-1.481,0.4-2.973,0.4-4.433c0-8.885-4.718-16.884-11.959-21.332c2.438,6.312,4.297,12.829,5.487,19.498 C132.239,154.863,133.473,160.961,132.786,166.476z M121.002,125.779c0.387,0.124,0.77,0.252,1.149,0.392 c0.343,0.127,0.68,0.263,1.016,0.404c0.369,0.154,0.735,0.314,1.095,0.484c0.329,0.155,0.652,0.317,0.973,0.484 c0.351,0.183,0.697,0.373,1.038,0.571c0.313,0.181,0.621,0.367,0.925,0.56c0.332,0.211,0.657,0.429,0.979,0.654 c0.295,0.206,0.586,0.414,0.871,0.631c0.312,0.237,0.616,0.483,0.918,0.733c0.275,0.228,0.547,0.457,0.813,0.696 c0.292,0.262,0.574,0.534,0.853,0.808c0.253,0.249,0.506,0.497,0.749,0.755c0.27,0.286,0.528,0.582,0.785,0.879 c0.231,0.267,0.463,0.533,0.683,0.809c0.222,0.277,0.432,0.563,0.642,0.849l29.661-22.64c-7.424-0.409-28.897-0.76-40.145,7.825 c-1.724,1.315-3.235,2.876-4.507,4.652c0.151,0.039,0.296,0.093,0.446,0.135c0.167,0.046,0.338,0.082,0.503,0.131 c0.108,0.018,0.205,0.048,0.288,0.098C120.827,125.717,120.913,125.751,121.002,125.779z M119.601,144.15 c0.234-0.676,0.449-1.362,0.645-2.061c-0.599-0.694-1.217-1.371-1.865-2.017c-3.499,0.45-6.795,1.598-9.772,3.328 c0.064,0.962,0.315,1.94,0.702,2.906C112.41,144.525,116.05,143.793,119.601,144.15z M118.869,146.063 c-3.006-0.218-6.079,0.534-8.679,2.045c1.081,1.899,2.562,3.661,3.989,5.038C116.235,151.123,117.747,148.718,118.869,146.063z" fill="#041e1b"/></g><g id="change3_1"><path d="M258.37,179.792l-1.27-1.92h85.786c0.143,0.666,0.309,1.332,0.487,2h-84.902L258.37,179.792z M398.774,179.871 h102.044v-2H398.801C398.811,178.536,398.801,179.203,398.774,179.871z M1.614,179.173l21.28,26.968v-19.7l13.601-20.559 l8.922-13.485l63.606-96.141l6.82-10.308l3.877-5.861l1.106-1.672l6.027-9.11l1.146-1.732l1.596-2.412l4.018,6.074l0.555,0.838 l0.234,0.354l1.881,2.843l6.926,10.469l1.109,1.677l9.938,15.021l1.204,1.82l13.087,19.781l5.913,8.938l0.38,0.574l1.412,2.135 l11.556,17.467l1.754,2.651l7.906,11.95l1.182,1.786l4.502,6.805l1.163,1.758l10.73,16.218l1.137,1.718l9.335,14.109l1.106,1.672 l9.67,14.616v0.065v2.941v16.714l21.291-26.982l0.784,0.619l-1.27-1.92l-13.836-20.912L145.132,8.638l-0.599-0.905 C141.212,3.059,135.765,0,129.594,0c-6.171,0-11.617,3.059-14.939,7.733c-0.21,0.295-0.406,0.597-0.599,0.905L0.817,179.799 l0.011-0.006L1.614,179.173z M0.817,179.799v0.002l0.011-0.008L0.817,179.799z M68.633,276.562c0.925-1.792,2.221-3.3,3.761-4.462 L0.817,181.393v191.304L68.633,276.562z M210.855,241.623h47.516v-60.215L210.855,241.623z M120.646,271.477H80.238 c-4.177,0-7.954,2.321-9.855,6.057l-0.074,0.123L2.041,374.432h74.581h1h1h42.023V271.477z" fill="#034a44"/></g><g id="change4_1"><path d="M366.461,174.604c1.398,2.381,3.919,4.032,6.595,5.072c0.109,0.073,0.231,0.122,0.362,0.137 c0.094,0.035,0.189,0.066,0.283,0.099c-1.681,0.445-3.42,0.642-5.203,0.51c-1.134-0.583-2.169-1.304-3.06-2.176 C365.718,177.017,366.045,175.792,366.461,174.604z M377.473,168.717c0.254,0.079,0.421,0.269,0.5,0.506 c1.754,1.768,3.196,3.841,4.221,6.112c-0.049-0.243-0.098-0.492-0.146-0.728c-0.689-3.434-1.726-6.768-3.024-10.016 c-0.414-0.181-0.839-0.344-1.276-0.482c-1.368,0.181-2.864,0.835-4.258,1.698C374.931,166.612,376.271,167.586,377.473,168.717z M369.661,168.95c-0.856,0.948-1.539,1.997-2.11,3.105c0.092,0.33,0.205,0.647,0.343,0.949c1.968-1.911,4.335-3.21,6.957-3.888 c-0.992-0.777-2.056-1.457-3.183-2.019C370.902,167.707,370.208,168.343,369.661,168.95z M368.092,182.39 c-0.077-0.008-0.153-0.01-0.23-0.019c-0.366-0.043-0.614-0.248-0.769-0.505c-2.592-1.46-4.694-3.59-5.891-6.493 c-0.023,0.307-0.061,0.622-0.061,0.916c0,5.514,3.516,10.386,8.748,12.124c1.303,0.432,2.657,0.651,4.026,0.651 c3.349,0,6.426-1.3,8.725-3.45c0.155-0.547,0.26-1.114,0.328-1.695C378.052,184.853,372.497,184.492,368.092,182.39z M398.801,177.871c0.01,0.665,0,1.331-0.027,2c-0.251,6.06-2.031,12.165-5.649,16.499c-6.102,7.31-17.011,10.153-25.905,6.751 c-2.398-0.917-4.646-2.236-7.125-2.903c-4.441-1.194-9.975-0.544-12.794-4.177c-1.857-2.393-1.684-5.712-2.105-8.712 c-0.35-2.498-1.163-4.985-1.823-7.458c-0.178-0.668-0.344-1.334-0.487-2c-0.508-2.359-0.722-4.706-0.096-7.037 c2.032-7.564,9.741-8.164,13.981-14.749c2.821-6.023,12.461-7.347,16.83-6.957c13.075,1.167,21.013,11.207,23.612,18.911 C398.212,171.003,398.751,174.398,398.801,177.871z M395.281,176.289c0-11.781-9.585-21.366-21.366-21.366 s-21.365,9.584-21.365,21.366s9.584,21.366,21.365,21.366S395.281,188.07,395.281,176.289z M393.281,176.289 c0,10.678-8.688,19.366-19.366,19.366c-10.678,0-19.365-8.688-19.365-19.366s8.688-19.366,19.365-19.366 C384.594,156.923,393.281,165.611,393.281,176.289z M388.69,176.289c0-6.457-4.224-12.115-10.249-14.054 c-0.103-0.072-0.229-0.114-0.378-0.128c-0.411-0.12-0.83-0.223-1.257-0.308c-1.784-0.355-3.628-0.381-5.469-0.056 c-6.389,1.125-11.24,6.204-12.071,12.638c-0.083,0.65-0.126,1.292-0.126,1.908c0,6.377,4.065,12.012,10.118,14.022 c1.506,0.5,3.073,0.753,4.656,0.753c3.94,0,7.556-1.553,10.229-4.116c0.057-0.044,0.113-0.087,0.16-0.146 c2.105-2.08,3.597-4.801,4.151-7.896C388.611,178.032,388.69,177.151,388.69,176.289z M369.009,174.716 c0.993,1.137,2.324,2.019,3.767,2.682c-1.01-1.15-1.891-2.543-2.32-3.983C369.947,173.81,369.468,174.25,369.009,174.716z M381.776,166.236c1.118,3.134,1.984,6.347,2.529,9.64c0.353,2.129,0.758,4.42,0.75,6.659c0.679-1.212,1.175-2.548,1.431-3.981 c0.136-0.758,0.204-1.52,0.204-2.265C386.69,172.262,384.787,168.599,381.776,166.236z M376.43,173.861 c-1.115,0.027-2.227,0.32-3.223,0.818c0.431,0.668,0.945,1.289,1.462,1.823C375.394,175.715,375.966,174.824,376.43,173.861z M377.342,171.451c-0.214-0.241-0.438-0.471-0.664-0.701c-1.591,0.24-3.086,0.75-4.453,1.505c0.028,0.204,0.067,0.408,0.127,0.613 c1.499-0.742,3.184-1.065,4.854-0.965C377.253,171.753,377.297,171.602,377.342,171.451z M368.746,167.012 c1.288-1.284,2.966-2.543,4.764-3.479c-0.604,0.02-1.214,0.073-1.824,0.18c-4.261,0.75-7.808,3.675-9.488,7.538 c0.196,1.972,0.784,3.645,1.665,5.047C364.778,172.866,366.185,169.566,368.746,167.012z M382.537,177.829 c-0.021,0.016-0.042,0.03-0.064,0.044c-2.744,1.886-5.805,3.454-9.038,4.175c3.198,0.582,6.625,0.455,9.639-0.186 c-0.026-1.366-0.202-2.758-0.429-4.107C382.609,177.78,382.573,177.805,382.537,177.829z M380.615,176.715 c-0.48-1.186-1.087-2.312-1.806-3.368c-0.729,1.927-1.767,3.645-3.251,5.056c0.471,0.131,0.935,0.244,1.389,0.339 C378.214,178.166,379.439,177.476,380.615,176.715z M105.014,100.725c-0.163-1.225-3.432-26.87,4.009-44.469l6.82-10.308 c0.524-0.509,1.062-1.006,1.628-1.475l0.931-0.772l0.583,1.06c4.124,7.868,10.902,13.616,19.23,16.375 c0.555,0.184,1.117,0.354,1.686,0.512c4.734,1.308,9.62,1.557,14.357,0.79l1.204,1.82c-0.099,0.019-0.197,0.038-0.296,0.056 c-0.625,0.112-1.252,0.208-1.882,0.286c-0.142,0.018-0.285,0.03-0.428,0.046c-0.502,0.056-1.004,0.102-1.508,0.137 c-0.193,0.013-0.386,0.026-0.58,0.036c-0.531,0.028-1.062,0.044-1.594,0.048c-0.089,0.001-0.178,0.008-0.267,0.008 c-0.022,0-0.044-0.002-0.067-0.002c-0.699-0.001-1.399-0.028-2.098-0.071c-0.172-0.01-0.343-0.024-0.515-0.037 c-0.652-0.049-1.304-0.113-1.955-0.198c-0.064-0.008-0.129-0.014-0.193-0.022c-0.702-0.096-1.402-0.219-2.101-0.357 c-0.169-0.033-0.338-0.069-0.507-0.105c-0.193-0.041-0.386-0.076-0.579-0.12c0.011,0.05,0.025,0.099,0.036,0.149 c0.118,0.537,0.258,1.066,0.415,1.59c0.045,0.151,0.091,0.301,0.139,0.45c0.186,0.576,0.387,1.146,0.62,1.702 c1.515,3.614,4.185,7.324,7.936,11.027c7.794,7.694,18.334,13.449,22.96,15.776l-4.448-10.616l5.913,8.938l0.319,0.762 c0.02-0.063,0.04-0.122,0.06-0.188l1.412,2.135c-0.122,0.356-0.224,0.646-0.299,0.855l0.883,2.114l-2.306-1.034 c-0.149-0.067-14.727-6.668-25.163-16.607c-12.95,13.645-39.013,19.562-42.673,20.336l-1.348,1.888L105.014,100.725z M140.899,70.034c-0.232-0.471-0.448-0.941-0.644-1.41c-0.185-0.442-0.355-0.892-0.513-1.346c-0.053-0.154-0.099-0.31-0.149-0.465 c-0.099-0.304-0.197-0.608-0.283-0.917c-0.052-0.184-0.096-0.371-0.144-0.556c-0.073-0.284-0.144-0.569-0.206-0.857 c-0.043-0.198-0.08-0.397-0.118-0.596c-0.031-0.164-0.07-0.326-0.098-0.491c-0.213-0.063-0.422-0.137-0.634-0.205 c-0.248-0.078-0.496-0.156-0.742-0.24c-0.322-0.11-0.641-0.228-0.959-0.347c-0.238-0.089-0.477-0.175-0.713-0.269 c-0.287-0.114-0.57-0.237-0.854-0.359l-26.386,36.907c7.312-1.786,28.602-7.781,39.493-19.267c-0.132-0.135-0.253-0.27-0.382-0.405 c-0.211-0.22-0.42-0.441-0.624-0.661c-0.236-0.256-0.466-0.512-0.692-0.768c-0.193-0.218-0.385-0.435-0.57-0.653 c-0.221-0.26-0.434-0.52-0.645-0.779c-0.174-0.214-0.35-0.429-0.517-0.643c-0.206-0.264-0.402-0.529-0.598-0.793 c-0.155-0.21-0.313-0.419-0.462-0.629c-0.193-0.272-0.373-0.543-0.554-0.814c-0.135-0.202-0.275-0.404-0.403-0.606 c-0.181-0.284-0.348-0.568-0.517-0.852c-0.112-0.188-0.23-0.377-0.337-0.565c-0.179-0.317-0.342-0.633-0.505-0.949 C141.064,70.344,140.976,70.189,140.899,70.034z M106.725,97.868l26.27-36.744c-0.174-0.087-0.351-0.169-0.524-0.258 c-0.392-0.203-0.777-0.419-1.161-0.636c-0.129-0.073-0.26-0.14-0.388-0.214c-0.509-0.297-1.01-0.605-1.504-0.926 c-0.117-0.076-0.23-0.159-0.346-0.237c-0.373-0.249-0.744-0.499-1.107-0.761c-0.177-0.128-0.348-0.263-0.522-0.394 c-0.296-0.222-0.592-0.443-0.881-0.674c-0.188-0.15-0.37-0.308-0.555-0.462c-0.267-0.222-0.534-0.444-0.794-0.674 c-0.188-0.166-0.37-0.338-0.555-0.508c-0.248-0.229-0.496-0.457-0.737-0.693c-0.184-0.18-0.364-0.364-0.544-0.548 c-0.232-0.236-0.463-0.473-0.689-0.716c-0.178-0.191-0.351-0.386-0.525-0.581c-0.219-0.246-0.435-0.493-0.647-0.745 c-0.169-0.201-0.335-0.404-0.499-0.609c-0.206-0.256-0.408-0.514-0.607-0.776c-0.159-0.21-0.316-0.421-0.471-0.634 c-0.194-0.267-0.383-0.537-0.569-0.81c-0.148-0.217-0.296-0.435-0.439-0.656c-0.181-0.278-0.357-0.56-0.53-0.844 c-0.137-0.224-0.274-0.447-0.406-0.674c-0.055-0.094-0.115-0.185-0.169-0.28c-1.321,1.205-2.508,2.538-3.536,3.976 C104.617,64.319,105.988,89.707,106.725,97.868z M141.566,48.547c0.025-0.009,0.049-0.021,0.074-0.03 c0.045-0.016,0.088-0.037,0.133-0.054c0.866-0.317,1.713-0.668,2.544-1.047l-1.109-1.677c-0.678,0.299-1.365,0.581-2.067,0.836 c-3.411-0.057-6.962-0.837-10.363-2.173c-0.161-0.182-0.397-0.304-0.714-0.304c-0.015,0-0.024,0.007-0.038,0.008 c-3.337-1.402-6.492-3.351-9.201-5.689l-1.106,1.672c5.963,5.07,13.901,8.332,21.317,8.482 C141.194,48.61,141.366,48.619,141.566,48.547z M136.282,35.271l-1.881-2.843c-0.083-0.037-0.164-0.078-0.247-0.117 c0.011-0.08,0.018-0.157,0.013-0.237l-0.555-0.838c-0.116-0.049-0.246-0.081-0.398-0.081c-0.31,0-0.541,0.12-0.701,0.295 c-1.693-1.001-3.22-2.278-4.515-3.876l-1.146,1.732C129.361,32.261,132.639,34.163,136.282,35.271z M188.163,144.213l1.348-1.888 c1.609-0.341,7.553-1.677,14.806-4.223l-1.163-1.758c-4.991,1.735-9.302,2.887-11.882,3.517l7.38-10.322l-1.182-1.786 l-7.929,11.091c-0.389-4.307-0.951-13.413,0.023-23.041l-1.754-2.651c-1.825,14.098-0.097,27.666,0.02,28.549L188.163,144.213z M76.623,374.432L76.623,374.432l2,0v0h-1H76.623z M269.227,323.156c0.701-0.442,1.105-1.274,1.321-1.895 c0.216-0.619,0.257-1.1,0.121-1.431c-0.236-0.576-1.141-0.792-1.794-0.603c-0.723,0.213-1.424,0.79-2.207,1.814 c-0.351,0.458-0.677,0.962-0.968,1.497C266.718,323.403,268.17,323.824,269.227,323.156z M224.508,361.408 c-2.109,3.832-4.342,7.633-7.145,10.8c4.605,2.563,12.743,3.371,16.98,0.556c1.707-1.134,5.201-5.372,5.937-10.482 c0.048-0.333,0.083-0.662,0.106-0.988c-2.302,0.812-4.987,1.234-8.134,1.287C229.119,362.626,226.578,362.254,224.508,361.408z M258.679,284.211c1.866-1.849,3.188-4.266,3.68-7.013c0.087-0.487,0.138-0.975,0.171-1.46h81.555v126.411H154.76V275.738h81.55 c0.348,5.313,3.86,9.913,8.969,11.608c1.34,0.444,2.734,0.67,4.144,0.67c3.496,0,6.706-1.375,9.081-3.645 C258.567,284.324,258.628,284.277,258.679,284.211z M242.735,360.261c3.608-1.939,6.045-5.201,6.521-8.723 c0.074-0.548-0.31-1.051-0.857-1.125c-0.543-0.068-1.051,0.31-1.125,0.857c-0.364,2.699-2.274,5.33-5.029,6.971 c-0.399-2.523-1.495-4.889-3.254-6.983c-1.491-1.773-3.482-3.115-5.753-3.938c0.521-0.616,1.062-1.206,1.624-1.765 c3.516-3.491,6.521-5.06,9.434-4.965c0.561,0.062,1.016-0.411,1.036-0.963c0.02-0.552-0.412-1.016-0.963-1.035 c-4.612-0.184-8.439,3.085-10.916,5.545c-0.815,0.811-1.584,1.677-2.315,2.586c-1.447-0.302-2.969-0.407-4.523-0.306 c-2.995,0.202-5.124,1.044-6.507,2.575c-1.122,1.242-1.665,2.941-1.527,4.784c0.17,2.281,1.32,4.503,3.076,5.944 c0.34,0.28,0.698,0.538,1.074,0.775c-2.095,3.802-4.312,7.562-7.07,10.615c-0.489-0.344-0.972-0.7-1.445-1.05 c-1.268-0.936-2.579-1.903-4.035-2.658c-3.042-1.576-6.24-1.746-8.557-0.454c-1.877,1.048-3.056,3.206-3.077,5.634 c-0.021,2.427,1.12,4.605,2.978,5.686c1.148,0.668,2.36,0.934,3.562,0.934c2.928,0,5.798-1.576,7.537-2.757 c1.197-0.813,2.301-1.736,3.329-2.745c5.133,3.101,14.467,4.076,19.501,0.729c2.275-1.511,6.013-6.326,6.81-11.863 c0.104-0.721,0.155-1.435,0.155-2.139C242.522,360.373,242.629,360.318,242.735,360.261z M295.994,349.5 c-4.414-1.881-9.457,0.91-12.152,4.646c-1.599,2.214-2.649,4.729-3.665,7.163c-0.61,1.461-1.241,2.972-1.976,4.37 c-1.106,2.104-2.236,3.377-3.558,4.007c-1.844,0.879-4.252,0.383-5.598-1.158c-0.549-0.628-0.901-1.408-1.052-2.228 c1.116-0.02,2.394-0.173,3.473-0.894c0.894-0.597,1.52-1.684,1.593-2.768c0.062-0.9-0.248-1.701-0.872-2.254 c-0.59-0.523-1.363-0.753-2.206-0.641c-1.137,0.152-2.317,0.932-3.006,1.986c-0.67,1.025-0.996,2.237-1.028,3.46 c-0.44,2.69-1.144,5.346-2.106,7.898c-0.31,0.82-0.814,1.807-1.464,1.85c-0.678,0.038-1.285-0.993-1.554-1.979 c-0.817-3.003-0.661-6.068,0.033-9.264c0.938-1.827,1.653-3.763,2.168-5.748c4.737-1.022,9.365-2.579,13.702-4.667 c0.498-0.24,0.707-0.838,0.468-1.335c-0.24-0.498-0.837-0.706-1.335-0.468c-3.926,1.89-8.097,3.331-12.37,4.321 c0.062-0.357,0.143-0.712,0.191-1.071c0.067-0.504-0.255-0.979-0.749-1.102c-0.493-0.124-1.001,0.145-1.179,0.619 c-0.263,0.703-0.518,1.396-0.765,2.085c-2.91,0.545-5.856,0.881-8.797,0.984c-0.552,0.019-0.983,0.481-0.964,1.034 c0.019,0.54,0.463,0.965,0.999,0.965c0.012,0,0.024,0,0.036-0.001c2.668-0.093,5.337-0.386,7.985-0.832 c-0.509,1.538-0.955,3.05-1.291,4.54c-0.961,1.824-2.139,3.533-3.505,5.065c-0.627,0.705-1.509,1.269-1.906,1.001 c-0.162-0.112-0.301-0.392-0.413-0.829c-0.319-1.257-0.249-2.62,0.198-3.838c0.038-0.103,0.058-0.208,0.062-0.312 c0.361-0.009,0.706-0.214,0.875-0.562c0.242-0.497,0.036-1.096-0.46-1.337c-1.928-0.941-4.262-0.832-6.093,0.281 c-1.832,1.111-3.004,3.133-3.06,5.275c-0.032,1.2,0.376,2.141,1.148,2.649c1.124,0.738,2.607,0.377,3.969-0.97 c0.451-0.447,0.877-0.916,1.276-1.405c0.039,0.239,0.088,0.476,0.147,0.71c0.152,0.596,0.443,1.449,1.216,1.982 c1.285,0.886,3.022,0.381,4.534-1.317c0.469-0.525,0.917-1.07,1.344-1.632c-0.081,1.91,0.092,3.804,0.608,5.7 c0.461,1.693,1.598,3.455,3.424,3.455c0.063,0,0.128-0.002,0.192-0.006c1.374-0.092,2.451-1.148,3.202-3.141 c0.556-1.474,1.025-2.984,1.417-4.513c0.132,0.191,0.257,0.388,0.41,0.563c1.277,1.461,3.227,2.263,5.162,2.263 c0.966,0,1.929-0.199,2.803-0.616c2.272-1.083,3.638-3.304,4.467-4.881c0.775-1.478,1.424-3.029,2.05-4.53 c1.018-2.436,1.978-4.735,3.441-6.764c2.231-3.09,6.294-5.449,9.746-3.976c0.94,0.4,1.803,1.083,2.495,1.972 c1.357,1.747,1.873,4.167,1.346,6.315c-0.528,2.149-2.107,4.055-4.119,4.973c-0.503,0.229-0.724,0.823-0.495,1.325 s0.821,0.721,1.325,0.495c2.595-1.185,4.55-3.545,5.23-6.315s0.042-5.769-1.709-8.021 C298.383,350.928,297.246,350.034,295.994,349.5z M258.494,336.711c0.521-1.341,1.125-2.656,1.727-3.942 c0.234-0.5,0.019-1.096-0.481-1.329c-0.499-0.236-1.096-0.019-1.329,0.481c-0.762,1.626-1.538,3.297-2.15,5.047 c-1.165,0.114-2.333,0.198-3.499,0.242c-0.552,0.021-0.982,0.484-0.961,1.037c0.021,0.539,0.464,0.962,0.999,0.962 c0.013,0,0.025,0,0.039-0.001c0.934-0.035,1.87-0.1,2.804-0.179c-0.618,2.495-0.685,4.81-0.18,6.881 c0.439,1.808,1.372,2.427,2.077,2.628c0.216,0.062,0.434,0.092,0.651,0.092c1.082,0,2.152-0.751,2.959-2.111 c0.129-0.217,0.232-0.449,0.35-0.673c0.172,1.208,0.377,2.411,0.629,3.602c0.022,0.115,0.047,0.23,0.074,0.346 c0.106,0.461,0.518,0.773,0.973,0.773c0.072,0,0.146-0.008,0.221-0.024c0.536-0.12,0.874-0.651,0.758-1.188 c-0.022-0.103-0.045-0.205-0.066-0.308c-0.41-2.099-0.024-4.323,1.073-6.16c0.022,0.043,0.04,0.089,0.046,0.131 c0.028,0.204,0.015,0.453,0,0.718c-0.025,0.458-0.054,0.978,0.108,1.527c0.244,0.825,0.859,1.466,1.73,1.804 c0.937,0.361,2.02,0.318,2.912-0.102c0.064,0.059,0.131,0.115,0.199,0.17c1.444,1.158,3.678,1.176,5.31,0.042 c1.378-0.957,2.28-2.649,2.412-4.526c0.138-1.938-0.614-3.698-1.964-4.592c-0.461-0.306-1.081-0.18-1.386,0.282 c-0.305,0.46-0.179,1.081,0.282,1.386c0.896,0.593,1.138,1.87,1.073,2.783c-0.091,1.279-0.673,2.409-1.56,3.024 c-0.856,0.598-2.029,0.646-2.796,0.129c0.687-0.874,1.088-1.929,1.375-2.841c0.685-2.185-0.152-3.152-0.711-3.535 c-1.112-0.761-2.589-0.223-3.271,0.762c-0.603,0.87-0.643,1.896-0.61,2.692c0.038,0.95,0.206,1.795,0.496,2.517 c-0.341,0.081-0.724,0.066-1.04-0.057c-0.198-0.077-0.451-0.227-0.534-0.506c-0.064-0.218-0.048-0.511-0.029-0.851 c0.018-0.331,0.039-0.707-0.017-1.104c-0.108-0.772-0.634-1.51-1.309-1.834c-0.535-0.259-1.129-0.238-1.619,0.052 c-0.365,0.215-0.582,0.517-0.762,0.812c-0.133,0.218-0.257,0.439-0.373,0.665c-0.035-0.43-0.065-0.859-0.09-1.289 c-0.001-0.031-0.003-0.062-0.005-0.092c0.773-0.736,1.434-1.577,1.966-2.508c0.676-1.181,0.584-2.346-0.234-2.969 c-0.413-0.315-0.925-0.418-1.442-0.292c-0.831,0.204-1.435,0.93-1.698,1.489c-0.055,0.116-0.087,0.236-0.133,0.353 c-0.142-0.478-0.607-0.793-1.111-0.707C259.751,336.529,259.124,336.625,258.494,336.711z M259.007,325.614 c-0.172,0.415-0.361,0.834-0.619,1.001c-0.039,0.024-0.103,0.044-0.152,0.032c-0.076-0.128-0.182-0.226-0.3-0.307 c-0.392-0.501-0.574-1.221-0.751-2.11l-1.305-6.532c-0.089-0.448-0.47-0.778-0.926-0.803c-0.475-0.042-0.87,0.263-1.008,0.696 l-5.041,15.929c-0.176,0.559-0.359,1.135-0.681,1.521c-0.224,0.27-0.564,0.429-0.772,0.369c-0.353-0.104-0.581-0.81-0.594-1.839 c-0.054-4.128,0.323-8.275,1.121-12.326c0.099-0.503-0.198-0.999-0.688-1.149c-0.49-0.153-1.014,0.094-1.214,0.565 c-0.016,0.037-0.032,0.075-0.047,0.113c-0.863-0.73-2.128-1.002-3.345-0.69c-0.299,0.077-0.592,0.195-0.882,0.336 c-2.377-0.908-6.847-1.631-11.962-1.67c-1.176-1.609-2.649-2.937-4.079-4.225c-0.805-0.726-1.638-1.476-2.387-2.253 c-1.177-1.221-3.831-4.414-3.047-7.679c0.323-1.346,1.317-2.53,2.726-3.249c1.468-0.75,3.158-0.864,4.519-0.301 c2.824,1.165,4.302,4.882,3.102,7.798c-0.21,0.511,0.034,1.096,0.544,1.306c0.513,0.21,1.095-0.034,1.305-0.544 c1.598-3.884-0.398-8.845-4.189-10.409c-1.893-0.779-4.207-0.643-6.191,0.369c-1.931,0.985-3.302,2.648-3.761,4.563 c-0.979,4.074,1.805,7.722,3.551,9.534c0.798,0.827,1.658,1.602,2.489,2.351c1.023,0.922,2.009,1.81,2.873,2.774 c-9.112,0.338-19.389,2.943-23.253,10.359c-1.752,3.363,0.383,7.525,3.367,9.453c2.08,1.343,4.661,1.985,8.034,1.985 c0.548,0,1.117-0.017,1.708-0.051c3.259-0.186,5.751-0.758,7.843-1.799c3.255-1.621,5.714-4.765,6.747-8.623 c0.867-3.238,0.612-6.541-0.681-9.31c3.534,0.082,6.66,0.503,8.816,1.097c-0.021,0.023-0.043,0.04-0.064,0.063 c-1.523,1.69-2.265,4.311-0.738,6.047c1.112,1.264,3.181,1.519,4.812,0.591c0.424-0.241,0.817-0.55,1.177-0.925 c-0.164,1.971-0.233,3.948-0.208,5.923c0.035,2.599,1.122,3.463,2.027,3.73c0.218,0.064,0.442,0.096,0.668,0.096 c0.803,0,1.62-0.396,2.208-1.103c0.574-0.688,0.838-1.525,1.051-2.198l3.867-12.223l0.544,2.721 c0.192,0.966,0.456,2.288,1.373,3.247c0.028,0.029,0.065,0.041,0.095,0.066c0.232,0.292,0.552,0.51,0.938,0.624 c0.616,0.184,1.305,0.083,1.842-0.264c0.741-0.479,1.103-1.24,1.383-1.917c0.673-1.626,1.231-3.296,1.673-4.996 c0.213,0.514,0.473,1.013,0.795,1.482c-1.209,2.887-1.423,6.234,0.428,8.926c0.995,1.446,2.442,2.306,3.88,2.306 c0.015,0,0.028,0,0.042,0c2.352-0.028,4.401-1.607,6.452-4.968l0.447-0.735c2.707-4.466,6.41-10.574,11.623-10.574 c0.023,0,0.047,0,0.07,0c2.889,0.03,4.855,0.936,5.847,2.688c1.219,2.158,0.66,5.081-0.103,6.377 c-0.279,0.477-0.12,1.089,0.355,1.369c0.478,0.28,1.089,0.12,1.369-0.355c0.956-1.627,1.834-5.339,0.119-8.374 c-0.94-1.664-3.016-3.656-7.566-3.705c-0.032,0-0.063,0-0.096,0c-6.335,0-10.376,6.664-13.329,11.537l-0.444,0.731 c-1.657,2.716-3.173,3.989-4.769,4.009c-0.007,0-0.013,0-0.02,0c-0.915,0-1.751-0.741-2.23-1.438 c-1.246-1.813-1.211-4.12-0.515-6.233c1.597,1.103,3.725,1.492,5.411,0.423c0.941-0.595,1.682-1.606,2.142-2.927 c0.387-1.107,0.414-2.039,0.083-2.847c-0.679-1.655-2.713-2.203-4.209-1.763c-1.512,0.445-2.568,1.65-3.232,2.518 c-0.225,0.295-0.441,0.604-0.646,0.924c-0.62-1.412-0.797-3.077-0.956-4.583c-0.053-0.506-0.478-0.891-0.986-0.895 c-0.491,0.026-0.939,0.374-1,0.879C261.093,319.406,260.258,322.589,259.007,325.614z M270.422,343.684 c0.243-0.477,0.425-0.991,0.572-1.459c0.234-0.748,0.179-1.21,0.067-1.286c-0.01-0.006-0.025-0.01-0.047-0.01 c-0.104,0-0.324,0.077-0.45,0.26c-0.268,0.387-0.274,1.026-0.257,1.473C270.32,342.979,270.354,343.33,270.422,343.684z M257.692,339.063c-0.647,2.355-0.745,4.5-0.288,6.376c0.158,0.651,0.42,1.103,0.683,1.177c0.34,0.105,0.901-0.373,1.341-1.115 c0.768-1.295,1.286-2.743,1.548-4.23c-0.188-0.328-0.183-0.73,0.022-1.04c-0.008-0.678,0.041-1.381,0.184-2.076 c-0.133,0.114-0.285,0.207-0.471,0.238c-0.972,0.166-1.954,0.301-2.939,0.419C257.748,338.896,257.716,338.978,257.692,339.063z M271.064,362.503c0.019-0.276-0.05-0.485-0.204-0.622c-0.084-0.074-0.218-0.165-0.462-0.165c-0.046,0-0.097,0.004-0.151,0.011 c-0.559,0.075-1.23,0.537-1.598,1.098c-0.294,0.45-0.499,0.95-0.617,1.472c0.911-0.022,1.709-0.143,2.324-0.553 C270.74,363.487,271.032,362.976,271.064,362.503z M258.371,241.623h119.829v31.986v162.653H120.646v-61.83V271.477H80.238 c-4.177,0-7.954,2.321-9.855,6.057l-0.074,0.123L2.041,374.432l-0.407,0.576L0,373.856l0.817-1.159l67.816-96.135 c0.925-1.792,2.221-3.3,3.761-4.462L0.817,181.393l-0.774-0.981l0.774-0.611l0.011-0.008l0.786-0.62l21.28,26.968l4.885,6.191 c1.296-4.963,3.192-9.657,5.946-13.509c1.208-1.69,2.629-3.237,4.212-4.627c-4.528-9.16-4.766-19.38-1.441-28.313l8.922-13.485 c2.321-2.195,4.969-4.117,7.934-5.671c3.123-1.637,6.414-2.778,9.78-3.433c0.024-0.004,0.048-0.012,0.072-0.014 c5.011-0.965,10.189-0.844,15.241,0.403c-5.428-13.063,0.489-33.516,1.458-36.663l-0.967-2.053l2.351,0.932 c0.775,0.307,18.819,7.558,27.382,18.902c2.941-0.45,5.872-0.414,8.736,0.082c1.483-2.232,3.284-4.19,5.392-5.799 c13.569-10.356,40.063-8.408,43.773-8.078l1.823-1.389l-0.418,2.493c-0.202,1.202-5.105,29.57-19.405,40.484 c-2.763,2.108-5.913,3.561-9.365,4.34c-1.105,5.401-3.762,10.155-7.478,13.812c-0.09,0.126-0.196,0.226-0.321,0.293 c-4.879,4.65-11.464,7.465-18.635,7.465c-2.421,0-4.815-0.343-7.145-0.982c0.09,3.991-0.496,7.951-1.7,11.717 c-0.016,0.165-0.061,0.314-0.14,0.443c-1.099,3.291-2.68,6.422-4.702,9.287c0.43,0.774,0.829,1.566,1.167,2.372 c6.596,15.741-1.974,40.88-3.232,44.393l0.893,2.119l-2.316-1.038c-0.149-0.067-14.727-6.667-25.163-16.606 c-4.977,5.244-11.881,9.346-18.717,12.453l22.373,28.353c1.855-0.992,3.956-1.538,6.152-1.538h30.04 c0.429-10.503,2.386-22.943,8.407-31.365c1.208-1.69,2.63-3.237,4.212-4.627c-8.566-17.33-1.765-38.464,15.414-47.469 c3.125-1.638,6.417-2.779,9.784-3.435c0.022-0.004,0.043-0.01,0.064-0.012c5.012-0.966,10.191-0.845,15.243,0.403 c-5.428-13.063,0.489-33.515,1.458-36.662l-0.967-2.053l2.351,0.932c0.775,0.307,18.82,7.558,27.383,18.902 c2.947-0.451,5.872-0.415,8.736,0.082c1.483-2.232,3.283-4.189,5.392-5.799c2.152-1.643,4.631-2.974,7.291-4.053l1.137,1.718 c-2.655,1.038-5.115,2.322-7.215,3.925c-1.724,1.315-3.236,2.876-4.507,4.652c0.151,0.039,0.296,0.093,0.446,0.135 c0.167,0.046,0.338,0.082,0.504,0.131c0.108,0.018,0.204,0.048,0.287,0.098c0.089,0.028,0.175,0.062,0.264,0.09 c0.386,0.124,0.771,0.252,1.149,0.392c0.343,0.127,0.68,0.263,1.016,0.404c0.369,0.154,0.735,0.315,1.095,0.484 c0.329,0.155,0.652,0.317,0.973,0.484c0.351,0.183,0.697,0.373,1.038,0.571c0.313,0.181,0.621,0.367,0.925,0.56 c0.332,0.211,0.658,0.429,0.979,0.654c0.295,0.206,0.586,0.414,0.871,0.631c0.312,0.237,0.617,0.483,0.918,0.733 c0.275,0.228,0.547,0.457,0.813,0.696c0.292,0.262,0.574,0.534,0.853,0.808c0.253,0.249,0.506,0.497,0.749,0.755 c0.27,0.286,0.528,0.582,0.785,0.879c0.231,0.267,0.463,0.533,0.683,0.809c0.222,0.277,0.432,0.563,0.642,0.849l6.067-4.631 l1.106,1.672l-6.042,4.612c0.065,0.104,0.125,0.21,0.189,0.315c0.181,0.297,0.366,0.59,0.536,0.894 c0.198,0.354,0.377,0.718,0.558,1.081c0.154,0.307,0.314,0.611,0.457,0.925c0.171,0.376,0.321,0.763,0.475,1.148 c0.126,0.314,0.26,0.624,0.374,0.943c0.144,0.403,0.263,0.816,0.388,1.227c0.095,0.314,0.202,0.624,0.286,0.942 c0.116,0.438,0.203,0.885,0.297,1.33c0.064,0.303,0.141,0.601,0.195,0.907c0.088,0.502,0.144,1.014,0.203,1.524 c0.03,0.257,0.076,0.51,0.099,0.77c0.067,0.774,0.104,1.555,0.104,2.344c0,0.702-0.039,1.412-0.096,2.123 c-0.015,0.189-0.034,0.377-0.053,0.567c-0.021,0.205-0.032,0.409-0.057,0.614c2.854-0.752,5.465-2.023,7.778-3.79 c1.421-1.085,2.744-2.37,3.981-3.793v2.941c-0.882,0.883-1.801,1.705-2.767,2.442c-2.762,2.108-5.912,3.561-9.365,4.34 c-1.105,5.4-3.763,10.155-7.478,13.811c-0.091,0.127-0.197,0.228-0.323,0.294c-4.879,4.649-11.463,7.464-18.633,7.464 c-2.422,0-4.816-0.343-7.145-0.982c0.09,3.99-0.496,7.95-1.7,11.716c-0.016,0.166-0.061,0.316-0.141,0.445 c-1.099,3.291-2.68,6.422-4.701,9.286c0.429,0.773,0.829,1.564,1.167,2.371c0.136,0.325,0.256,0.661,0.38,0.994h22.718 l27.987-35.468l21.291-26.982l0.784,0.619l0.101,0.08l0.685,0.541l-0.786,0.996l-47.516,60.215H258.371z M94.058,243.85 L80.86,212.351c-0.1,0.032-0.199,0.067-0.299,0.098c-0.088,0.027-0.176,0.05-0.264,0.077c-0.531,0.161-1.065,0.309-1.601,0.446 c-0.184,0.047-0.368,0.091-0.552,0.135c-0.492,0.117-0.986,0.222-1.481,0.317c-0.144,0.028-0.287,0.059-0.431,0.085 c-0.627,0.112-1.257,0.208-1.889,0.287c-0.138,0.017-0.276,0.029-0.414,0.044c-0.507,0.057-1.015,0.103-1.524,0.138 c-0.189,0.013-0.378,0.025-0.568,0.035c-0.538,0.028-1.077,0.045-1.617,0.049c-0.083,0.001-0.167,0.008-0.25,0.008 c-0.021,0-0.042-0.002-0.062-0.002c-0.703-0.001-1.407-0.028-2.11-0.071c-0.167-0.01-0.333-0.023-0.499-0.036 c-0.661-0.05-1.321-0.114-1.98-0.201c-0.057-0.008-0.115-0.012-0.173-0.02c-0.705-0.096-1.407-0.22-2.109-0.359 c-0.167-0.033-0.334-0.068-0.501-0.104c-0.194-0.041-0.388-0.076-0.582-0.12c0.011,0.051,0.025,0.101,0.036,0.151 c0.117,0.535,0.257,1.062,0.413,1.584c0.046,0.153,0.093,0.306,0.142,0.458c0.186,0.574,0.386,1.143,0.618,1.697 c1.514,3.614,4.184,7.324,7.936,11.028C78.892,235.767,89.431,241.522,94.058,243.85z M98.403,202.113 c-0.195-0.465-0.408-0.928-0.637-1.383c-0.053,0.066-0.11,0.128-0.164,0.194c-0.17,0.209-0.347,0.412-0.521,0.617 c-0.245,0.288-0.492,0.575-0.745,0.854c-0.187,0.206-0.379,0.408-0.571,0.609c-0.253,0.266-0.51,0.53-0.771,0.788 c-0.2,0.197-0.402,0.392-0.607,0.584c-0.267,0.251-0.538,0.497-0.812,0.74c-0.208,0.184-0.418,0.367-0.63,0.546 c-0.285,0.24-0.576,0.474-0.869,0.705c-0.213,0.168-0.424,0.336-0.641,0.499c-0.312,0.235-0.631,0.46-0.951,0.685 c-0.208,0.146-0.413,0.295-0.625,0.437c-0.362,0.243-0.733,0.474-1.105,0.704c-0.18,0.111-0.355,0.228-0.538,0.336 c-0.56,0.333-1.129,0.653-1.71,0.958c-0.579,0.304-1.167,0.585-1.758,0.855c-0.17,0.078-0.342,0.152-0.513,0.227 c-0.454,0.199-0.91,0.387-1.37,0.566c-0.039,0.015-0.078,0.033-0.117,0.048l13.094,31.251 C98.113,235.852,103.871,215.162,98.403,202.113z M62.398,195.692c6.255-2.318,11.53-6.43,15.948-11.423 c-9.462,2.336-21.587,2.546-28.918-4.192c0.372,4.54,1.324,9.067,2.536,13.481C55.373,194.948,58.866,195.602,62.398,195.692z M49.264,177.011c1.219,1.446,2.631,2.621,4.188,3.559c2.126-8.113,6.895-15.197,13.538-20.248 c-4.502-1.133-9.143-1.624-13.688-1.379c-0.778,1.5-1.473,3.043-2.034,4.648C49.731,167.988,49.172,172.495,49.264,177.011z M63.683,145.218c-2.995,1.875-5.184,5.332-7.091,8.207c-0.758,1.142-1.489,2.302-2.177,3.486c4.97-0.142,10.02,0.549,14.882,1.971 c0.137,0.005,0.267,0.043,0.382,0.11c6.883,2.072,13.352,5.605,18.622,10.294c0.403-0.792,0.793-1.583,1.169-2.374 c-0.627-0.819-1.259-1.635-1.905-2.439c-5.802-7.229-12.329-13.838-19.43-19.791C66.641,144.761,65.155,144.939,63.683,145.218z M87.35,171.114c-3.476-3.174-7.518-5.803-11.877-7.801c1.29,6.793,1.138,13.546-1.776,19.865c2.433-0.391,4.77-0.953,6.895-1.606 C83.159,178.289,85.403,174.732,87.35,171.114z M69.442,161.004c-4.002,2.761-7.339,6.279-9.86,10.325c0,0,0,0,0.001,0.001 c0.755,1.313,1.849,2.492,3.131,3.541c2.551-4.181,6.555-7.484,11.127-9.227c-0.161-1.095-0.361-2.192-0.601-3.287 C71.991,161.856,70.726,161.399,69.442,161.004z M74.093,167.684c-4.032,1.634-7.524,4.651-9.762,8.376 c2.657,1.763,5.803,3.046,8.546,3.806C74.205,175.926,74.49,171.825,74.093,167.684z M55.264,181.529 c4.769,2.205,10.545,2.572,16.047,1.97c0.307-0.582,0.586-1.168,0.841-1.759c-4.878-1.379-10.731-4.269-13.693-8.461 C57.068,175.864,55.988,178.629,55.264,181.529z M67.755,195.424c1.682-0.204,3.367-0.509,5.05-0.905 c9.716-2.287,18.392-7.458,25.872-13.953c-0.874-1.538-1.831-3.036-2.785-4.517c-1.61-2.502-3.309-4.946-5.078-7.339 C85.681,179.267,78.187,189.728,67.755,195.424z M102.957,185.034c0.539-2.661,0.765-5.391,0.648-8.131 c-0.239-0.086-0.466-0.191-0.701-0.283c-0.326-0.128-0.653-0.254-0.972-0.393c-0.334-0.146-0.659-0.305-0.985-0.463 c-0.31-0.15-0.62-0.298-0.922-0.46c-0.32-0.171-0.629-0.354-0.941-0.537c-0.292-0.172-0.587-0.34-0.871-0.522 c-0.305-0.195-0.599-0.403-0.895-0.609c-0.274-0.191-0.55-0.378-0.816-0.578c-0.132-0.099-0.263-0.199-0.392-0.301 c0.747,1.112,1.483,2.232,2.197,3.365C100.101,178.966,101.854,181.878,102.957,185.034z M112.768,176.504 c6.663,0,12.779-2.623,17.302-6.954c0.492-1.556,0.708-3.141,0.758-4.741c-9.068,2.023-18.645,2.021-27.33-1.621 c-0.812-0.34-1.602-0.743-2.378-1.175c-0.122-0.043-0.228-0.1-0.319-0.176c-5.916-3.412-10.615-9.37-12.375-16.022 c-0.188,0.802-0.351,1.613-0.458,2.441c-0.143,1.108-0.215,2.196-0.215,3.234c0,1.35,0.108,2.68,0.316,3.98 c0.091,0.569,0.201,1.133,0.331,1.69c1.936,8.357,8.079,15.278,16.484,18.068C107.432,176.075,110.085,176.504,112.768,176.504z M120.083,127.577c-2.893,0.265-5.799,2.033-8.261,3.441c-0.463,0.265-0.911,0.547-1.362,0.827c3.176,1.612,6.118,3.73,8.72,6.223 c0.184,0.071,0.309,0.21,0.393,0.377c3.756,3.701,6.759,8.184,8.663,13.03c0.409-0.292,0.811-0.588,1.211-0.886 c-0.13-0.747-0.263-1.493-0.41-2.237c-1.325-6.721-3.333-13.275-5.92-19.615C122.138,128.291,121.129,127.896,120.083,127.577z M129.803,152.796c-6.712,4.881-14.75,8.945-23.107,9.458c7.822,2.6,16.167,2.352,24.12,0.508c-0.044-1.192-0.139-2.387-0.243-3.58 C130.387,157.045,130.124,154.916,129.803,152.796z M111.86,155.089c0.281-0.198,0.548-0.407,0.814-0.617 c-2.648-2.574-5.249-6.228-5.916-9.892c-1.619,1.131-3.127,2.437-4.486,3.924C104.617,151.475,108.154,153.62,111.86,155.089z M118.381,140.072c-3.499,0.45-6.795,1.598-9.772,3.328c0.064,0.962,0.315,1.94,0.702,2.906c3.099-1.78,6.739-2.513,10.29-2.155 c0.234-0.676,0.449-1.362,0.645-2.061C119.648,141.396,119.03,140.719,118.381,140.072z M118.869,146.063 c-3.006-0.218-6.079,0.534-8.679,2.045c1.081,1.899,2.562,3.661,3.989,5.038C116.235,151.123,117.747,148.718,118.869,146.063z M114.097,155.891c1.554,0.501,3.097,0.89,4.563,1.175c2.751-1.24,5.393-2.759,7.885-4.426c-1.15-3.087-2.773-6.019-4.78-8.681 c-1.385,4.332-3.509,8.187-6.836,11.204c-0.007,0.007-0.014,0.013-0.021,0.02C114.644,155.422,114.378,155.662,114.097,155.891z M104.363,136.706c-1.877,2.011-3.366,4.27-4.576,6.677c0.284,1.232,0.746,2.369,1.351,3.421c4.153-4.422,9.486-7.311,15.396-8.439 c-2.429-2.11-5.124-3.893-7.996-5.244C107.044,134.182,105.631,135.349,104.363,136.706z M95.835,155.215 c1.795,1.948,3.888,3.621,6.167,4.935c4.59,0.491,9.108-0.257,13.413-1.782c-1.197-0.321-2.41-0.708-3.615-1.162 c-0.041-0.012-0.079-0.029-0.117-0.047c-5.594-2.126-10.924-5.716-13.122-11.051C97.372,149.041,96.517,152.127,95.835,155.215z M137.782,151.49c0-8.885-4.718-16.884-11.959-21.332c2.438,6.312,4.297,12.829,5.487,19.498c0.93,5.207,2.163,11.305,1.476,16.82 c2.271-3.034,3.89-6.609,4.596-10.553C137.647,154.442,137.782,152.95,137.782,151.49z M165.49,114.344l-29.868,22.798 c0.065,0.104,0.125,0.21,0.189,0.315c0.181,0.297,0.366,0.59,0.536,0.894c0.198,0.354,0.376,0.718,0.558,1.081 c0.154,0.307,0.314,0.611,0.457,0.925c0.171,0.377,0.321,0.763,0.475,1.148c0.126,0.314,0.26,0.624,0.374,0.943 c0.144,0.403,0.263,0.816,0.388,1.227c0.095,0.314,0.202,0.624,0.286,0.942c0.116,0.438,0.203,0.884,0.297,1.33 c0.064,0.303,0.141,0.601,0.195,0.907c0.088,0.502,0.144,1.014,0.203,1.524c0.03,0.257,0.076,0.51,0.099,0.77 c0.067,0.774,0.104,1.555,0.104,2.344c0,0.703-0.039,1.413-0.096,2.124c-0.015,0.189-0.034,0.377-0.053,0.566 c-0.021,0.205-0.032,0.409-0.057,0.614c2.853-0.752,5.464-2.023,7.779-3.79C158.599,142.421,163.926,121.617,165.49,114.344z M119.501,125.325c0.151,0.039,0.296,0.093,0.446,0.135c0.167,0.046,0.338,0.082,0.503,0.131c0.108,0.018,0.205,0.048,0.288,0.098 c0.089,0.028,0.175,0.062,0.264,0.09c0.387,0.124,0.77,0.252,1.149,0.392c0.343,0.127,0.68,0.263,1.016,0.404 c0.369,0.154,0.735,0.314,1.095,0.484c0.329,0.155,0.652,0.317,0.973,0.484c0.351,0.183,0.697,0.373,1.038,0.571 c0.313,0.181,0.621,0.367,0.925,0.56c0.332,0.211,0.657,0.429,0.979,0.654c0.295,0.206,0.586,0.414,0.871,0.631 c0.312,0.237,0.616,0.483,0.918,0.733c0.275,0.228,0.547,0.457,0.813,0.696c0.292,0.262,0.574,0.534,0.853,0.808 c0.253,0.249,0.506,0.497,0.749,0.755c0.27,0.286,0.528,0.582,0.785,0.879c0.231,0.267,0.463,0.533,0.683,0.809 c0.222,0.277,0.432,0.563,0.642,0.849l29.661-22.64c-7.424-0.409-28.897-0.76-40.145,7.825 C122.284,121.989,120.772,123.55,119.501,125.325z M108.402,126.864c-8.419,1.482-15.419,7.302-18.671,14.971 c0.328,4.206,1.992,8.134,4.497,11.459c1.634-6.8,4.233-13.453,9.219-18.521c2.398-2.438,5.238-4.319,8.221-5.96 c1.343-0.739,2.77-1.516,4.249-2.13c-1.047-0.132-2.1-0.207-3.15-0.207C111.332,126.476,109.863,126.606,108.402,126.864z M82.953,108.804l10.988,23.29c0.226-0.22,0.448-0.444,0.682-0.655c0.19-0.172,0.39-0.331,0.585-0.497 c0.317-0.27,0.634-0.54,0.963-0.796c0.221-0.171,0.451-0.332,0.678-0.496c0.32-0.232,0.64-0.463,0.97-0.681 c0.242-0.16,0.49-0.31,0.737-0.463c0.331-0.204,0.665-0.404,1.006-0.594c0.257-0.143,0.518-0.279,0.781-0.414 c0.346-0.178,0.696-0.349,1.051-0.513c0.27-0.124,0.541-0.244,0.815-0.36c0.364-0.153,0.732-0.296,1.104-0.434 c0.277-0.103,0.555-0.205,0.836-0.298c0.386-0.128,0.777-0.243,1.171-0.355c0.279-0.079,0.557-0.161,0.84-0.232 c0.102-0.026,0.201-0.06,0.304-0.084C99.886,117.106,88.025,111.116,82.953,108.804z M80.659,143.768 c0.102,0.215,0.208,0.424,0.317,0.63c0.103,0.034,0.204,0.079,0.307,0.114c0.677,0.227,1.348,0.477,2.014,0.747 c0.165,0.067,0.331,0.13,0.495,0.199c0.762,0.322,1.515,0.671,2.258,1.048c0.051,0.026,0.105,0.046,0.156,0.072 c0.025-0.137,0.062-0.269,0.089-0.405c0.059-0.296,0.126-0.588,0.194-0.88c0.091-0.39,0.187-0.776,0.294-1.159 c0.082-0.292,0.168-0.58,0.259-0.867c0.118-0.374,0.244-0.743,0.378-1.109c0.103-0.282,0.208-0.563,0.319-0.841 c0.146-0.362,0.303-0.719,0.464-1.073c0.122-0.268,0.241-0.535,0.371-0.798c0.176-0.356,0.365-0.703,0.556-1.049 c0.137-0.248,0.268-0.498,0.412-0.741c0.212-0.357,0.439-0.703,0.667-1.05c0.143-0.217,0.278-0.44,0.427-0.652 c0.279-0.398,0.575-0.781,0.875-1.163c0.115-0.147,0.222-0.301,0.34-0.446c0.196-0.239,0.407-0.464,0.61-0.696L81.2,109.776 C79.491,116.17,75.697,133.252,80.659,143.768z M71.199,144.68c5.934,5.126,11.448,10.716,16.451,16.752 c-0.098-0.248-0.182-0.502-0.273-0.753c-0.103-0.286-0.217-0.568-0.311-0.858c-0.122-0.379-0.221-0.766-0.327-1.151 c-0.079-0.287-0.169-0.569-0.239-0.859c-0.097-0.407-0.169-0.822-0.248-1.234c-0.053-0.277-0.119-0.549-0.163-0.829 c-0.073-0.459-0.117-0.926-0.166-1.391c-0.025-0.24-0.065-0.477-0.084-0.719c-0.056-0.71-0.085-1.426-0.085-2.148 c0-0.515,0.021-1.042,0.053-1.576c0.01-0.17,0.027-0.342,0.041-0.514c0.019-0.236,0.032-0.47,0.057-0.709 c-0.194-0.104-0.387-0.208-0.583-0.309c-0.207-0.106-0.413-0.214-0.621-0.316c-0.314-0.153-0.631-0.298-0.949-0.441 c-0.2-0.09-0.4-0.184-0.602-0.271c-0.35-0.15-0.704-0.288-1.058-0.426c-0.172-0.067-0.342-0.139-0.514-0.203 c-0.527-0.195-1.058-0.378-1.591-0.545C77.097,145.279,74.146,144.796,71.199,144.68z M36.349,181.264 c0.013,0.018,0.03,0.026,0.043,0.045c3.036,4.88,8.031,8.66,13.22,11.195c-2.566-9.947-3.674-20.447,0.03-30.276 c1.47-3.9,3.609-7.49,5.968-10.912c1.138-1.651,2.358-3.415,3.762-4.969c-1.735,0.576-3.44,1.286-5.091,2.152 C41.904,154.984,35.231,168.138,36.349,181.264z M40.043,193.95l0.015,0.03c4.114,7.849,10.891,13.594,19.217,16.351 c0.555,0.184,1.117,0.354,1.686,0.511c8.277,2.288,17.019,1.353,24.615-2.629c4.595-2.408,8.472-5.74,11.523-9.902 c2.095-2.857,3.705-6.014,4.807-9.338c-0.393-2.335-1.21-4.521-2.262-6.609c-8.215,7.039-17.836,12.557-28.571,14.56 c-2.808,0.524-5.569,0.793-8.293,0.755c-0.052,0.019-0.102,0.043-0.154,0.062c-0.324,0.116-0.592,0.058-0.798-0.088 c-3.784-0.155-7.495-0.932-11.159-2.478c-0.007-0.003-0.013-0.005-0.02-0.008c-0.249-0.105-0.498-0.206-0.747-0.319 c-4.769-2.158-9.46-5.356-12.93-9.429C37.595,188.324,38.605,191.193,40.043,193.95z M40.811,228.846l13.246-18.527 c-0.175-0.087-0.352-0.169-0.525-0.259c-0.383-0.199-0.759-0.409-1.135-0.622c-0.138-0.078-0.279-0.15-0.415-0.229 c-0.507-0.295-1.007-0.603-1.498-0.923c-0.134-0.087-0.263-0.182-0.396-0.271c-0.356-0.238-0.711-0.477-1.058-0.728 c-0.183-0.132-0.361-0.273-0.541-0.409c-0.289-0.217-0.578-0.433-0.86-0.658c-0.194-0.156-0.383-0.318-0.574-0.478 c-0.26-0.217-0.521-0.433-0.774-0.657c-0.195-0.172-0.384-0.35-0.575-0.526c-0.241-0.222-0.482-0.445-0.717-0.674 c-0.19-0.185-0.375-0.376-0.562-0.565c-0.226-0.23-0.451-0.461-0.671-0.697c-0.183-0.197-0.362-0.398-0.541-0.599 c-0.213-0.24-0.424-0.481-0.631-0.727c-0.174-0.207-0.344-0.416-0.514-0.627c-0.201-0.25-0.398-0.502-0.592-0.757 c-0.164-0.216-0.326-0.434-0.485-0.653c-0.188-0.26-0.372-0.523-0.554-0.788c-0.153-0.224-0.305-0.449-0.454-0.677 c-0.176-0.27-0.346-0.544-0.515-0.82c-0.142-0.231-0.283-0.462-0.42-0.697c-0.053-0.091-0.111-0.18-0.164-0.272 c-1.323,1.206-2.509,2.54-3.536,3.976c-2.861,4.001-4.753,9.039-5.984,14.359L40.811,228.846z M50.409,241.011 c6.828-3.052,13.748-7.079,18.601-12.197c-0.136-0.139-0.261-0.279-0.394-0.418c-0.205-0.214-0.408-0.428-0.606-0.643 c-0.24-0.259-0.472-0.519-0.701-0.778c-0.192-0.216-0.383-0.433-0.567-0.649c-0.22-0.259-0.432-0.517-0.642-0.776 c-0.176-0.216-0.353-0.432-0.521-0.649c-0.204-0.261-0.397-0.523-0.591-0.784c-0.158-0.213-0.319-0.426-0.47-0.639 c-0.189-0.267-0.366-0.533-0.544-0.8c-0.138-0.207-0.281-0.414-0.413-0.621c-0.177-0.277-0.339-0.554-0.504-0.831 c-0.116-0.196-0.239-0.391-0.349-0.587c-0.173-0.307-0.331-0.614-0.489-0.92c-0.085-0.164-0.178-0.328-0.258-0.492 c-0.231-0.47-0.447-0.939-0.643-1.407c-0.186-0.443-0.356-0.893-0.514-1.347c-0.051-0.147-0.094-0.297-0.143-0.445 c-0.101-0.31-0.201-0.621-0.289-0.936c-0.051-0.181-0.095-0.365-0.142-0.548c-0.073-0.287-0.145-0.574-0.208-0.864 c-0.043-0.197-0.08-0.396-0.118-0.595c-0.031-0.164-0.07-0.327-0.098-0.492c-0.213-0.063-0.422-0.138-0.634-0.205 c-0.248-0.078-0.496-0.155-0.741-0.239c-0.322-0.11-0.641-0.229-0.96-0.347c-0.238-0.089-0.477-0.175-0.713-0.269 c-0.287-0.114-0.57-0.237-0.854-0.359l-13.804,19.308L50.409,241.011z M181.354,241.623h2.094c-0.029-0.072-0.054-0.148-0.084-0.22 c-0.195-0.466-0.408-0.929-0.638-1.384c-0.053,0.067-0.111,0.129-0.164,0.195c-0.169,0.208-0.344,0.41-0.518,0.613 C181.817,241.095,181.589,241.363,181.354,241.623z M147.359,234.981c6.255-2.318,11.53-6.43,15.948-11.423 c-9.462,2.336-21.587,2.546-28.918-4.192c0.372,4.54,1.324,9.067,2.536,13.482C140.333,234.238,143.827,234.891,147.359,234.981z M134.225,216.3c1.219,1.446,2.631,2.621,4.188,3.559c2.126-8.113,6.895-15.197,13.538-20.248 c-4.502-1.133-9.142-1.624-13.688-1.379c-0.778,1.5-1.473,3.043-2.034,4.648C134.691,207.277,134.133,211.784,134.225,216.3z M148.643,184.508c-2.995,1.875-5.184,5.332-7.09,8.207c-0.758,1.142-1.489,2.302-2.177,3.486c4.97-0.142,10.02,0.549,14.882,1.971 c0.137,0.005,0.267,0.043,0.382,0.11c6.883,2.072,13.352,5.605,18.622,10.294c0.403-0.792,0.793-1.583,1.169-2.374 c-0.627-0.819-1.259-1.635-1.905-2.439c-5.802-7.229-12.329-13.838-19.431-19.791C151.602,184.05,150.115,184.228,148.643,184.508z M172.31,210.404c-3.476-3.174-7.518-5.803-11.877-7.801c1.29,6.793,1.138,13.546-1.776,19.865c2.433-0.391,4.77-0.953,6.895-1.606 C168.119,217.578,170.364,214.021,172.31,210.404z M154.402,200.293c-4.002,2.761-7.339,6.279-9.86,10.325c0,0,0,0,0.001,0.001 c0.755,1.313,1.849,2.492,3.131,3.541c2.551-4.181,6.555-7.484,11.127-9.227c-0.161-1.095-0.361-2.192-0.601-3.287 C156.952,201.146,155.687,200.688,154.402,200.293z M159.053,206.973c-4.032,1.634-7.524,4.651-9.762,8.376 c2.657,1.763,5.803,3.046,8.546,3.805C159.166,215.215,159.45,211.114,159.053,206.973z M140.225,220.818 c4.769,2.205,10.545,2.572,16.047,1.97c0.307-0.582,0.586-1.168,0.841-1.759c-4.878-1.379-10.731-4.269-13.693-8.461 C142.028,215.153,140.948,217.918,140.225,220.818z M152.715,234.713c1.682-0.204,3.367-0.509,5.05-0.905 c9.717-2.287,18.392-7.458,25.872-13.953c-0.874-1.538-1.831-3.036-2.785-4.517c-1.61-2.502-3.309-4.946-5.078-7.339 C170.641,218.556,163.148,229.017,152.715,234.713z M187.917,224.322c0.539-2.661,0.765-5.391,0.648-8.131 c-0.238-0.086-0.464-0.191-0.699-0.283c-0.327-0.128-0.655-0.254-0.975-0.394c-0.333-0.146-0.657-0.304-0.982-0.462 c-0.31-0.151-0.621-0.299-0.924-0.46c-0.319-0.17-0.628-0.354-0.939-0.536c-0.293-0.172-0.588-0.341-0.873-0.523 c-0.304-0.194-0.597-0.401-0.893-0.607c-0.275-0.191-0.552-0.379-0.818-0.58c-0.132-0.099-0.262-0.199-0.392-0.301 c0.747,1.112,1.483,2.232,2.197,3.365C185.062,218.255,186.815,221.167,187.917,224.322z M197.729,215.793 c6.663,0,12.779-2.623,17.301-6.954c0.492-1.556,0.708-3.141,0.758-4.741c-9.068,2.023-18.645,2.021-27.33-1.621 c-0.812-0.341-1.602-0.743-2.378-1.175c-0.121-0.043-0.228-0.1-0.318-0.176c-5.916-3.411-10.615-9.37-12.375-16.021 c-0.188,0.802-0.35,1.612-0.457,2.439l0,0.002c-0.143,1.104-0.215,2.191-0.215,3.233c0,10.798,6.884,20.337,17.129,23.738 C192.393,215.364,195.045,215.793,197.729,215.793z M189.324,175.996c-1.877,2.011-3.367,4.27-4.576,6.677 c0.284,1.232,0.747,2.369,1.351,3.421c4.153-4.422,9.486-7.311,15.396-8.439c-2.429-2.11-5.124-3.893-7.996-5.244 C192.004,173.471,190.591,174.638,189.324,175.996z M214.763,192.085c-6.712,4.881-14.75,8.945-23.107,9.458 c7.822,2.6,16.167,2.352,24.12,0.508c-0.044-1.192-0.139-2.387-0.243-3.58C215.348,196.334,215.085,194.205,214.763,192.085z M211.506,191.929c-1.15-3.087-2.773-6.019-4.78-8.681c-1.385,4.332-3.509,8.187-6.836,11.204c-0.007,0.007-0.014,0.013-0.02,0.019 c-0.265,0.24-0.531,0.48-0.812,0.709c1.554,0.501,3.097,0.89,4.563,1.175C206.372,195.115,209.014,193.596,211.506,191.929z M196.821,194.379c0.281-0.198,0.548-0.407,0.814-0.617c-2.648-2.574-5.249-6.228-5.916-9.892 c-1.619,1.131-3.126,2.437-4.485,3.924C189.577,190.764,193.114,192.909,196.821,194.379z M203.83,185.352 c-3.006-0.218-6.079,0.534-8.679,2.045c1.081,1.899,2.562,3.661,3.989,5.038C201.195,190.412,202.708,188.008,203.83,185.352z M205.207,181.379c-0.599-0.694-1.217-1.371-1.865-2.017c-3.499,0.45-6.795,1.598-9.772,3.328c0.064,0.962,0.315,1.94,0.702,2.906 c3.099-1.78,6.739-2.513,10.29-2.155C204.795,182.764,205.011,182.077,205.207,181.379z M180.795,194.504 c1.795,1.948,3.888,3.621,6.167,4.935c4.59,0.491,9.108-0.257,13.413-1.782c-1.197-0.321-2.41-0.708-3.615-1.162 c-0.041-0.012-0.079-0.029-0.117-0.047c-5.594-2.126-10.923-5.716-13.122-11.051C182.333,188.33,181.478,191.416,180.795,194.504z M210.783,169.448c2.438,6.312,4.297,12.829,5.487,19.498c0.93,5.207,2.163,11.305,1.476,16.819 c2.271-3.034,3.891-6.609,4.596-10.553c0.265-1.482,0.399-2.974,0.399-4.433C222.742,181.894,218.024,173.896,210.783,169.448z M205.044,166.866c-2.893,0.265-5.799,2.033-8.261,3.441c-0.463,0.265-0.911,0.547-1.362,0.827c3.176,1.612,6.118,3.73,8.72,6.223 c0.184,0.071,0.309,0.21,0.393,0.377c3.756,3.701,6.759,8.184,8.663,13.03c0.409-0.292,0.811-0.588,1.211-0.886 c-0.13-0.747-0.263-1.493-0.41-2.237c-1.325-6.721-3.333-13.275-5.92-19.615C207.098,167.58,206.09,167.185,205.044,166.866z M193.363,166.153c-8.42,1.482-15.42,7.302-18.671,14.971c0.328,4.206,1.992,8.134,4.497,11.459 c1.634-6.8,4.233-13.453,9.219-18.521c2.398-2.438,5.238-4.319,8.221-5.96c1.343-0.739,2.77-1.516,4.25-2.13 c-1.047-0.132-2.1-0.207-3.15-0.207C196.295,165.765,194.826,165.895,193.363,166.153z M167.913,148.092l10.988,23.291 c0.226-0.219,0.446-0.442,0.679-0.653c0.195-0.176,0.401-0.34,0.601-0.511c0.312-0.266,0.623-0.531,0.947-0.783 c0.225-0.174,0.458-0.337,0.688-0.504c0.316-0.229,0.633-0.457,0.959-0.673c0.245-0.162,0.496-0.315,0.747-0.469 c0.328-0.202,0.658-0.399,0.995-0.587c0.261-0.145,0.525-0.283,0.791-0.42c0.343-0.176,0.689-0.346,1.04-0.507 c0.273-0.126,0.547-0.247,0.825-0.364c0.361-0.152,0.726-0.293,1.095-0.43c0.28-0.104,0.56-0.206,0.844-0.301 c0.383-0.128,0.772-0.242,1.163-0.353c0.282-0.08,0.562-0.163,0.847-0.234c0.102-0.025,0.2-0.059,0.302-0.083 C184.843,156.39,172.984,150.402,167.913,148.092z M165.619,183.057c0.102,0.215,0.208,0.424,0.317,0.63 c0.107,0.035,0.212,0.082,0.319,0.118c0.671,0.226,1.337,0.473,1.999,0.741c0.167,0.068,0.335,0.132,0.501,0.202 c0.76,0.321,1.51,0.669,2.251,1.044c0.053,0.027,0.109,0.048,0.162,0.075c0.025-0.136,0.062-0.267,0.089-0.402 c0.059-0.299,0.127-0.594,0.196-0.89c0.09-0.386,0.186-0.77,0.292-1.15c0.082-0.294,0.169-0.585,0.261-0.874 c0.118-0.372,0.243-0.739,0.376-1.104c0.103-0.284,0.209-0.567,0.321-0.846c0.145-0.36,0.3-0.713,0.46-1.065 c0.123-0.271,0.244-0.542,0.376-0.808c0.174-0.352,0.361-0.695,0.55-1.038c0.138-0.251,0.272-0.505,0.418-0.751 c0.209-0.353,0.435-0.695,0.66-1.038c0.145-0.221,0.283-0.447,0.435-0.664c0.273-0.39,0.564-0.766,0.857-1.14 c0.121-0.155,0.233-0.317,0.357-0.469c0.195-0.238,0.406-0.463,0.609-0.694l-11.263-23.872 C164.451,155.458,160.657,172.541,165.619,183.057z M156.159,183.969c5.934,5.126,11.448,10.717,16.452,16.753 c-0.097-0.246-0.181-0.498-0.271-0.746c-0.104-0.289-0.219-0.573-0.314-0.866c-0.121-0.375-0.219-0.759-0.324-1.14 c-0.08-0.29-0.171-0.576-0.242-0.87c-0.097-0.404-0.168-0.816-0.246-1.225c-0.053-0.28-0.12-0.555-0.165-0.837 c-0.073-0.458-0.117-0.923-0.166-1.387c-0.026-0.242-0.066-0.48-0.085-0.723c-0.056-0.71-0.085-1.426-0.085-2.148 c0-0.517,0.021-1.046,0.053-1.579c0.01-0.167,0.027-0.335,0.04-0.504c0.019-0.239,0.032-0.475,0.057-0.716 c-0.189-0.102-0.378-0.203-0.569-0.301c-0.213-0.109-0.424-0.22-0.639-0.325c-0.311-0.152-0.625-0.294-0.939-0.436 c-0.203-0.092-0.405-0.187-0.609-0.274c-0.35-0.15-0.703-0.288-1.056-0.425c-0.172-0.067-0.342-0.139-0.514-0.203 c-0.527-0.195-1.058-0.378-1.591-0.545C162.058,184.568,159.107,184.085,156.159,183.969z M121.309,220.554 c0.013,0.018,0.03,0.025,0.042,0.045c3.036,4.879,8.031,8.66,13.22,11.195c-2.566-9.947-3.674-20.447,0.03-30.276 c1.47-3.9,3.609-7.49,5.968-10.912c1.138-1.651,2.357-3.414,3.761-4.969c-1.735,0.576-3.439,1.286-5.091,2.151 C126.865,194.273,120.192,207.428,121.309,220.554z M128.443,241.623c-0.088-0.096-0.17-0.198-0.256-0.295 c-0.22-0.247-0.438-0.496-0.651-0.75c-0.167-0.199-0.331-0.4-0.494-0.603c-0.208-0.259-0.413-0.52-0.614-0.784 c-0.157-0.207-0.312-0.416-0.465-0.627c-0.195-0.269-0.386-0.542-0.574-0.817c-0.146-0.214-0.292-0.429-0.434-0.647 c-0.184-0.282-0.362-0.568-0.538-0.856c-0.134-0.219-0.268-0.438-0.398-0.66c-0.056-0.096-0.117-0.188-0.172-0.285 c-1.323,1.206-2.508,2.539-3.536,3.976c-5.681,7.946-7.55,19.971-7.979,30.202h8.313v-27.854H128.443z M131.165,241.623h47.419 c1.253-1.24,2.418-2.578,3.477-4.022c2.095-2.857,3.705-6.015,4.807-9.338c-0.393-2.334-1.21-4.52-2.262-6.609 c-8.216,7.039-17.836,12.557-28.571,14.56c-2.808,0.524-5.569,0.793-8.293,0.755c-0.052,0.019-0.102,0.043-0.154,0.062 c-0.323,0.116-0.592,0.058-0.798-0.088c-3.784-0.155-7.496-0.932-11.159-2.478c-0.007-0.003-0.013-0.005-0.02-0.008 c-0.249-0.105-0.498-0.206-0.747-0.319c-4.769-2.158-9.459-5.356-12.93-9.429c0.619,2.895,1.625,5.755,3.057,8.504l0.03,0.06 C126.667,236.412,128.738,239.214,131.165,241.623z M253.495,262.38c-0.108-0.078-0.242-0.122-0.402-0.134 c-0.359-0.104-0.725-0.195-1.097-0.269c-1.594-0.316-3.222-0.34-4.865-0.05c-5.686,1.001-10.002,5.52-10.741,11.245 c-0.025,0.19-0.039,0.377-0.055,0.565H153.76c-0.552,0-1,0.447-1,1v128.411c0,0.553,0.448,1,1,1h191.325c0.553,0,1-0.447,1-1 V274.738c0-0.553-0.447-1-1-1h-82.566C262.065,268.485,258.477,264.003,253.495,262.38z M259.339,279.947 c0.489-0.958,0.853-1.995,1.051-3.101c0.118-0.664,0.179-1.328,0.179-1.977c0-3.367-1.523-6.446-3.962-8.512 c0.909,2.613,1.616,5.288,2.075,8.028C258.981,276.175,259.302,278.073,259.339,279.947z M251.102,276.677 c0.328,0.088,0.651,0.163,0.969,0.23c1.072-0.488,2.11-1.069,3.111-1.711c-0.385-0.935-0.859-1.827-1.415-2.669 C253.148,274.095,252.292,275.5,251.102,276.677z M243.686,321.958c-0.167,0-0.337,0.021-0.504,0.063 c-0.627,0.16-1.26,0.591-1.882,1.279c-0.9,0.999-1.432,2.579-0.721,3.388c0.54,0.613,1.625,0.567,2.322,0.173 c0.767-0.437,1.406-1.281,1.899-2.514c0.209-0.522,0.379-1.062,0.558-1.632c-0.19-0.047-0.369-0.15-0.509-0.308 C244.593,322.12,244.153,321.958,243.686,321.958z M245.909,285.448c1.137,0.377,2.319,0.568,3.514,0.568 c2.908,0,5.58-1.124,7.583-2.983c0.113-0.419,0.196-0.849,0.254-1.288c-4.323,0.788-9.143,0.45-12.985-1.379 c-0.063-0.006-0.126-0.008-0.189-0.015c-0.359-0.041-0.606-0.237-0.762-0.485c-2.161-1.229-3.935-2.988-5.023-5.348 c-0.004,0.115-0.023,0.239-0.023,0.351C238.276,279.682,241.343,283.933,245.909,285.448z M241.897,271.112 c-0.017-0.391,0.166-0.702,0.448-0.883c1.424-2.644,3.394-4.967,5.931-6.439c-0.266,0.028-0.532,0.059-0.799,0.106 c-3.707,0.652-6.795,3.192-8.266,6.548c0.169,1.61,0.637,2.988,1.331,4.159C240.899,273.42,241.351,272.245,241.897,271.112z M242.879,273.667c-0.319,0.943-0.575,1.912-0.799,2.885c0.76,0.737,1.637,1.347,2.597,1.845c1.404,0.094,2.772-0.039,4.097-0.349 c-0.058-0.023-0.113-0.052-0.165-0.087C246.314,277.066,244.146,275.666,242.879,273.667z M257.37,279.692 c-0.024-1.107-0.157-2.23-0.336-3.33c-2.284,1.566-4.8,2.877-7.462,3.562C252.177,280.319,254.923,280.199,257.37,279.692z M245.775,268.453c-0.743,0.828-1.338,1.741-1.836,2.703c0.061,0.209,0.132,0.411,0.215,0.607c1.668-1.58,3.651-2.672,5.838-3.275 c-0.797-0.606-1.648-1.135-2.541-1.586C246.808,267.416,246.228,267.947,245.775,268.453z M248.059,271.373 c0.017,0.106,0.026,0.211,0.053,0.317c1.282-0.608,2.707-0.875,4.124-0.806c0.027-0.084,0.051-0.169,0.077-0.254 c-0.16-0.179-0.328-0.348-0.495-0.52C250.478,270.318,249.215,270.743,248.059,271.373z M245.259,273.486 c0.74,0.822,1.684,1.487,2.717,2.014c-0.713-0.89-1.324-1.908-1.669-2.963C245.941,272.83,245.594,273.15,245.259,273.486z M248.965,273.499c0.335,0.502,0.725,0.968,1.117,1.382c0.55-0.615,1.001-1.298,1.371-2.035 C250.594,272.894,249.742,273.129,248.965,273.499z M249.293,265.625c1.198,0.688,2.314,1.51,3.32,2.454 c0.248,0.079,0.412,0.266,0.491,0.498c1.331,1.346,2.454,2.891,3.319,4.576c-0.6-2.917-1.49-5.747-2.589-8.51 c-0.339-0.147-0.687-0.279-1.043-0.392C251.68,264.408,250.454,264.933,249.293,265.625z M205.818,330.07 c-1.193,2.291,0.422,5.392,2.679,6.85c2.043,1.319,4.759,1.829,8.543,1.618c2.979-0.171,5.225-0.677,7.065-1.594 c2.742-1.365,4.822-4.044,5.707-7.349c0.837-3.128,0.467-6.305-1.011-8.8C219.867,320.951,209.352,323.286,205.818,330.07z M209.256,369.179c-1.403-0.728-2.821-1.097-4.102-1.097c-0.95,0-1.823,0.203-2.559,0.613c-1.25,0.698-2.037,2.194-2.052,3.905 c-0.015,1.71,0.745,3.22,1.983,3.939c2.997,1.743,6.906-0.348,8.969-1.749c0.976-0.663,1.889-1.411,2.749-2.229 c-0.414-0.295-0.82-0.595-1.221-0.891C211.764,370.74,210.572,369.862,209.256,369.179z M225.475,359.639 c1.781,0.683,3.996,0.986,6.744,0.941c3.231-0.054,5.912-0.518,8.138-1.413c-0.244-2.398-1.213-4.617-2.898-6.622 c-1.4-1.667-3.333-2.886-5.544-3.562c-2.358,3.155-4.343,6.803-6.28,10.363C225.581,359.445,225.528,359.542,225.475,359.639z M223.689,358.737c0.063-0.115,0.125-0.23,0.188-0.345c1.828-3.36,3.697-6.796,5.901-9.876c-0.656-0.091-1.327-0.138-2.008-0.138 c-0.339,0-0.68,0.012-1.023,0.035c-2.452,0.165-4.139,0.793-5.158,1.921c-0.964,1.066-1.085,2.38-1.017,3.293 c0.128,1.721,1.029,3.464,2.35,4.548C223.166,358.375,223.421,358.563,223.689,358.737z M248.75,364.2 c-1.237,0.751-2.061,2.171-2.099,3.619c-0.012,0.448,0.088,0.82,0.25,0.927c0.247,0.159,0.888-0.155,1.461-0.721 c1.288-1.275,2.34-2.75,3.127-4.385c0.006-0.012,0.012-0.024,0.019-0.036c-0.16-0.017-0.32-0.025-0.48-0.025 C250.228,363.579,249.428,363.788,248.75,364.2z" fill="#e2b96a"/></g></g></svg>