<?xml version="1.0" encoding="UTF-8"?><!DOCTYPE svg PUBLIC "-//W3C//DTD SVG 1.0//EN" "http://www.w3.org/TR/2001/REC-SVG-20010904/DTD/svg10.dtd" []><svg xmlns="http://www.w3.org/2000/svg" xmlns:xlink="http://www.w3.org/1999/xlink" data-name="Calque 2" height="1567" preserveAspectRatio="xMidYMid meet" version="1.0" viewBox="-1.6 -1.0 1883.3 1567.0" width="1883" zoomAndPan="magnify"><g data-name="Calque 1" id="change1_1"><path d="M1848.36,1380.3c-1.28-1.72-3.24-4.74-.8-5.94,1.79-1.01,4.78-.63,6.91-.79,9.1.06,16.79-1.08,17.7-8.09.75-19.62-22.06-34.35-34.29-48.18-3.28-3.4-5.37-5.8-7.2-9.26-12.63-27.22-20.87-51.59-40.53-76.39-8.61-11.26-23.93-25.13-33.24-34.83-2.22-2.2-3.43-4.56-3.35-7.61,3.69-33.57-32.88-55.48-57.52-72.3-3.4-2.72-13.86-4.27-10.64-9.88,1.21-1.83,3.46-3.35,4.96-5.09,4.08-4.24,4.12-12.44.89-18.06-1.78-3.67-6.95-6.91-8.03-10.61.11-2.69,5.73.64,8.58,1.39,21.39,5.77,17.54-7.23,29.1-8.25,10.67.71,15.27-1.58,23.19-7.98,1.41-.97,2.91-1.72,4.55-2.26,8.93-2.34,13.61-2,19.56-10.09,4.35-4.96,11.7-6.5,15.35-12.27,4.2-5.68,4.28-14.02,11.63-14.84,3.78-.4,8.15.57,11.83-.93,3.49-1.3,5.5-4.92,7.36-8.22.99-1.94,1.96-4.01,2.17-6.15.16-1.76-.38-3.47-.34-4.79,1.2-6.37,16.77-.36,19.05-13.03.69-3.09,0-7.48.7-10.75.57-3.91,3.69-6.4,6.06-9.28,1.67-2.17,2.6-5.05,3.04-7.8.78-4.85.84-10.16-.24-14.68-1.63-5.48-2.34-10.62,1.33-15.54,2-3.32,3.57-7.04,3.66-10.97.29-4.56-1.48-8.47-.42-12.48,2.56-6.18,13.19-7.94,16-13.82,8.99-20.26-2.7-39.77-19.71-51.16-9.68-8.99,11.49-11.25,8.95-33.84-1.86-8.6-9.03-16.13-10.41-25.13-.46-3.63,2.22-6.87,4.72-9.5,16.01-15.77,11.82-40.68-7.72-51.55-12.27-6.12-5.79-12.6-7.83-22.94-2.45-7.56-10.07-8.35-2.16-16.64,2.06-2.5,3.59-5.63,5.33-8.42,3.77-5.18,5.57-12.13,4.51-18.83-.81-5.75-3.92-9.32-5.32-14.6-2.43-16.91-14.42-25.51-28.76-31.54-2.46-1.24-5.42-2.86-5.88-5.75-.45-2.06.64-4.85,1.58-6.97,6.71-14.93,9.07-32.67,5.28-49.23-1.32-4.51-3.7-8.11-5.37-12.34-1.44-3.38-2.01-6.94-4.01-10.13-19.96-28.88-35.46-5.9-33.63-23.98,1.34-29.29,7.46-71.01-10.98-95.12-8.62-13.49-12.84-17.73-28.77-14.44-5.28.63-6.52-3.53-6.39-8.06-.31-14.34-.78-30.99-4.55-44.31-1.7-5.85-5.62-10.67-8.86-15.85-2.88-4.68-5.93-10.01-10.15-12.37-5.68-3.46-13.37-1.64-18.89,1.71-10.06,6.23-16.37,17.36-23.9,26.33-3.04,3.56-3.19.17-3.54-3.06-.43-22.62,1.89-45.38-1.64-67.85-4.03-22.52-7-46.99-27.75-57.28-5.54-2.84-12.1-4.46-18.15-2.67-3.96,1.26-5.66,4.05-9.52,9.33-.31.43-.63.86-.95,1.31-5.43,6.99-12.88,18.61-18.24,24.57h-.03c-.64.12-.37-2.85-.43-7.64-.01-15.33.03-43.39-.02-52.81-.26-4.2-4.05-5.94-4.94-10.39-1.04-3.81-1.07-8.41-1.95-12.32-.9-5.69-3.56-9.98-7.47-14.19-3.55-3.73-7.07-7.8-11.75-10.01-5.73-2.48-13.46-3.6-19.72-1.51-6.66,2.32-9.69,9.23-14.16,14.16-5.36,5.46-6.16,12.91-8.81,19.83-3.22,8.87-8.8,28.24-12.01,35.39-.06.05-.12.06-.17.04-.8-1.13-.58-5.64-.7-7.51-.74-16.18,3.44-33.85-.22-49.23-1.01-2.79-2.71-5.71-3.77-8.45-3.65-13.96-1.2-30.62-6.23-44.81-3.15-7.36-8.41-15.64-16.7-17.43-4.54-1.01-10.23-1.24-13.73.66-5.72,3.63-7.01,11.57-10.06,17.47-4.27,9.42-5.43,17.6-8.66,26.16-2.05,5.36-3.93,9.56-4.58,15.45-1.17,7.47-3.2,20.42-4.4,28.11-.46,2.82-.7,4.84-.78,5.25-.04.19-.07.12-.13-.16-.83-5.04-3.78-9.71-5.07-14.76-.6-2.44-.9-5.28-1.13-7.86-2.18-23.99-.75-40.12-6.87-64.79-1.48-5.96-3.29-12.14-4.67-18.02-1.87-7.7-3.22-15.1-8.25-20.58-3.79-4.27-10.88-7.45-15.83-3.52-5.31,4.51-4.63,15.21-5.94,22.59-1.11,4.89-4.1,8.24-5.35,13.26-2.35,13.02-1.84,28.54-4.51,41.82-.49,2.99-3.21,11.84-6.92,10.46-1.05-.61-1.32-3.98-1.31-5.46-.1-4.34-.49-8.72-1.21-13-4.78-29.13-16.51-59.66-31.47-84.16-2.74-4.57-5.13-9.5-8.53-13.54-4.72-5.94-15.46-9.74-22.16-8.45-21.3,2.71-1.53,103.68-13.7,121.88-1.56,3.1-2.59,5.76-2.78,9.08-2.04,25.62-2.4,78.12-.62,111.7.47,5.02.09,10.52,1.92,15.07,1.95,4.47,4.37,8.7,4.57,13.78-2.61,67.86,6.98,137.49,19.16,206.66,17.13,92.21,49.57,181.55,89.2,266.72,5.15,10.73,9.78,23.15,14.21,35.92,1.53,4.55,6.12,8.99,4.18,13.81-4.73,6.88-31.19,3.26-38.59,1.71-23.5-4.68-46.04-14.07-68.45-19.99-20.71-6.31-42.05-9.01-62.22-16.76-4.18-2.28-7.4-4.33-12.56-4.32-6.76-.14-16-.38-22.45.24-4.42.51-7.49,3.1-11.45,4.79-5.91,2.69-14.46,3.24-19.66,7.11-3.48,2.49-6.04,6.01-8.91,9.19-3.71,4.04-7.05,7.85-8.69,13.23-2,6.6-7.2,11.96-7.68,19.02-.12,9.17,1.58,18.71-4.79,26.18-4.02,5.4-7.8,9.92-9.88,16.74-.96,4.27-7.95,19.7,2.34,16.25,5.21-1.71,10.85-2.42,15.79-4.71,10.12-5.77,19.32-5.35,28.51,1.43,9.39,5.39,16.92,8.54,20.96,19.28,1.78,3.93,3.74,9.22,6.21,13.31,1.59,2.86,4.01,5.76,5,8.81,1.89,5.33-2.09,5.46-6.09,3.4-15.77-7.98-31.86-11.18-45.8,2.22-2.63,1.98-4.84,4.52-6.97,6.79-1.07,1.03-2.24,2.1-3.79,1.94-1.83-.14-4.45-3.06-6.05-4.77-5.76-6.35-15.68-9.94-24.55-9.58-7.97,0-14.04,5.7-19.17,11.24-12.23,11.6,1.54,38.9-14.56,31.02-7.85-3.91-14.7-10.17-23.67-11.41-15.38-1.95-23.37,7.33-21.35,22.1.7,9.27-11.32-.25-15.17-1.58-5.08-2.62-10.28-5.07-15.93-6.15-10.38-2.3-21.66,1.73-26.3,11.55-2.08,3.91-2.72,8.62-2.88,12.96-.32,3.63-1.05,6.32-4.57,4.86-3.35-1.67-6.44-4.81-9.83-6.53-3.96-2.2-8.87-2.66-12.59-4.41-4.38-1.89-8.12-6.05-13.28-5.31-6.47,1.14-9.05,8.98-9.98,14.69-3.26,22.71,11.71,42.5,27.46,57.89,23.19,21.12,46.53,32.94,73.84,32.56,24.74.39,54.28-.95,79.16-7.05,22.32-6.16,45.45-6.12,67.08-9.82,4.68-.8,8.24-3.08,12.36-5.05,3.28-1.59,6.69-1.62,10.92-1.85,19.88-.97,50.42-.9,66.79.27,6.03.05,9.88,4.25,15.92,5.26,12.02.67,20.74-.3,29.24,10.1,15.45,19.33,38.15,31.94,57.05,47.27,3.57,2.56,8.61,3.93,9,9.02.58,5.82.98,13.37,1.48,20.69.67,6.24-.17,10.55,2.64,15.58,2.15,3.95,4.95,7.87,7.37,12.14,1.69,2.84,3.3,6.29.43,8.98-15.13,10.84-15.99,31.13-11.11,48.48,2.15,6.75,6.64,12.18,8.2,19.24,2.68,10.55,4.68,20.36,14.24,21.68,4.23.69,10.16-.4,11.57-4.97,1.52-7.14-9.64-8.99-9.04-15.99.95-4.1,5.31-.64,7.12.99,4.19,3.49,7.49,6.85,13.02,7.66,4.8,1.28,12.29-2.2,10.17-7.88-1.48-4.07-6.54-5.06-9.33-8.38-3.31-4.32-.04-10.62,3.02-14.13,4.17-4.63,8.13,7.52,15.38,7.56,8.66.84,5.28-9.3,2.63-14.93-3.05-6.23-9.9-14.27-5.2-21.13,1.55-1.94,3.79-2.85,5.66-4.5,3.79-3.29,8.95-8.8,9.58-13.07.64-4.31-4.3-6.19-5.7-9.73-.97-2.1-.84-4.66-.63-7.04,1.52-15.45-1.27-31.15,0-46.86,0-1.72.26-4.08-1.78-2.98-4.61,3.74-8.62,8.89-8.96,15.19-.46,4.99-.27,14.05-7.28,8.3-7.53-6.66-15.76-12.25-24.66-17.1-82.49-46.7-145.04-125.29-185.16-209.04-10.84-22.94-4.98-24.54-26.34-43.55-3.76-3.5-6.7-5.71-10.68-6.68-4.52-1.45-11.39-.63-14.38-4.67-.69-1.91,2.3-4.1,1.94-6.18-.7-2.05-3.11-3.24-4.34-5.01-4.22-5.7,3.75-13.22,7.09-18.2,3.46-6.31-3.32-4.32-6.88-2.38-12.62,6.74-15.23.61-12.01-11.8,6.22-23.57,31.22-41.45,54.38-43.13,17.84-1.12,35.74,3.62,52.76,8.5,35.81,10.4,71.42,25.03,107.67,32.61,5.84,1.08,12.06,1.74,18.08,2.54,7.6.81,7.92,3.85,3.92,9.58-8.49,13.62-17.23,28.9-16.7,44.62-.04,4.22,2.22,16.73,7.95,14.94,1.65-.96,1.51-5.47,1.31-7.93-1.63-19.81,7.35-37.88,20.52-51.97,10.01-9.89,10.78-24.54,10.21-38.71-.76-11.16-3.55-20.44-8.17-30.09-34.07-74.07-73.16-150.25-81.26-232.37-.16-7.34,6.75-1.83,5.61-11.76-6.14-66.42,4.53-133.01,12.84-199.74.64-8.9,6.66-15.79,7.09-25.11,5.68-55.88,12.25-107.93,22.79-161.62,1.73-15.7,1.21-34.93,3.72-50.18.95-6.06,3.76-11.98,7.57-16.83,1.44-1.13,2.36-.13,3.63,2.13,15.91,35.5,13.83,77.18,19.36,114.03,1.03,7.87,4.18,17.77,5.93,24.85.99,4.14,1.05,6.55.63,10.71-1.57,15.48-4.64,37.32-7.99,53.88-3.31,17.67-4.37,37.58-7.28,55.9-17.69,77.08-18.3,167.64-13.78,248.14.63,9.11.05,18.36-.03,27.62-.16,2.22.82,12.39,3.63,8.94,1.12-2.24,1.15-5.02,1.2-7.65.19-48.49-2.61-96.6-.33-145.16,6.77-90.23,19.37-182.97,40.04-269.51,5.08-20.94,7.6-42.76,12.66-63.29,2.31-9.5,1.84-21.31,10.22-27.69,3.11-2.01,7.25-1.7,10.31.26,9.88,6.79,7.8,20.02,10.29,30.52,12.94,47.02,9.04,102.96-1.76,149.34-1.36,7.24-2.49,14.71-3.46,22.32-5.13,40.12-5.91,83.04-14.01,120.46-11.39,50.91-17.68,104.37-21.59,156.31-1.06,17.09-1.37,34.63-1.61,51.8-.1,2.15.45,6.07,1.41,7.1.98,1.09,1.73.13,2.45-1.53,3.1-13.97.95-29.45,1.94-42.9-.27-8.06,5.9-13.9,6.54-21.77,2.17-18.53-.28-42.69,4.74-61.3,2.07-7.46,4.39-14.86,5.62-22.57,3.37-19.48,3.53-39.58,9.05-58.43,16.78-59.08,35.52-120.13,49.36-179.79,1.72-16.85,5.97-33.44,8.17-50.21.46-3.78,1.51-11.01-.2-13.66-.55-.55-1.28.6-1.81,2.82-7.64,55.51-26.04,110.93-42.26,164.76-2.1,6.08-2.97,12.51-4.01,18.88-1.36,5.8-2.73,1.7-2.77-2.52.14-11.91,3.65-23.56,4.36-35.6.34-4.85.94-9.63,2.23-14.31,5.05-17.15,6.89-36.02,9.98-53.74,5.66-28.82,14.32-56.49,25.68-83.72,3.98-7.97,4.48-18.33,11.65-23.99,4.78-3.38,12.4-3.34,18.24-1.16,6.81,2.66,9.24,8.37,11.43,15.01,1.46,4.87,4.56,9.24,6.69,13.67,1.14,3.29.98,6.13,1.39,10.01,1.74,26.49,2.71,72.37-.06,101.01-.42,4.99-2.06,9.54-4.57,14.04-3.87,7.72-8.8,15.92-12.4,23.9-31.43,73.7-57.25,143.15-69.9,221.93-1.89,12.45-5.61,25.85-8.68,37.55-5.35,19.89-5.97,40.78-8.35,61.2-.52,2.99-.2,8.26,2.42,8.11,2.17,0,3.2-5.27,3.03-7.79.03-3.94.41-7.79,1.25-11.51,4.75-19.93,10.98-40.59,16.98-61.19,25.55-101.51,73.82-194.28,111.56-289.96,2.67-6.84,4.82-13.19,6.32-20.67.41-2.12.64-3.9.25-5.94-.35-1.49-.76-2.24-1.82-2.68-.66-.2-1.37.19-1.68.76-19.35,43.64-83.38,196.58-94.11,218.85-.06-.59.23-3.05.84-6.57,10.69-46.59,35.74-90.29,50.56-135.1,11.7-33.28,20.33-68.69,39.69-98.52,9.01-13.59,17.41-14.3,26.85-2.42,4.21,6.72,11.07,12.45,12.27,20.68,5.46,31.61,7.34,87.48,4.18,113.15-.86,5.05-2.94,10.09-6.23,14.11-47.25,62.63-96.05,128.98-125.57,201.93-5.7,15.44-10.61,32.55-16.64,47.96-2.8,7.17-5.75,13.73-8.95,19.05-2.2,3.79-5.54,7.71-6.16,12.11.08,6.13,8.05.51,10.43-2.03,62.7-85.95,116.91-168.12,163.27-265.31,1.72-3.73,3.92-6.84,6-10.13,1.48-2.47,1.66-4.61.57-4.83-1.87.1-2.97,1.69-4.29,3.75-40.07,69.37-85.44,136.4-127.6,204.72-2.22,3.91-4.4,9.22-7.4,13.13-4.52,5.3-5.89.58-3.03-4.21,38.82-80.62,84.59-151.34,135-225.91,3.87-6.22,8.31-10.61,13.39-16.2,6.58-6.22,22.79-36.24,32.94-25.27,3.64,4.83,7.26,10.73,9.77,16.36,6.69,22.08,2.3,52.83.41,76.36-.33,5.61-2.01,10.54-5.7,15-51.18,61.71-106.61,119.71-155.21,182.98-19.92,27.87-37.15,55.5-54.93,86.08-1.81,4.01-2.85,8.36-3.94,12.64-1.03,4.26-2.37,8.58-1.74,9.46,1.59,1.12,5.82-3.88,8.87-7.58,54.83-97.62,151.01-166.75,217.95-255.99,5.51-6.46,1.47-7.91-2.56-3.79-38.4,38.55-86.36,83.02-122.43,123.16-5.37,5.57-8.15,12.07-13.05,18.37-1.15,1.58-5.5,5.5-6.51,3.63-.82-1.32,2.23-5.65,3.74-6.94,48.3-54.14,97.32-108.66,142.13-165.63,6.2-7.78,7.59-19.34,15.35-25.68,9.29-6.67,16.69,1.04,21.17,8.8,15.22,25.23,5.48,58.86,8.94,86.24.46,4.82,5.82,10,1.53,14.11-56.8,40.31-108.87,86.69-164.1,129.86-19.44,15.73-44.31,26.21-62.83,43.14-6.66,5.6-9.18,13.78-14.8,20.62-4.99,5.79-12.31,10.6-16.45,16.98-2.79,5.11,2.35,6.81,6.35,3.1,6.26-6.91,12.04-14.46,19.44-20.16,11.77-9.78,25.1-17.52,38.1-25.51,57.93-37.11,121.86-62.87,173.41-109.29,3.17-2.57,8.15-4.87,11.5-8.01,1.7-1.74,2.59-3.11,1.6-4.06-1.23-.83-3.29.49-4.65,1.3-8.67,7.71-20.43,12.12-30.7,17.48-21.56,11.25-41.48,27.4-62.64,40.15-5.24,3.12-10.96,6.67-16.95,7.75-7.09,1.23-3.32-2.88.19-5.27,34.08-26.54,68.9-55.4,103.14-81.1,6.88-5.27,15.13-10.26,22.86-14.53,6.17-3.43,15.23-4.93,21.28-1.42,6.37,4.29,7.3,12.8,11.59,19.1,6.47,10.01,4.69,23.41,4.11,34.77-.48,6.97-5.11,11.6-8.47,17.49-2.21,4.07-4.63,8.39-6.99,10.8-3.32,3.5-6.71,4.37-12.54,6.13-5.47,1.61-11.78,3.78-17.2,6.11-52.16,22.5-100.5,54.87-151.82,78.56-15.44,7.47-31.23,15.12-46.08,23.57-10.16,5.5-19.04,12.11-28.67,17.88-4,1.93-8.82,8.03-3.59,10.52,1.16.41,2.56.04,4.08-.71,3.74-1.98,7.67-4.93,11.92-6.5,14-5.84,28.19-12.01,42.23-17.85,51.32-22.39,105.88-34.12,158.73-51.65,7.62-2.2,13.9-6.36,21.35-9.45,12.46-5.84-18.28-.67-22.77.61-27.7,6.12-58.61,16.23-86.09,26.42-3.48,1.22-7.85,2.76-11.31,2.98-8.15-.09,1.88-6.85,4.59-8.06,33.94-15.43,141.5-83.12,171.35-56.95,8.15,7.53,9.45,19.48,9.6,30.97-.29,12.09-4.15,22.55-14.65,26.43-2.77,1.1-5.72,1.94-8.03,3.74-3.67,2.46-4.21,8.49.35,10.16,4.02,1.74,10.33.02,13.82,2.87,2.96,2.27,3.08,6.63,1.75,9.88-.88,2.66-3.28,5.51-1.65,8.08.99,1.73,4.15,3.36,6.28,4.4,14.4,6.48,25.81,16.67,22.49,32.51-1.67,8.12-8.78,20.79-18.59,16.45-3.84-1.8-6.24-3.9-10.12-4.67-33.92-8.2-124.99-12.98-162.06-10.33-7.81.08-13.35,6.2-21.85,6.13-5.48,1.43-80.29-4.16-66.34,9.46,3.97,1.52,8.76-2.34,11.94-3.31,33.58-4.97,118.71-3.54,155.22-1.05,7.26.05,12.14,5.51,19.98,6.01,27.22,1.89,62.3-4.68,81.65,17.63,5.29,6.38,9.14,15.1,7.51,23.5-.92,5.05-5.18,8.83-8.53,12.06-3.35,3.55-8.08,5.89-12.89,3.7-4.05-1.5-7.65-3.95-12.05-5.19-27.24-7.62-58.62-15.51-85.13-21.74-33.39-8.24-69.02-11.18-102.14-17.79-4.96-.96-8.6-3.6-12.95-5.11-4.96-1.65-13.98-1.57-17.73.66-3.1,2.14-.82,5.35,3.33,6.72,6.97,2.28,17.17,1.53,24.92,3.25,69.42,19.64,142.13,36.17,210.67,59.85,6.64,2.8,13.58,6.42,17.86,12.48,6.99,10.17,8.43,18.73-1.45,27.27-3.02,2.94-7.54,3.77-10.9.84-3.99-3.36-7.46-7.52-12.12-10.15-51.84-33.62-123.05-61.9-181.58-79.86-5.88-1.39-24.11-7.63-28.79-4.18-1.71,3.48,11.2,5.68,13.67,7.29,1.29.55,2.57,1.13,3.85,1.72,61.81,27.78,127.3,46.89,185.18,84.61,8.36,5.86,15.35,13.58,21.34,21.73,4.52,4.89,1.58,16.11-5.46,11.28-3.93-3.41-7.73-7.13-12.27-9.89-46.62-27.05-97.2-57.87-147.27-77.23-4.28-1.73-30.41-9.96-15.29.41,5.31,3.86,9.7,6.32,15.51,8.66,43.12,18.06,85,39.85,124.16,64.82,6.14,3.69,12.84,6.32,18.31,11.05,8.52,7.43,18.75,18.34,19.07,30.25-.03,6.81-4.84,9.82-11.48,9.21-3.92-.04-9.66-.5-5.24,4.85,1.71,2.43,3.64,5.01,4.48,7.93,2.85,7.95-3.22,15.43-10.45,10.85-32.72-32-70.83-62.27-110.34-84.33-4.78-2.97-10.2-4.75-15.24-7.18-3.33-1.56-5.61-4.46-8.74-5.5-2.85-.59-3.45,2.54-1.25,5.11,35.76,29.9,79.96,50.25,110.52,86.75,5.03,7.08,14.81,13.66,13.2,22.99-1.3,4.5-6.31,4.74-10.74,6.03-5.08,1.91-9.18,1.87-13.2-2.69-3.64-3.53-7.9-8.47-11.26-12.19-25.28-26.41-59.45-42.24-88.32-63.31-3.5-1.5-14.24-3.6-9.53,1.39,6.67,6.7,15.96,15.15,24.87,19.53,19.34,11.55,34.25,29.31,52.04,42.55,3.97,3.06,7.15,6.22,10.74,9.93,5.67,6.6,17.33,13.47,16.19,22.96-.59,2.8-3.44,4.8-5.58,7.76-1.46,1.96-2.78,4.12-4.66,5.69-2.59,2.27-6.11,2.32-9.42,2.74-10.19,1.15-17,8.02-26.17,10.37-8.21,2.57-11.73-3.37-13.74-10.14-1.31-3.5-2.73-7.05-4.27-10.46-3.91-10.08-11.05-16.65-17.96-24.41-4.87-6.01-7.3-11.62-13.28-16.38-6.34-5.88-16.69-15.48-23.03-21.36-2.43-2.27-4.22-4.01-5.42-4-1.19-.05-1.72,1.58-1.46,4,.34,5.17,4.48,9.82,8.21,13.25,11.21,10.99,18.8,25.02,29.67,36.7,2.15,2.42,4.42,4.75,5.99,7.41,3.63,6.88,6.35,16.95,9.23,24.41,3.6,8.9-5.05,6.8-9.69,4.16-4.12-2.56-7.14-6.33-11.05-9.18-7.05-5.39-16.83-10.73-23.69-16.86-5.16-4.48-8.27-11.08-13.32-15.5-3.83-2.79-18.91-14.94-17.06-2.86,1.67,10.35,13.89,16.29,18.84,24.71,2.5,4.65,3.1,13.16-.27,16.63-11.88,7.87-24.88-7.99-29.72-17.9-5.94-10.08-13.04-3.84-9.34,6.75,1.17,3.8,4.1,6.76,6.07,10.1,5.16,10.45-9.3,13.21,17.14,18.39,15.61,3.09,32.1,3.67,46.32,11.44,12.73,7.85,11.8,20.3-4.46,21.34-12.01,1.38-23.74-2.38-34.91-6.66-2.66-1.01-7.16-2.07-8.68.9-2.12,7.56,14.6,15.6,20.39,17.7,18.98,7.31,39.35,11.37,56.65,23.23,11.89,8.36,23.62,20.44,32.94,31.63,3.48,3.76,9.39,15.59.36,11.51-7.75-4.41-15.48-9.15-22.87-14.18-15.31-9.49-33.36-28.89-50.93-27.97-5.72,1.66,4.15,7.31,6.05,8.47,4.01,2.37,7.89,4.83,11.57,7.66,9.46,7.1,18.57,16.34,27.99,22.94,3.25,2.3,7.42,3.62,10.4,6.16,3.14,2.66,3.34,6.5,6.97,8.84,2.84,1.76,6.52,2.47,9.64,3.65,6.1,2.16,10.41,6.12,15.19,10.36,21.43,19.15,39.55,48.26,55.63,70.49,7.65,8.42,6.02,14.45-3.06,6.01-22.96-22.71-51.63-38.95-76.25-59.38-8.06-6.68-15.86-13.94-23.74-20.87-7.92-6.49-14.88-13.95-24.37-17.88-3.1-1.13-6.18-.04-4.58,3.28,2.74,4.99,9.17,7.39,13.36,11.16,52.76,46.94,108.77,90.71,159.66,140.32,2.43,3.17,5.78,8.31,8.54,12.45,1.45,2.09,3.31,5.67,1.55,6.97-1.51,1.16-3.84,1.46-5.84,1.56-5.41.38-10.49-.49-15.05-2.32-18.11-7.17-30.3-28.8-46.79-41.41-33.72-24.91-61.02-60.65-92.72-87.64-5.84-5.2-11.32-9.91-18.44-13.68-6.09-3.32-10.89-2.55-4.51,4.36,48.56,48.61,99.17,95.76,146.74,145.33,13.61,14.22,24.67,30.37,37.13,45.96,5.23,6.29,13.2,14.81,9.55,23.37-2.06,2.95-6.23,2.2-9.18.81-2.55-1.11-4.88-2.56-7.53-3.43-6.54-2.33-15.22-3.09-21.63-6.8-2.59-1.15-4.32-.92-5.94-1.4-1.24-.38-2.42-1.4-3.19-2.8-5.34-9.55-9.43-20.76-16.34-29.32-32.39-41.58-64.85-82.04-100.93-120.56-5.88-4.93-20.02-29.02-27.62-24.68-1.99,2.12,1.08,6.62,3.09,8.95,57.04,68.36,130.29,146.92,162.25,230.42,2.42,7.41,16.94,40.86,1.68,40.35-6.83.54-18.27-.53-24.61-1.86-4.02-.72-6.2-3.04-6.65-7.42-8.69-62.96-54.31-124.23-91.37-175.67-12.85-17.21-25.6-34.91-39.73-51.22-5.62-6.46-11.31-12.63-17.34-18.29-2.15-2.05-5.88-4.88-8.24-4.35-3.51.74-2.72,4.88-.47,7.54,63.41,73.64,113.57,151.96,142.81,243.3,1.14,4.33,1.59,9.53,1.5,14.77.09,3.89-1.03,8.9-4.47,10.1-9.48,2.95-18.88-2.9-26.6-9.42-24.14-20.21-28.66-47.77-37.22-76.07-17.35-51.14-41.66-98.34-68.05-146.03-2.91-5.87-7.5-10.3-10.9-15.95-3.02-5.05-4.04-11.63-7.31-15.73-2.21-2.75-5.17-4.36-7.2-3.41-1.29.78-1.23,3.22-.22,6.12,1.83,5.14,4.13,10.32,6.69,15.18,37.12,73.7,84.18,148.31,89.53,232.75.21,3.66-.07,6.21-1.85,6.79-3.38,1.15-9.99-4.07-12.75-7.97-11.2-14.58-19.86-33.76-29.31-49.87-31.28-56.42-42.87-107.66-60.18-168.54-1.86-7-2.91-14.1-4.41-21.35-.54-2.16-.79-4.85-2.4-6.4-2.25-1.74-6.06.75-8.6-1.82-26.61-28.45-39.06-74.46-81.38-85.86-4.28-1.22-8.21-2.21-11.31-5.22-2.42-2.29-4.92-4.89-6.87-4.46-2.43.34-3.06,4.65-3.06,6.79-.55,11.99-.9,31.53-3.46,40.91-.58,2.07-1.44,3.94-3.03,5.3-10.03,7.82-36.92-15.05-41.07-25.44-2.81-4.98-4.86-12.2-10.02-15.08-4.68-2.28-5.45,4.13-4.68,7.3,1.23,7.45,5.25,13.93,9.58,20.24,4.77,6.44,3.19,11.67-1.77,17.58-11.5,14.34-15.47,29.23-19.71,47.09-1.02,5.48-4.81,10.7-6.47,15.45-1.6,9.91-.65,22.87-.72,33.51.06,2.05.08,3.91.33,5.89.5,4.1,3.15,6.99,4.78,11.08,2.61,7.22,4.62,15.3,11.09,20.2,12.12,9.36,34.74,13.47,46.64,2.52,4.32-4.09,5.15-11.29,8.14-15.67.63-.78,1.64-1.5,2.53-.79,1.91,1.7,2.21,4.81,2.63,7.27,1.59,10.71,1.81,22.19,6.22,32.05,1.99,4.13,4.41,8.03,5.95,12.39,2,5.78,3.68,11.44,6.38,16.85,5.33,10.59,14.84,20.36,26.68,23.17,3.95.94,8.63.84,11.78-1.27,3.33-2.1,4.95-5.84,6.87-9.15,2.45-4.4,4.99-7.48,6.95-13.42,1.03-3.16,1.96-6.49,2.92-9.66.68-2.28,1-3.36,1.3-3.04.79,1.52.96,2.86,1.85,4.96,1.3,3.28,3.25,6.02,4.53,9.51,8.29,25.4,14.48,50.58,34.59,70.23,3.66,3.37,7.56,5.8,11.47,8.58,5.21,4.29,12.37,8.2,19.13,5.56,6.74-2.36,9.52-10.14,13.25-15.92,1.88-3.17,3.22-6.28,3.68-9.71.4-5,1.44-14.88,7.67-6.72,10.34,16.73,18,33.81,30.8,49.2,8.35,11.23,29.73,31.95,36.09,11.32,1.61-3.9,1.53-9.85,2.95-13.48,2.96-6.33,9.38,8,11.41,9.73,2.74,3.44,6.46,5.96,10.96,8.65,8.71,5.65,20.05,9.74,30.01,5.35,7.43-4.07,13.15-11.27,12.75-20.08.2-2.4.47-4.07,1.34-4.53,1.06-.7,2.83.68,3.97,1.13,2.15,1.27,4.41,2.47,6.89,3.17,8.77,2.36,19.29,2.78,28.17.53,7.23-1.91,8.73-9.39,9.18-16.58,1.4-26.76-18.92-55.63-31.08-79.01-1.14-2.22-2.9-5.34-2.8-7.7-.04-2.42,2.12-2.73,3.88-1.64,2.45,1.36,4.35,3.77,6.48,5.56,2.29,2.01,5.55,3.74,9.46,5.75,5.28,2.54,10.34,5.87,16.18,6.57,4.25.45,10.03.67,13.45-1.09,2.68-1.36,3.81-4.4,4.24-7.33,2.83-22.83-16.67-42.94-30.44-59.93ZM1390.49,1120.91c5.32,1.88,13.07,4.33,17.93,7.69l.15.11c2.22,1.75,4.41,3.49,7.18,4.4,4.88,1.63,12.24,3.53,16.93,5.09,3.05.97,5.03,1.75,6.39,4.84,1.4,3.45,6.29,13.05,4.35,16.12-1.14,1.4-3.49,1.27-5.24,1.3-8.77.08-18.92-2.21-25.9,4.3-2.31,1.76-4.81,6.14-7.97,5.37-1.61-.6-2.68-3.57-4.51-5.73-.78-.9-1.68-1.67-2.53-2.4-2.44-1.95-4.21-4.09-4.95-7.1-2.14-8-1.78-20.18-4.22-29.37-.73-2.98-1.95-6.09,2.39-4.63ZM1227.88,953.03c1.22,3.1,2.1,5.8,3.86,8.34,3.99,5.66,18.3,25.79,25.55,36.01,1.32,1.98,4.34,5.59,3.43,5.97-1.61.85-4.08.39-6.04.55-6.98-.17-14.42,1.69-21-.45-3.39-1.32-5.52-3.92-8.76-4.11-14.44-.37-32.95,3.54-48.21,5.34-50.86,6.3-96.08,22.76-145.45,28.79-5.01-.13-8,4.82-1.86,6.41,7.72.68,15.51,1.19,22.98-.53,15.44-3.28,35.78-5.61,52.28-9.76,9.35-2.43,18.04-4.8,27.6-6.99,26.54-6.08,55.43-11.61,79.72-11.84,13.11.05,32.8.62,43.8,1.76,3.74.2,6.1,2.99,9.45,4.26,2.72,1.22,6.1,1.56,8.97,3.09,2.04,1.05,3.89,2.47,5.54,4.06,1.81,1.85,4.34,4.69,3.49,7.31-1.06,1.91-3.93,1.7-6.02,1.59-10.81-.78-21.73-1.42-32.66-1.81-13.25-.48-26.54-.6-39.73-.23-56.02.62-145.68,34.17-195.42,22.1-5.37-1.08-9.29-6.26-14.81-8.66-25.84-11.44-41.13-25.05-52.62-50.66-1.02-2.22-2-4.46-3.3-6.51-1.81-3.1-4.41-5.46-3-8.11,1.02-1.81,4.68-2.34,6.98-1.71,3.41.77,5.36,2.75,8.54,4.56,1.57.92,3.41,1.88,5.09,2.8,13.02,7.02,24.09,16.62,37.58,21.86,5.57,2.25,11.9,3.41,17.37,5.81,2.16,1.1,4.06,2.81,5.2,3,.63.19,1.08-.28,1.02-.88-.13-3.53-3.87-5.84-6.68-7.53-6.86-3.63-11.08-11.2-14.82-18.3-9.33-19.24-7.61-29.12,15.42-24.08,4.6,1.18,7.65,4.27,11.78,6.58,10.84,5.26,20.95,9.68,32.09,14.47,3.68,1.29,6.99,3.79,10.09,5.73,1.14.6,2.04,1.02,3.32,1.14,3.14.23,4.87-2.04,8.06-3.52,1.47-.86,3.81-1.37,4.77-2.74.12-1.58-4.83-2.5-6.16-3.11-3.75-1.09-6.56-3.66-9.76-5.89-1.81-1.31-3.8-2.48-5.28-4.17-1.63-1.85-2.35-4.32-3.32-6.55-1.18-2.96-3.29-5.06-4.26-8.29-1.22-3.82-.64-8.8,4.54-8.23,4.48.38,10.3,1.81,14.6,3.76,13.36,7.48,22.36,20.15,40,20.86,2.03.12,5.35-.16,3.04-2.55-2.93-2.65-6.37-4.34-8.12-8.35-1.55-3.23-2.17-7.11-2.51-10.7-2.33-22.01,6.39-35.85,27.45-27.98,12.19,4.09,14.99,21.26,25.4,25.64,1.38.51,3.43,1.1,4.56.41.36-.45.15-.81-.04-1.32-.86-1.72-2.27-4.04-1.84-6.2.41-3.31,3.16-5.46,4.21-8.48,1-2.77,1.2-7.35,3.11-10.54,3.72-7.11,19.22-8.58,25.44-4.87l.16.09c3.17,2.13,7.01,4.43,11.11,5.53,4.31,1.56,8.74,2.54,12.17,5.34,5.1,4.91,8.57,14.49,11.92,22.48ZM1157.66,841.85c1-.6,1.65.8,2.88,2.34l.12.16c.65.86,1.38,1.62,2.03,2.37,2.19,2.57,2.17,6.55-1.82,6.99-4.77,1.07-13.62,3.21-16.97,3.86-.54.06-.62-.07-.24-.57,1.15-1.38,2.58-2.87,4.08-4.53,3.11-3.2,6.93-8.06,9.93-10.61ZM1348.7,209.65c-3.61,23.89-4.05,49.37-9.45,73.07-7.35,33.75-8.24,69.67-12.2,105.43-.23,4.5-2.32,8.37-4.74,11.98-2.04,4.82-.6,10.44-.88,15.66-.1,3.74,3.92,101.7-2.38,74.93-2.09-11.64-1.75-23.94-4.99-35.14-31.88-145.57-18.86-264.5-19.57-441.91.02-2.1.04-3.91.06-5.93.11-.97-.45-1.84,1.74.75,4.87,5.7,10.65,12.66,15.34,18.12l.11.13c15.86,18,18.17,43.67,24.36,66.56,5.01,19.51,14.27,39.59,16.33,58.79,2,18.73.15,39.02-3.72,57.57ZM1672.35,1067.13c-5.38-.91-17.36-3.13-21.83-3.97-2.91-.33-1.32-3.78-1.02-6.03.65-2.24.54-6.51,3.73-5.78,4.27,1.16,11.73,4.57,15.51,7.79l.14.14c1.71,1.82,4.06,4.99,4.78,7.31.04.71-.72.59-1.31.53ZM1502.77,1291.03c-.28,7.83-2.55,15.75-3.94,23.67-3.12,14.56-5.07,48.38-18.32,57.99-13.93,8.16-32.93-1.49-36.01-17.4-.93-3.63-.33-7.54-1.38-11.1-1.14-3.4-3.92-5.28-4.38-9.15-.26-5.19-.93-11.3.75-16.36,1.22-2.84,3.43-5.14,4.68-8.54.88-2.38,1.46-5.11,2.12-7.5,2.79-11,6.13-22.18,10.11-33.16,2.71-7.62,5.42-15.46,6.71-23.29,1.04-6.36,5.13-6.09,9.21-1.83,1.32,1.33,2.58,2.73,4.05,3.89l.16.13c5.48,4.11,12.25,5.5,19.04,5.56,1.85.07,4.1.2,5.3,1.67.99,1.1,1.13,3.39,1.1,5.14-.12,9.88,1.24,20.83.8,30.3ZM1572.97,1353.13c-.54,10.92-4.05,21.67-5.37,32.69-2.63,19.18-3.15,40.35-14.44,56.07-.97,1.17-1.97,1.92-3.1,1.99-52.9-27.72-34.84-158.25-30.17-209.64,1.24-10.97.86-22.38-.77-33.36-.79-6.52.9-5.33,4.48-1.28l.15.16c1.46,1.6,3.14,3.02,4.88,4.33,14.07,10.53,29.58,21.95,36.74,39.28,3.59,8.35-.84,17.21,4.94,24.53,1.5,2.13,2.41,4.57,2.5,7.19,1.36,18.1,1.6,54.78.17,78.03ZM1657.41,1486.35c-.73,4.04-3.52,6.67-5.52,10.55-1.95,3.02-1.76,8.92-6,9.6-1.68.02-3.37-1.09-4.74-2.14-5.93-4.57-10.88-9.93-15.79-15.45-4.68-5.18-9.6-10.22-11.72-16.99-1.48-3.96-3.68-7.67-6.04-11.16-31.26-56.21-18.44-121.32-24.22-183.78-.22-1.96-.54-3.66-1.4-5.45-.76-1.65-1.73-2.84-2.23-4.31-.26-.69.13-1.2.97-1.1,6.1,1.72,8.18,12.35,11.97,17.13l.12.16c4.69,5.49,9.9,11.11,16.53,14.32,3.21,1.72,7.28,3.27,9.17,6.5.97,1.65,1.15,3.81,1.16,5.82-.08,4.37.18,8.97.96,13.36,6.41,39.4,16.39,74.39,28.98,111.95,1.48,5.92,6.23,10.41,7.99,15.98,2.37,10.58,1.48,24.79-.18,35ZM1239.16,1238.54c-7.78-.02-16.22.54-24.14.55-167.78-13.98-237.99-99.48-377.67-168.73-17.05-9.53-33.22-19.96-47.36-33.27-20.59-18.57-34.45-44.31-59.32-57.75-5.86-3.66-2.29-8.23.45-12.92,2.86-5.07,3.77-12.66,5.43-18.74,2-6.35,5.97-11.25,6.94-17.98,5.25-50.31,2.83-107.48,68.04-109.93,8.25-2.6,23.39,6.26,28.21.93,5.52-15.88-8.63-30.39-16.45-43.09-14.3-24.54-32.23-48.68-62.57-52.72-29.63-4.56-57.1,12.57-82.99,24.71-28.98,14.23-60.56,22.4-91.52,32.28-19.95,8.48-13.89,4.33-24.79-11.56-38.85-65.25-26.36-85.83-25.17-156.28-.66-38.68-10.5-76.13-18.46-113.34-15.62-84.97-42.85-163.95-62.16-247.93-5.45-46-3.83-93.95-1.83-140.2.24-8.88.81-17.84.65-26.65-.03-4.16-2.56-6.1-6.85-5.35-8.04,1.38-15.55,4.79-21.17,10.6-15.16,14.87-19,36.56-29.28,54.45-1.45,3.96-1.63,8.44-2.78,12.47-.44,1.32-1.09,1.96-1.91,1.9-5.44-2.91-6.05-11.2-8.62-16.87-1.61-4.11-3.7-8.1-5.56-12.04-6.2-13.66-5.29-30.05-11.3-45.33-3.18-9.28-14.35-2.65-17.62,3.38-5.76,12.14-13.61,24.61-18.93,36.77-6.19,9.1-3.65,51.53-9.15,40.73-6.3-9.36-7.69-20.53-10.2-31.77-2.53-7.07-6.99-12.48-7.55-20.35-1.13-5.46-.79-11.44-2.78-16.58-1.65-3.64-5.81-2.67-8.58-.94-12.69,7.71-14.48,25.92-22.32,38.1-4.67,16.2-5.32,34.72-4.93,52.09-.43,2.68,4.07,29.79-1.62,17.06-3.66-9.11-9.94-17.91-14.13-26.68-4.04-6.46-3.79-15.32-8.68-21.09-4.92-3.8-10.43.23-12.94,5.47-2.55,4.21-5.4,8.44-7.52,12.92-4.36,9.24-2.96,15.79-3.81,25.32.17,6.32-4.1,10.89-5.29,16.74-.54,5.33,3.62,9.74,4.08,15,.55,3.13.28,18.25-4.41,11.41-2.45-4.44-3.15-10.88-6.01-14.65-5.59-7.58-11.1,1.87-13.66,7.33-10.18,16.8-3.19,39.2-4.49,57.53-2.19-1.24-3.11-5.98-6.17-6.19-3.03.33-4.59,4.22-5.48,7.14-9.69,32.32-3.81,67.39,9.59,97.52,1.17,2.39,1.94,7-2.01,5.19-7.7-3.29-11.25-12.48-18.43-16.38-2.1-1.25-5.06-1.98-6.41.43-4.26,16.06.22,57.01,4.7,75,1.13,4.32,6.69,8.82,5.63,13.31-5.03,4.04-8.22-17.98-19.01-5.45-2.38,4.55-2.15,10.13-3.66,14.83-3.88,7.44-6.78,16.37-1.58,23.89,5.1,11.19,5.09,24.2,15.84,32.93,1.15,1.04,2.86,2.45,3.8,3.31,1,.93,1.2,1.41.29,1.38-13.84-4.24-19.7-3.89-23.64,10.7-3.55,12.41,2.32,23.2,8.77,33.33,5.22,12.89,15.04,22.37,24.41,32.01,1.33,3.28-2.72.64-4.9-.54-13.53-9.33-19.96,10.99-17.2,21.48,1.5,10.97,14.13,18.54,19.41,27.55.89,1.88-1.15,2.79-2.39,3.79-4.69,2.84-9.75,9.24-8.19,15.48,1.21,5.5,7.11,7,10.29,10.96,2.4,3.3,1.84,8.29,2.84,12.99.87,3.99,1.65,8.46-1.6,11.63-14.51,12.29-19.88,31.26,1.8,38.14,3.71,1.75,7.04,3.23,3.37,7.25-10.41,12.43-7.31,33.06,7.75,37.72,7.84,2.13,7.56,4.47,2.9,10.64-6.12,9.72-3.37,21.27,6.53,25.45,2.79,1.34,7.17,2.14,8.25,5.22.47,3.3-2.31,6.17-2.58,9.58-1.87,9.12,4.96,17.79,13.26,20.69,3.4,1.48,10.31-.86,12.81,2.08.74,2.77-2.06,5.63-2.9,8.29-7.64,16.3,4.15,20.58,17.42,18.92,5.59.6,2.35,7.52,2.65,11.35-2.31,22,8.31,29.1,30.39,22.54,2.94-.68,6.54-2.04,9.31-1,3.77,2.04,2.48,7.57,4.2,11.03,5.68,13.33,18.8-.87,26.08,3.77,3.83,6.46,4.3,16.71,13.79,17.8,12.41,2.15,17-6.96,25.21-14.44,4.52-1.67,8.15,4.57,12.9,3.9,6.42-.72,11.34-7.33,15.49-12.07,2.12-2.78,3.16-6.83,5.65-8.15,7.61-2.06,17.11-2.43,22.75-8.71l.14-.12c7.28-6.25,12.63-16.95,20.26-22.65,2.06,11.71-17.67,18.43-23.53,27.62-19.17,24.07-45.73,44.27-56.96,73.61-.87,2.72-2.32,10.47,1.72,9.05,7.9-9.94,19.31-19.28,28.18-28.79,41.54-47.59,83.31-90.74,136.97-125.35,22.01-23.04,41.49-49.85,69.86-65.86,26.63-15.7,58.27-20.89,85.89-34.41,19.19-8.58,36.76-20.96,57.72-24.77,19.24-3.14,42.62-.32,58.95,10.75,5.21,3.54,9.03,8.64,12.74,13.69,2.45,3.45,6.22,7,8.56,10.12,1.37,2.01,1.52,3.53-.47,4.39-6.66,2.73-16.16-1.57-22.12,2.71-1,5.02,6.67,8.53,9.82,11.86,10.65,8.62,25.93,6.29,35.38,17.23,14.83,18.35-12.1.26-18.58-1.77-8.51-3.73-4.53,2.54-3.65,6.64-1.11,4.58-9.24,1.52-13.85,2.79-20.31.31-38.42,9.89-48.06,27.89-12.24,23.1-9.91,53.3-16.98,78.38-3.65,12.38-9.87,25.89-15.2,38.33-4.41,9.91-6.99,20.19-13.66,29.02-19.5,25.87-50.1,42.98-69.03,69.23-5.55,14.19,12.19-1.35,15.4-4.29,19.01-14.07,36.46-27.45,53.82-44.38,25.88-28.12,18.12-33.65,48.32-2.75,41.08,53.77,101.02,79.53,158.53,112.31,26.78,16.34,51.1,35.9,77,53.56,8.56,6.68,18.72,9.95,27.68,15.72,1.36.89,4.64,4.16,2.41,4.76-5.99-.16-10.39-6.05-15.83-8.35-12.28-4.37-22.08-13.56-33.85-19.77-1.66-.88-5.5-3.05-6.13-1.11-.29,1.4,1.92,4.64,4.83,7,32.29,23.94,67.86,40.27,102.97,57.56,37.68,19.16,62.43,36.11,106.43,40.19,6.78,1.45,3.93,4.75-1.76,6.67-2.81.93-6.02,1.58-9.09,1.98-12.51,1.74-25.2,1.18-37.93.58-8.3.24-14.41-4.18-20.78-8.96-49.93-27.31-93.41-61.51-139.73-93.71-3.39-2.1-11.91-7.35-15.32-5.85-.95,3.48,6.24,8.12,9.29,10.55,47.26,38.97,102.53,83.98,159.22,108.09,5.13,1.62,19.14,7.78,6.13,8.35-9.11-.01-28.19.03-35.99-.02-5.69-.02-8.23-5.34-13.02-7.83-47.01-27.82-85.29-71.03-129.05-102.69-.9,5.62,8.23,13.28,11.8,17.73,36.01,35.92,77.24,70.92,119.68,99.36,5.85,4.79,30.56,12.69,7.9,11.52-14.61.03-37.62-.04-50.01,0-3.43-.15-7.32.71-9.42-1.91-30.91-35.1-57.98-75.32-87.26-111.39-3.76-3.91-8.95-10.96-14.18-11.86-1.65.56-.72,2.4.39,4.54,27.01,34.29,50.81,70.17,77.08,105.92,10.84,16.02,32.32,31.71,43.72,45.9-11.59.65-30.18,1.12-42.03-.26-41.71-17.77-56.94-59.01-72.34-98.54-4.48-11.56-13.19-21.45-17.83-32.95-2.23-5.86-3.27-14.29-6.03-18.98-7.15-9.1-8.19,5.88-7.09,11.11,13.46,36.66,32.03,88.95,56.22,120.07,4.14,4.91,9.47,8.36,15.08,12.05,2.97,2.15,6.27,4.22,6.45,7.69-2.65,9.53-19.58,13.94-28.37,12.77-46.43-11.5-52.72-79.31-64.23-119.23-1.38-6.32-6.33-11.08-7.01-18.08-2.05-8.53,2-23.03-3.4-29.55-3.94,1.51-1.82,28.26-2.52,33.67,2.43,38.21,13.86,84.85,34.17,117.91,1.92,3.17,2.3,6.96.32,10.09-7.29,9.49-20.77,18.45-32.53,11.74-10.27-6.41-22.38-15.71-24.87-27.63-.8-6.84-4.86-12.2-6.58-18.69-1.35-16.27-1.58-41.1.12-59.05,9.1-16.95,3.78-36.44,5.64-55.22,1.9-9.81-5.16-11.68-6.51-1.06-2.78,19.9-6.08,39.85-5.77,59.96-.73,4.39-3.57,7.63-4.58,11.88-1.65,14.12-1.1,34.53-.48,47.72,1.14,9.56,9.82,19.12,5.62,29.04-5.38,6.76-15.93,13.14-24.55,13.99-46.78-12.24-28.08-50.97-15.36-83.02,3.9-9.78,10.17-22.35,13.45-33.01,3.95-13.58,6.05-29.74,7.94-44.43.24-2.39,2.7-15.83-2.45-12.21-3.84,6.76-2.99,16.64-5.21,24.16-7.23,25.71-14.83,53.45-25.81,78.49-10.17,18.52-19.45,38.6-7.14,58.71,1.02,2.02,2.41,4.9-.13,6.15-34.22,4.69-40.25-24.12-28.64-53.08,12.96-39.95,37.08-77,48.95-117.62,1.39-2.68,1.04-7.76-2.76-5.12-18.77,39.29-40.5,81.07-57.15,122.21-6.73,14.42-3.2,31.2-7.93,45.55-6.71,10.14-24.39,1.23-26.25-8.81-1.57-7.6,4.84-13.49,6.54-20.84,14.08-49.95,43.96-88.8,55.19-137.76-2.28-2-6.22,3.99-7.25,6.55-18.88,47.89-51.31,92.19-60.96,143.08-.17,11.02-14.86,10.87-22.1,11.97-20.04-16.08,51.03-111.59,61.64-134.32,2.7-3.56,14.4-28.5,1.27-18.4-4.16,5.36-5.87,13.35-9.99,19.07-21.54,37.39-51.81,78.67-64.51,118.82-1.28,7.39-8.47,7.08-14.95,6.87-1.98-.08-4.28-.48-5.62-1.89-2.92-3.85-.27-9.82,2.23-13.43,25.92-38.12,46.86-83.07,72.25-121.56,2.25-6.09,12.59-11.11,11.09-17.64-9.2-5.76-19.31,24.14-24.71,29.95-17.98,29.1-35.79,58.25-53.11,87.42-5.22,8.63-10.71,20.63-18.42,26.77-3.74,2.29-8.36,2.5-12.67,3.08-6.85.46-17.77,3.27-12.35-5.42,21.46-40.02,47.44-76.03,74.38-112.74,5.71-6.7,15.04-17.63,20.47-24.01,3.58-3.9,5.83-7.3-.81-4.81-5.06,2-9.52,6.1-13.15,10.14-26.49,30.65-49.39,65.34-71.25,99.42-3.28,4.51-6.29,10.02-11.55,12.13-4.74,1.77-13.8,3.25-17.26,1.91-4.39-3.66,3.49-8.1,5.67-11.89,30.39-39.73,61.91-78.47,90.62-119.38,2.46-4.16,1.56-8.99-3.68-4.72-9.12,7.69-17.18,23.23-25.21,32.63-20.45,27.08-44.01,51.29-62.86,78.24-2.17,3.93-6.53,3.72-10.42,3.29-6.01-1.02-16.13.26-13.14-7.64,25.6-30.55,54.38-59.99,79.81-90.79,5.19-6.74,15.63-14.27,15.33-23.1-12.76,8.15-93.98,98.66-106.18,109.4-2.8.68-11.01-5.2-13.03-8.62-2.01-3.73,1.81-7.46,4.44-10.13,28.01-26.36,57.64-51.56,85.05-79.17,2.99-2.58,23.95-24.89,8.36-17.7-4.9,3.86-7.52,10.1-12.47,14.14-19.58,19.12-43.67,34.91-62.67,54.37-7.65,8.06-14.72,17.24-23.88,23.68-4.81,3.97-11.45,1.74-8.8-4.73,3.68-6.99,10.94-11.42,15.84-17.57,21.05-25.16,62.02-44.92,70.06-77.78-.48-.54-1.04.45-1.56.73-12.37,12.32-55.99,56.47-74.62,75.06-3.05,4.08-6.39,4.24-9.74.95-4.81-4.64-9.52-10.03-3.84-15.59,16.3-22.93,41.24-34.87,64.7-50.09,3.54-1.56,24.58-18.86,10.06-15.63-6.15,2.18-10.78,7.77-15.94,11.36-7.89,5.24-15.99,9.76-23.58,14.85-11.71,8.77-26.11,14.5-36.83,24.71-12.07,18.05-21.82-.34-13.03-12.71,15.54-16.89,37.37-17.16,57.17-29.1,6.21-4,14.44-5.71,19.09-11.42,1.75-2.64.53-4.83-2.36-3.95-3.73,1.19-6.77,4.52-10.41,6.06-5.05,2.37-11.41,3.27-16.23,5.61-3.37,1.91-20.53,13.74-14.36,2.43,20.82-25.17,42.68-48.85,65.09-73.25,2.99-3.22,7.04-5.71,9.45-9.16,2.48-3.96-1.36-5.16-4.5-3.17-21.14,14.25-34.84,37.04-52.64,54.79-5.44,4.11-11.86,18.13-19.62,14.33-13.37-13.41-34.55-3.63-47.74,4.97-10.46,7-23.07,16.93-33.23,21.93-4.35,3.34-14.43,1.09-15.11,7.82,4.68,13.01,23.64,7.47,32.56,1.82,3.98-1.96,8.89-2.9,12.71-5.32,2.91-1.55,5.65-4.45,9.08-4.36,2.12.18,4.46,2.56,4.52,4.88-.51,4.97-7.62,4.76-11.44,6.79-15.78,7.86-25.86,20.14-43.93,28.24-8.95,3.88-18.52,7.78-27.81,10.41-11.74,3.01-27.61-.47-39.24,2.85-1.63,3.87,8.56,9.99,13.27,9.56,13.52,1.84,10.05.15,8.88,9.65.3,3.76,3.23,6.55,3.82,10.21,1.14,9.29-5.13,17.07-5.5,26.26-2.24,10.24-9.68,19.29-19.36,22.79-2.85,1.19-7.09,1.67-7.81-.98-.96-9.96,3.08-26.97.51-35.98-2.67-8.21-9.79-3.47-9.33,3.72-1.09,14.48-4.06,27.91-10.55,41.26-3.77,8.05-4.92,16.98-10.25,24.13-28.88,38.29-33.41-2.88-29.32-28.47.51-14.96,18.17-46.19,12.62-56.15-11.71-2.09-12.08,15.31-16.51,22.66-12.48,24.16-30.85,82.95-57.85,91.12-3.75-2.38-3.21-11.06-1.6-15.3,11.73-27.35,13.16-52.6,28.62-78.76,4.91-8.7,9.97-18.85,15.31-27.49,1.24-2.36,7.27-5.51,7.36-7.12-5.36-2.88-11.18,2.02-14.36,7.29-8.86,11.63-16.26,24.79-26.36,35.19-18.31,15.76-44.63,52.12-68.88,36.51-3.71-5.33.73-10.62,3.62-15.81,16.93-41.03,59.53-56.03,83.92-91.13,10.64-16.34-14.81,2.62-17.86,5.56-11.09,8.96-21.98,21.6-34.97,28.69-8.28,5.25-36.78,12.5-34.71-4.35,12.52-26.2,27.43-53.71,52.39-70.51,10.08-6.55,23.55-12.09,31.44-21.07,5.48-6.97,5.14-16.98,8.03-25.03,11.52-31.54,26.5-62.4,49.14-87.63,3.65-4.31.55-9.28-4.39-5.12-2.09,1.73-3.88,4.37-6.29,5.56-5.89,2.56-11.24-4.03-16.88-5.5-61.71-22.05-121.04-44.46-181.51-67.91-20.95-7.17-75.18-18.87-88.68,4.13-3.31,5.2-3.21,11.99-5.28,17.44-3.01,5.58-4.04,11.96-6.85,17.56-2.22,3.36-6.39,5-8.98,7.68-6.84,8.11-10.54,23.23-12.61,32.51-4.37,34.65,16.94,31.69.62,47.13-4.38,5.99-9.09,12.61-10.69,19.96-1.77,10.54,7.05,17.59,9.82,26.82,1.17,12.08-3.54,28.62,5.54,39.11,2.02,2.71,4.39,5.61,4.7,9.02-2.63,16.97-8.19,35.62.59,51.99,4.44,8.98,15.71,13.17,18.88,22.73,3.04,8.51,3.8,23.28,13.44,26.94,1.64.87,5.12.56,4.23-1.95-1.45-5.3-9.78-10.01-11.34-15.96-1.12-3.82-3.36-7.77.31-9.3,6.74-1.17,16.29-.14,23.21-.57,4.42-.15,6.54-2.71,10.06-4.68,10.94-4.97,22.83-6.68,34.02-10.89,32.31-10.54,61.01-33.1,91.36-47.43,5.02-2.04,12.8-6.16,18-5.39.65,2.15-3.67,5.11-5.16,7.71-2.49,3.41-4.21,6.78-8.28,8.3-7.17,3.13-21.47,8.18-29.99,11.61-35.95,17.01-80.71,37.51-111.56,62.8-20.19,14.84-15.34,43.96.51,60.2,5.06,5.02,13.87,4.3,18.29,9.36,3.97,6.35,3.62,15.54,9.57,20.93,5.37,5.48,14.38,9.34,22.15,8.99,1.88.11,5.24-.52,6.18,1.03,1.16,1.29.18,4.25,0,6.05-5.06,21.94-5.25,51.98,18.55,61.91,8.98,2.91,17.93,11.38,27.73,6.51,5.65-2.32,11.43-4.83,16.75-8.47,4.34-3.61,8.48-2.37,11.99,1.45,4.79,2.95,9.88,6.42,15.04,8.17,4.36,1.3,9.39,1.1,13.02,4.25,10.27,11.03,23.68,22.72,39.42,22.61,11.44,1.65,18.11-17.62,28.56-6.18,3.46,3.31,7.57,6.4,11.69,8.68,8.27,5.47,16.97,11.44,26.63,13.82,3.87,1.58,7.86,4.49,12.17,4.03,3.23-.48,5.91-2.56,8.91-3.78,3.69-1.61,8.85-2.25,11.87-5.14,2.19-1.91,3-5.16,5.52-6.63.64-.25,1.25-.43,1.94-.23,15.7,8.97,21.05,6.05,36.09-.49,16.86-2.41,34.16.74,50.77-4.4,6.12-1.78,11.09-6.03,16.27-9.54,13.12-9.74,26.08,5.59,42.11-4.61,22.28-15.11,6.19-16.05,36.88-17.1,16.43-2.65,28.82-12.22,40.49-23.38,6.62-6.96,5.21-18.3,3.64-26.88-37.86-64.07-76.35-128.02-111.13-193.3-1.27-6.47,13.86-17.43,13.57-5.8-2.31,13.27,4.1,17.61,12.93,25.26,3.49,4.41,5.69,11.36,9.93,15.47,1.37,1.46,3.25,2.65,4.11,4.38.58,1.63-.29,2.75-1.22,4.64-4.92,6.66,3.18,11.27,4.98,17.4,1.78,17.71,7.29,11.6,19.61,17.03,7.14,8.42,3.71,14.48,18.96,14.76,2.73.24,6.61-.04,8.28,2.39,1.86,5.39-7.96,10.95-5.8,17.01,3.31,5.86,18.88.04,25.05,1.59,11.64,3-18.95,22.27,5.13,26.17,8.16,1.68,23.37-8.24,28.33-2.76,2.84,3.35,4.59,8.28,9.06,9.98,5,2.13,11.53.36,16.21.28,6.42.58,5.8,9.54,15.19,9.19,7.52.77,12.36-6.08,19.33-5.53,3.21.69,5.28,4.32,7.07,6.91,6.16,9.4,19.06,13.73,28.41,7.67,14.7-12.6,19.03,13.55,44.84,7.91,10.15-4.13,12.78-6.92,22.77.81,7.81,5.78,17.78,5.71,26.5,2.88,4.99-2.86,10.81-5.83,14.69-9.87,1.54-1.79,2.62-4.3,4.81-5.36,2.95-1.36,5.95,1.83,8.14,3.64,11.88,11.61,25.04,17.56,41.34,14.51,9.68-1.25,16.99-10.35,20.14-18.41,1.09-2.58,2.03-4.4,3.65-4.46,5.56,1.01,8.91,9.49,14.48,11.2,10.08,4.23,28.81,4.36,39.78.61,11.18-1.93,11.19-20.55,23.73-17.94,3.68.82,6.81,3.25,10.4,4.33,6.46,1.65,16.6,1.26,23.87.71,5.74-.7,9.26-4.57,15.38-4.9,2.95-.17,6.1.07,9.02.04,1.97-.04,4.41-.17,3.57-2.47-3.34-6.1-11.04-14.65-14.52-20.04-3.73-4.88,1.32-4.6,5.41-4.28,11.53-.03,62.94,5.6,58.72-12.82-1.41-2.26-9.26-3.98-6.43-6.99,12.16-3.14,29.24,2.74,40.13-4.02,1.56-.98,2.98-2.39,3.44-4.12.31-1.44-.78-2.83-2-4.11-3.34-2.88-2.27-4.05,2.09-4.43,21.47-.31,28.59.16,47.05-12.65,2.51-2.8,2.33-7.46,5.96-9.27,13.58-2.45,27.38-5.78,38.97-13.54,4.25-2.76,10.11-6.78,10.04-12.25-.37-1.67-2.45-2.24-5.62-2.23ZM221.94,205.84c.14-4.77,5.06-7.34,5.5-12.08,1.17-7.75.98-17.09,4.17-25.16,2.88-6.5,7.35-3.55,9.04,1.36,3.44,9.04,4.08,20.41,7.3,29.17l.07.19c1.42,3.91,3.35,7.91,5.57,12.08,49.44,85.45,103.5,169.79,146.76,257.68,2.58,5.36,5.05,10.64,6.39,16.53.58,2.51.81,4.25.41,4.16-.35-.14-.51-.48-.86-.94-5.32-8.14-19.02-29.59-26.08-40.32-38.2-56.81-104.57-103.66-140.93-160.35-2.32-3.49-6.01-6-7.97-9.96-4.79-11.57-1.99-27.02-4.21-39.4-.69-3.11-3.08-5.16-4.32-7.82-.72-1.5-.92-3.57-.98-5.42-.21-5.71-.23-14.53.14-19.74ZM157.44,504.28c-1.83-5.09-5.91-8.61-6.16-13.98-.3-4.03,1.04-13.89,4.9-15.66,3.03-.09,5.37,4.31,8.07,7.05.94,1.11,1.9,2.23,2.82,3.32l.13.15c31.64,38.46,89.74,52.43,134.28,73.11,7.78,3.54,15.52,7.23,23.29,10.91,15.16,7.18,30.37,14.35,46.1,20.28,2.1,1.06,10.22,2.28,9.2,5.37-1.7,2.32-5.08,1.81-7.87,1.29-30.56-11.72-80.86-13.77-117.2-21.25-5.34-.83-8.72-4.92-14.09-6.56-21.69-5.24-47-8.15-62.78-24.03-10.87-10.95-16.25-25.46-20.68-39.98ZM170.05,688.7c-2.04-1.4-2.06-5.31-1.27-7.66,3.05-11.5,14.41-12.31,24.59-15.35,4.01-1,6.45-4.6,10.64-5.63,2.35-.6,5.21-.75,6.81,1.03l.1.12c4.92,6.89-27.08,8.24-35.55,23.6-1.09,1.78-3.01,5.19-5.32,3.88ZM164.02,749.26c-2.41-2.45-2.09-7.2-.18-9.87,1.3-1.81,3.14-2.99,4.47-5.03,3.53-6.18,5.49-10.85,13.85-9.91,12.13.92,27.21,4.97,37.99,7.37l.19.04c5.46,1.25,11.06,2.46,16.67,3.14,4.84.7,10.08.86,14.89,2.15,4.01,1.08,5.57,2.91.35,3.44-6.92.91-15.65-.3-20.97,4.76-1.47,1.19-2.92,1.86-4.75,2.13-14.41,2.29-52.93,8.62-62.52,1.76ZM186.28,798.34c-7.86-1.71-12.8-8.9-11.41-16.96,5.87-31.28,55.36-27.04,81.7-33.65,4.21-.7,6.97-3.43,10.82-5.57,1.97-1.07,4.28-1.69,6.52-2.26,7.22-1.79,14.79-3.59,22.14-4.16h.07c1.23.13-1.24,1.04-4.02,2.46-8.74,4.26-23.41,11.4-32.94,16.04-3.33,1.46-5.46,3.91-8.12,6.4-8.09,7.69-17.16,14.49-25.01,22.45-4.09,3.55-4.84,9.94-9.84,12.32-4.31,1.69-9.63,2.3-14.33,2.96-5.39.6-10.79,1.29-15.59-.03ZM201.24,837.26c-6.49-1.05-17.15-9.73-12.55-17.34,1.34-1.81,3.07-2.77,5.06-4.42,5.19-4.06,12.23-9.57,17.33-13.56,2.62-1.88,4.11-3.78,4.86-2.58l.03.08c.54,3.51-3.15,5.81-4.17,8.88-1.09,3.8-1.07,8.36-.2,12.3.58,1.93,2.29,3.08,3.36,4.89,2.09,3.27-.42,5.87-3.54,7.71-3.16,1.81-6.43,4.48-10.17,4.03ZM221.68,866.8c-7.98.22-17.74-.68-16.27-11.09.41-4.35,1.55-9.62,3.4-13.66,7.23-16.3,30.64-7.31,46.8-12.4,3.33-1.64,6.07-4.27,9.82-5.06,11.53-2.55,23.63-5.11,35.15-7.5h.08c.39.04.46.23.22.63-.13.22-.37.5-.67.85-3.81,4.03-14.85,15.56-20.37,21.36-2.64,2.81-3.84,4.06-7.25,5.96-15.2,8.48-33.74,19.82-50.91,20.92ZM238.24,900.17c-2.69,1.73-7.27,1.47-9.15-.91-3.6-4.95-.59-12.58,1.9-17.8,2.48-4.73,5.65-9.4,10.43-11.97,3.4-1.89,7.57-2.46,10.51-4.1,3.95-1.91,6.58-7.74,11.39-7.44,3.81.96,1.14,6.71-.96,8.83l-.13.15c-2.87,2.78-3.77,6.73-3.29,10.82,0,4.28,1.36,9.84-2.78,12.54-2.51,1.71-7.33,3.35-10.73,4.87-2.77,1.16-4.61,3.55-7.19,5.01ZM281.16,925.39c-4.29,1.9-9.85,2.85-13.49,5.09-2.09,1.32-4,3.06-6.45,3.67-8.35,1.72-15.55-7.66-14.52-15.71.77-4.01,4.52-6.53,5.33-10.57,1.92-9.31,5.21-22.67,16.29-11.26l.15.14c11.07,9.92,26.79-2.87,39.2-4.97,7.04-1.46,5.07.12.96,5.04-5.92,7.12-15.98,19.24-19.51,23.47-2,2.53-4.96,3.87-7.96,5.11ZM351.1,939.62c-1.76,2.8-2.43,6.8-3.97,9.97-2.84,5.75-8.88,11.56-15.11,14.15-5.82,2.44-10.77-1.09-10.47-7.44.08-21.65,14.93-30.9,23.96-47.19,4.88-5.65,5.24,9.4,6.87,11.41l.08.15c1.01,1.88,2.9,3.14,3.74,5.66,1.89,5.17-2.34,9.41-5.09,13.29ZM309.69,940.53c-5.25,3.01-8.95,11.86-16.1,9.68-5.92-2.48-3.28-14.32-1.95-18.97.94-2.75,2.25-4.23,4.54-6.6,6.63-6.85,15.52-14.77,22.32-22,16.41-17.59,32.98-38.12,51.88-53.66,2.34.06-.31,6.78-1.7,8.94l-.12.22c-5.07,8.63-7.74,15.6-11.32,24.95-7.98,20.34-30.4,43.99-47.55,57.46ZM375.56,940.3c-1.49,6.07-4.48,11.11-10.67,11.98-1.43.17-3.58.47-4.46-.79-.38-.58-.39-1.49-.24-2.7.38-3,.84-6.55,1.24-9.62.35-2.11,0-4.58,2.91-4.1,2.7.21,5.95.54,8.6.8,1.5.18,2.43.51,2.77,1.25l.05.12c.32.86.03,2.06-.2,3.05ZM452.82,873.09c-.07,4.73-.17,9.75-1.82,14.12-1.14,2.86-3.63,4.7-5.22,7.25-2.02,3.2-2.26,7.76-5.05,9.7-1.35,1.01-3.21,1.33-4.46.6-6.29-5.09,5.78-23.5,8.01-30.51.8-2.93,4.54-6.77,7.48-5.05l.11.08c.93.67.97,2.52.96,3.8ZM541.14,813.56c-13.55,11.5-15.59,31.83-27.42,44.12-5.58,1.16-10.03,4.58-14.64,7.65-2.07,1.26-4.16-.13-3.09-2.68.69-2.36,2.56-4.9,3.4-7.39,2.35-7.43,3.19-16.43,3.86-24.42.04-2.06.18-6.77-2.18-6.9-2.03,1.97-2.2,5.74-3.54,8.48-5.87,9.43-6.18,20.92-10.59,31.04-4.34,10.3-17.99,26.27-25.47,9.47-2.33-3.61-5.64-6.19-5.73-10.91.06-4.6.69-9.79,2.68-13.78,2.37-4.55,4.97-8.7,5.82-13.93.99-5.34,8.25-31.48.8-31.46-18.54,40.4-38.04,119.07-89.67,125.15-9.42.03-14.59-6.08-16.21-14.95-4.96-47.33,57.53-102.18,81.66-140.92,2.58-7.08-4.02-6.03-7.55-2.42-32.96,42.33-83.09,92.93-130.55,117.41-38.76,18.97-44.57-8.37-22.09-35.32,35.35-41.98,87.13-67.62,130.77-99.73,4.97-3.7,9.54-7.36,13.35-12.47,8.01-12.52-4.8-4.99-9.91-1.05-44.97,26.29-106.66,73.82-157.54,84.22-8.67,1.35-34.22,5.28-39.24-3.06-4.23-12.94,5.11-21.58,12.86-30.72,41.99-52.58,119.02-60.48,180.11-83.59,3.87-1.28,15.31-6.82,14.05-11.22-17.24-.5-33.8,5.73-49.91,11.52-24.43,9.16-48.17,19.75-74.68,23-24.96,2.6-51.48,3.6-77.94-.35-15.27-2.99-47.52-8.94-45.93-29,2.69-7.45,12.47-9.33,18.55-13.5,55.63-31.13,146.72-31.4,212.49-29.29,1.7-.65,19.55-3.13,17.77-6.54-3.42-2.55-8.89-2.16-13.11-2.61-10.98-.82-23.72-1.02-34.46-3.33-20.78-11.51-25.21-1.15-45.24.31-22,1.83-48.1,1.07-69.62,4.79-13.1,2.66-25.34,4.71-38.73,5.1-17.8-.58-40.97,12.84-53.48-5.56-3.59-5.57-19.46-28.52-2.6-23.19,50.36,14.93,111.22,9.47,164.72,6.51,13-.05,22.49,2.95,34.21-4.18,18.91-3.86,40.03.68,59.51-2.89,6.46-2.57-2.37-5.18-5.65-5.1-69.72-6.01-139.33,7.94-209.19,5.2-9.46.41-15.4-6.42-21.07-12.85-17.78-15.7-46.12-33.48-42.24-60.43,3.48-4.97,17.49,4.93,22.84,6.52,57.69,26.02,121.75,40.23,185.97,44.54,4.27.07,8.97,3.33,12.33,4.32,14.09,1.27,36.1,1.3,49.32,2.03,8.55.88,5.23-1.98,1.3-4.46-4.59-2.93-10.89-4.42-16.44-6.81-7.03-3.07-11.8-9.27-18.54-12.7-55.66-31.39-117.2-53.66-174.77-81.19-6.71-2.9-12.66-6.67-17.29-12.64-13.61-18.55-20.41-41.9-25.94-63.93-2.02-9.98-8.62-23.36-2.39-32.6,3.12-1.03,5.77,4.65,7.79,7.07,3.31,4.42,6.73,7.78,10.58,11.48,12.05,11.41,26.11,22.91,38.91,33.86,65.38,52.56,134.79,98.23,199.66,150.27,7.37,5.33-3.12-8.39-4.74-11.75-62.19-69.81-152.11-107.2-216.47-174.15-4.84-6.7-4.47-13.97-7.46-21.79-3.54-10.25-7.56-18.11-10.25-29.29-2.1-11.12-6.89-21.8-7.37-33.13-.85-4.35,2.04-27.66,8.82-18.08,49.73,86.16,149.73,168.85,225.66,232.09,2.08.95,8.15,10.12,9.84,7.9.15-2.84-3.99-6.61-6.16-8.7-3.38-3.33-5.11-7.57-8.22-11.82-60.62-70.15-139.8-124.97-197.15-199.19-3-6.09-7.37-11.2-9.9-17.4-5.59-21.88-3.37-47.94-1.74-70.5,3.56-9.74,9.8,6.67,11.39,13.84,2.67,8.38,6.77,15.29,10.95,22.58,33.96,56.45,88.6,98.39,129.07,149.28,24.81,29.76,48.72,61.44,69.88,93.72,1.67,2.07,6.65,10.05,8.9,7.94.75-2.28-.03-10.53-.94-14.25-33.34-100.88-90.25-187.99-144.8-278.19-2.83-4.69-5.16-9.67-5.63-14.81-2.4-21.47-1.63-58.15,2.3-81.96.62-9.16,5.13-15.63,8.95-23.78.99-4.93,8.09-14.21,9.73-4.31,11.82,120.74,90.69,216.96,130.33,329.24,7.37,19.24,16.38,36.59,24.8,54.86.72,1.16,1.4,4.54,2.74,4.24,1.01-6.54-1.38-15.94-2.53-22.61-16.99-68.26-49.95-128.3-80.99-191.11-35.28-69.15-52.46-103.81-22.23-181.22.97-3.7,9.89-17.6,12.02-9.54,1.8,11.32,3.26,27.94,5.32,39.22l.03.15c6.34,23.67,19.36,46.02,27.47,69.12,36.19,97.56,64.99,196.44,86.83,298.19.98,3.22,3.52,7.81,5.11,8.69,2.38,1.29,1.66-3.39,1.77-5.46-.24-11.51-.27-24.05-1.2-35.25-15.47-91.39-47.39-185.45-79.06-272.77-1.46-5.39-5.36-9.71-7.37-14.67-3.04-8.06.78-15.42,4.22-22.6,5.78-24.45,9.37-35.44,24.76-56.05,3.2-5.8,13.64-17.32,12.43-3.72-.64,11.06.28,21.22-2.05,31.58-11.16,67.92,3.73,140.35,21.13,204.96,22.1,70.71,44.68,141.47,54.17,215.58,4.9,35.53,10.44,73.8,8.13,109.39.04,6.75-4.94,11.93-5.71,18.32-.74,12.32-1.34,21.23,5.25,32.31,2.93,9.58,4.14,18.53,8.6,27.5,7.66,17.66,18.29,32.68,28.47,48.62,6.9,12.71-10.17,18.31-17.79,24.71ZM284.29,1104.31c-1.8,2.58-3.09,5.13-2.99,8.32-.2,6.83,1.16,17.59.28,23.7-.87,3.72-5.03,3.57-8.07,5.43-1.39.71-3.06,2.73-4.46,1.06-5.55-7.13-13.42,1.86-19.26,4.11-7.23,3.03-17.86,7.91-25.99,10.72-7.64,2.36-16.89,2.57-24.96,1.9-3.19-.57-4.1-2.93-3.92-6.19,0-22.18,24.38-35.33,41.37-43.51,9.72-4.79,22.34-11.24,31.63-14.43,2.77-.95,5.66-1.4,8.6-1.41,3.1.03,6.66-.16,8.44,1.45l.12.11c2.34,2.31.71,6.35-.78,8.74ZM22.23,1014.18c1.74-3.88,5.66-5.95,8.59-8.99,2.15-1.78,4.47-7.54,7.51-5.21l.12.11c2.36,2.36,3.01,6.44,4.63,9.32,1.84,3.65,4.78,6.38,8.29,8.42,20.96,11.66,42.2,23.6,64.81,31.9,4.83,2.06,9.88,2.2,15.1,3.31,1.5.23,7.37,2.83,4.05,3.31-21.14.95-52.5.98-71.62,2.42-2.04.95-4.05,2.62-6.27,3.41-2.84,1.15-5.87,1-9.2,1.5-5.81.76-11.22,3.19-16.82,4.77-3.63.98-9.38,2.87-10.34-2.28-1.51-15.73-5.2-38.56,1.14-52ZM9.53,1096.7c1.19-3.54,3.82-6.08,5.8-8.8,1.67-2.13,2.84-4.67,4.71-6.63,8.25-6.98,23.09-11.14,35.16-14.4,6.42-1.6,11.37-2.06,17.56-2.54,56.98-5,118.17-3.05,171.24,11.21,9.52,1.54,20.52,2.08,30.14,3.7,1.97.39,7.43,1.04,3.53-1.23-3.58-1.89-8.4-2.54-12.19-4.13-7.04-3.07-14.06-8.19-20.27-13.05-3.23-2.9-7.29-4.95-9.96-8.38-4.07-5.97,3.05-8.73,7.51-11.18,3.32-1.95,6.04-4.89,9.84-5.73,8.94-1.25,20.2-.78,29.57-.6,2.59.12,4.56.18,6.84.61,5.66,1.43,10.27,4.13,16.81,5.89,2.64.74,5.51,1.8,8.21,1.27,2.14-.38,2.58-2.29,1.56-3.89-1.86-2.93-5.91-3.98-9.19-4.69-16.68-3.42-44.94-6.28-63.56-1.35-5.74,1.3-10.77,5.26-12.15,11.22-1.14,4.11-.63,8.9.09,12.9.53,2.76,1.2,5.48-1.96,6.03-1.97.34-4.24-.05-6.43-.88-3.18-1.27-4.8-2.98-7.43-3.9-20.95-5.14-45.06-6.05-65.46-10.43-8.09-1.67-15.49-3.35-23.67-5.21-23.23-5.64-48.75-11.7-65.68-23.87-4.44-3.86-9.24-8.71-12.91-13.25-5.06-6.34-5.63-34.63.87-42.11,3.26-3.64,6.49-8.04,10.94-9.84,11.68-3.55,37.87-1.47,52.1,1.83l.18.04c19.99,5.2,39.43,13.19,58.56,21.17,49.76,21.35,99.96,38.81,150.15,58.25,5.18,2.01,4.18,5,1.29,8.75-3.18,4.12-7.14,8.36-10.77,12.19-4.5,4.32-7.02,9.72-10.2,15.15-3.31,5.41-7.08,12.3-11.14,16.73-1.43,1.34-3.04,1.77-5.87,2.23-6.26.96-13.81,1.58-20.29,2.58-16.24,1.98-30.98,15.41-45,20.25-3.74,1.32-8.48,1.87-13.06,2.18-17.22,1.02-34.69-1.12-50.86,4.55-11.04,3.36-24,8.28-35.47,11.5-28.19,7.16-59.73,8.42-88.15,2.84-3.83-.84-7.24-2.77-9.98-5.58-8.21-8.35-14.42-19.62-11.02-31.42ZM16.94,1138.36c1.28-1.63,3.68-1.26,5.57-.91,6.18,1.23,12.73,2.06,18.71,3.26,1.44.29,2.88.87,4.04,1.67l.15.1c2.03,1.4,3.08,2.98,6,3.5,4.61.72,12.51,1.34,16.67,2.02.6.16-.02.25-1.04.42-5.89.77-12,2.7-16.98,5.42-3.72,2.04-7.39,4.44-11.02,6.73-3.23,2.06-5.94,3.7-7.89,5.97-1.63,1.67-3.32,4.82-5.91,4.57-2-.44-2.9-3.11-3.48-4.98-1.81-7.46-8.31-20.63-4.82-27.76ZM218.79,1171.26c-43.32,17.85-88.97,52.34-133.41,65.99-11.57,3.75-25.09,4.89-37.04,3.75-10.51-.74-15.62-10.53-19.12-19.1-1.61-4.01-5.61-6.45-6.27-10.86-.72-6.67-.8-15.65.14-22.15.68-3.39,3.97-5.61,5.48-8.87,2.57-6.74,4.2-8.94,10.8-11.84,5.45-3.02,9.96-7.16,16.15-8.65,31.47-12.59,65.5-22.82,98.29-30.45,14.45-4.05,30.32-3.06,45.16-4.89,1.9-.23,3.48-.48,4.08-.23l.06.03c.88.83-1.27,2.68-2.96,5-3.06,3.83-7.16,8.88-9.22,11.52-.78,1.04-1.47,2.06-1.82,3.29-.86,4.03-.59,9.35-.38,13.6.14,1.51.48,3.07,1.68,4.05,1.5,1.19,3.45,1.95,5.02,3.14,2.65,1.87,4.58,3.93,7.75,4.26,4.93.36,10.51.85,14.69-2.23,5.7-4.48,13.42-4.59,20.09-7.02,3.16-.99,5.7-2.37,8.47-4.19,1.68-1.12,11.96-8.02,8.58-1.56-2.37,3.51-5.5,4.91-9.95,7.19-7.7,3.69-18.23,7.24-26.28,10.21ZM437.5,1227.4l.06.04c.15.17.11.17.14.28-.34,1.25-1.68,1.99-2.43,3.24-1.77,2.57-1.21,6.82.16,9.6,1.3,2.57,3,3.64,3.63,5.85.89,4.46.52,9.95-.83,14.26-2.25,4.62-3.81-1.21-3.97-3.52-1.45-10.27-9.35-30.61,3.24-29.74ZM255.7,1319.72c.97,1.2-.31,4.43-.7,7.86-.94,5.27-1.29,12.11-3.69,16.41l-.09.15c-2.23,3.35-7.1,6.58-9.14,10.56-1.3,2.39-3.5,8.49-4.36,3.85.64-11.09,7.21-30.93,15.29-37.74.71-.57,2.01-1.56,2.68-1.09ZM65.9,1312.09c-4.73-14.33-1.24-27.97,10.91-37.08,2.03-1.58,4.11-2.91,6.25-4.11,34.14-17.59,67.29-39.02,101.53-56.54,4.6-2.45,9.21-4.59,14.31-6.24,1.52-.55,4.43-1,4.95-.3l.06.06c.29.33.18.54.14.9-1.02,2.55-3.45,4.3-4.68,7.02-3.54,9.5-6.14,23.9,1.27,31.64,2.6,2.34,6.81,2.4,10.33,2.29,4.58.14,10.6-.79,14.64.82,1.55.68,1.19,1.91-.46,3.27-6.97,5.63-27.56,22.18-38,30.56-2.17,1.81-5.23,3.44-8.09,5.14-21.82,12.81-42.7,31.49-65.58,41.24-6.15,2.52-13.34,3.18-20.01,2.97-12.65,0-23.65-9.95-27.58-21.64ZM117.67,1361.07c-5.06-.31-9.03-.71-12.95-4.35-3.06-2.8-16.57-14.46-7.29-16.44,32.02-2.46,61.69-25.41,86.57-44.57,2.88-2.01,7.01-6.7,10.63-4.51l.11.1c2.41,2.39,1.01,7.05-.98,9.15-1.89,1.98-4.47,2.83-6.62,4.56-14.41,12.49-30.35,26.81-43.67,41.13-3.1,3.08-4.75,7.35-7.13,10.86-4.17,5.49-12.48,4.01-18.66,4.06ZM214.41,1440.95c-5.49-1.49-13.71-4.35-14.95-10.35-.19-1.91.87-3.71,1.97-5.24,2.67-3.49,4.82-7.28,7.21-10.9,2.11-3.32,5.74-5.41,7.53-8.87.88-1.63,1.33-3.62,2.18-5.23,2.55-4.16,3.06,2.44,2.88,5.05-.03,5.83-.46,11.7-.63,17.51,0,4.61-.47,9.09.82,13.45l.06.2c2.8,6.77-2.38,5.56-7.08,4.38ZM186.34,1431.05c-3.55,3.01-6.41,6.93-10.93,8.43-11.38,3.57-24.97-1.56-33.99-8.68-4.09-3.17-5.1-8.47-7.79-12.63-2.44-3.32-4.67-5.77-4.57-9.84-.26-5.46-.22-14.05.07-19.02.1-3.1.76-5.61,1.98-8.38,1.85-4.38,5.43-12.45,7.6-17.08,1.15-2.43,1.88-3.93,3.17-5.89,8.21-11.43,32-35.04,45.28-44.77,1.96-1.18,4.28-2.55,6.59-1.88,2.22.69,2.89,4.11,5.1,6.3,5.3,4.87,12.91,4.4,19.93,3.27,10.98-2.11,22.45-8.45,30.78-14.27,6.77-4.47,4.01,2.77.89,5.29-1.44,1.43-2.99,2.84-4.28,4.44-4.21,5.11-5.63,11.93-8.34,17.8l-.09.2c-15.31,32.28-23.4,72.14-51.41,96.73ZM305.52,1467.12l-.08.04c-4.47.89-9.6-5.08-12.44-8.43-5.1-6.07,2.83-10.31,4.26-15.96.99-3.07,1.29-6.61,1.61-9.82.11-.85.11-1.51.34-2.22.22-.52.51,1.41,1.03,4.08.69,3.62,1.68,8.82,2.66,13.98.86,4.5,1.59,8.38,2.33,12.24.59,3.44,1.34,5.43.3,6.09ZM309.04,1344.84c-1.62,2.84-3.52,6.06-4.01,9.57-6.32,31.15-3.43,94.38-31.75,112.72-6.07,1.45-14.28.53-20.54-1.14-7.23-1.76-11.85-8.95-16.91-14-11.43-13.15-7.96-47.55-2.5-63.15,1.82-3.62,4.93-5.8,6.39-9.69,2-5.25,4.74-14.01,8.07-17.45,2.28-2.29,3.68.13,4.78,2.23,4.58,12.56,18.13,5.59,27.8-2.8,4.97-4.22,8.89-9.45,13.06-14.5,7.28-8.16,9.1-19.48,14.84-28.53,8.58-9.82,3.56,23.92.86,26.57l-.09.17ZM363.03,1482.62c-.39.83-.85,1.47-1.62,2.06l-.09.07c-7.4,4.37-22.69,3.07-29.91,1.4-2.57-.61-4.68-2.12-6.29-4.2-5.78-7.73-12.01-18.13-13.13-28.07-5.31-32.2,1.35-65.79,4.55-97.99.15-1.66.51-3.89,1.37-5.05,4.48-5.26,7.54,12.66,24.18,4.52,2.78-1.34,5.47-3.16,8.17-4.88,2.48-1.41,7.04-5,7.14-1.48-1.69,19.62,5.4,67.45,7.33,102.02.81,14.68.64,26.47-1.7,31.59ZM383.27,1476.74c-7.58-2.66-8.93-11.25-10.05-18.2-2.25-15.56-1.12-33.85-3.2-48.17-.31-3.47-2.31-6.07-4.13-8.94-1.78-2.82-1.98-6-2.29-9.4-1.14-16.04-3.04-34.92-.58-51.26,1.34-6.68,5.48-12.21,8.19-18.35,1.35-2.74,2.03-7.31,3.78-8.76.83-.74,2.04-1.12,3.23-1.34,5.3-.92,16.2-2.67,21.06-3.47,1.08-.13,2.28-.46,3.21-.04l.07.04c.54.41.7,1.04.89,1.79.95,4.47,3.81,19.17,5.18,26,6.32,33.17,15.35,78.56,12.36,112.91-1.78,18.78-18.71,33.07-37.71,27.18ZM437.6,1475.49c-3.94.07-14.36.02-18.86.03-.7-.01-1.83-.05-2.07-.59-.18-.45-.04-.83.18-1.44.88-2.07,2.44-5.04,3.77-7.11,5.13-9.12,10.33,1.71,15.7,5.57l.17.12c1.41,1.01,4.83,3.11,1.12,3.42ZM461.89,1465.13c-5.98,1.49-12.84.48-18.79-1.05-5.04-1.32-10.07-4.88-13.36-8.55-2.54-2.88-2.6-6.4-2.89-10.21-.76-12.32.69-28.66-.4-41.53-.31-3.87-.95-7.32-1.87-10.99-5.76-22.41-9.68-50.22-15.47-73.6-.86-5.87-3.21-12.6-.36-18.18,2.06-3.45,5.67-6.12,7.19-10.13,7.57-17.51,4.06-35.85,3.05-54.38-.09-1.6-.14-3.45.53-4.78.96-2.02,3.07-2.54,4.48-1.17l.11.1c1.35,1.18,1.54,3.88,1.6,5.93.87,17.38,5,34.74,9,51.7,9.7,41.41,28.02,83.29,38.83,123.62,1.76,6.82,3.18,14.31,3.63,21.29.79,13.18-1.05,28.19-15.29,31.94ZM531.11,1444.5c-1.72,2.36-6,6.67-8.94,8.62-8.28,4.11-23.49,4.18-30.87.84-3.38-1.6-4.45-4.21-4.8-8.3-.93-8.13.15-21.47-1.94-30.43-1.52-4.72-5.96-8.6-7.12-13.82-7.5-24.95-15.69-48.92-22.34-73.94-.49-1.87-1.08-6.92,1.85-3.58l.1.12c8.9,12.97,15.7,39.68,22.4,53.96,2.47,5.35,4.89,9.92,7.85,15.41,10.11,17.16,24.23,45.62,41.94,48.71,1.4.3,2.91.9,1.88,2.41ZM491.62,1222.24c27.6,54.2,67.5,106.36,92.55,162.42.57,1.26,1.11,2.47,1.78,3.65,2.57,4.23,7.01,7.8,7.3,13.41.53,6.21,1.03,11.69-3.86,15.58-4.56,3.6-9.31,7.81-14.47,10.43-4.59,2.34-10.26,3.23-15.22,4.8-4.05,1.51-6.89,5.17-11.4,5.46-10.13.77-20.04-4.38-26.99-11.45-19.61-20.21-40.28-68.84-51.72-100.28-12.32-32.54-12.47-62.76-19.27-94.65-.53-3.54-6.32-7.09-3.74-10.36,1.25-1.42,3.39-2.02,5.19-2.65,9.3-2.48,21.48-18.11,31.07-15.13l.15.08c1.43.76,2.41,2.68,3.01,4.36,1.74,4.82,3.45,9.79,5.62,14.34ZM1222.57,1252.14c-9,2.5-19.2,2.3-27.74,4.4-3.85,1.22-6.53,4.3-10.42,5.49-7.18,1.66-15.41,2.17-22.44-.29-4.8-2.21-8.6-6.2-13.93-7.7-33.87-11.83-62.71-26.55-95.78-39.78-1.81-1.02-4.73-3.07-3-4.58,2.29-1.44,7.45.82,10.15,2.18l.19.09c44.91,21.82,98.41,37.38,149.36,33,3.7.18,19.46-1.14,19.36,3.49-.77,2.29-3.61,2.99-5.75,3.7ZM1412.08,517.01c-.37,25.76-2.23,51.09-1.48,76.81.23,7.58.63,15.45,1.45,23.64.3,3.21,2.55,10.65-2.77,7.99-8.11-5.68-7.8-19.99-8.75-29.05-4.45-92.5-2.69-199.56,19.67-290.42,5.07-21.06,5.67-42.92,10.67-64,1.46-6,3.06-11.72,4.25-17.78,6.47-32.33,7.04-68.85,13.01-100.58.46-2.29.81-4.6,1.51-6.83,1.22-3.78,4.23-6.18,4.82-10.27.6-2.71-.27-6.56,1.48-8.6.9.05.87,2.32,1,3.3.12,6.17.27,12.45.3,18.63-.38,13.26-1.17,29.35-3.47,41.38l-.04.13c-8.58,23.07-8.13,50.33-13.56,74.39-13.6,47.99-8.89,104.71-20.49,154.66-8.19,40.68-6.86,83.4-7.61,126.61ZM932.73,796.28c7.13,4.23,15.14,8.1,23.26,10.99,5.31,1.66,10.73,3.17,14.14,7.94,3.62,4.57,7.78,8.99,9.42,14.64,1.12,3.08,1.63,6.79,3.2,9.61,3.38,4.52,7.39.95,8.09-3.26,1.97-6.97,7.74-16.49,12.11-21.48,4.83-5.45,10.29-7.13,17.8-10.3,4.76-1.88,9.84-3.74,14.27-5.54,5.91-2.15,10.9-5.34,15.86-9.46,4.47-3.36,8.2-6.57,10.32-11.43,3.28-6.35,7.12-16.15,8.56-22.35.95-3.83.72-7.81-.13-11.65-1.07-4.9-4.79-8.4-6.98-12.98-2.14-4.54-4-8.85-7.86-11.43-7.07-4.5-16.31-4.88-24.32-5.08-8.05-.03-16.65,1.16-23.73,4.28-6.53,2.78-11.8,7.42-14.96,13.78-1.43,2.87-5.18,6.27-8.04,3.19-1.54-1.42-2.35-3.96-4.1-6.41-2.38-3.36-5.39-6.5-8.8-8.74l-.16-.1c-17.05-9.81-46.19-9.88-58.67,6.59-8.13,11.34-7.99,35.28-1.3,46.83,5.52,7.53,14.22,16.29,22.03,22.36ZM913.49,749.8c1.13-1.94,2.87-3.48,3.76-5.64,1.67-4.35,2.13-9.48,5.69-13,9.42-9.66,35.78-5.95,45.42.7l.16.12c3.53,2.66,6.74,7.66,9.58,11.47,2.25,2.64,5.71,8.82,9.37,6.48,5.95-4.6,12.52-15.82,20.14-20,7.86-3.26,28.6-5.7,36.93-2.81,7.7,4.26,15.33,16.27,15.79,25.06.55,5.21-1.68,10.42-5.32,14.18-2.56,2.81-4.14,6.49-6.38,9.44-9.54,10.28-29.41,13.07-41.1,20.71-5.27,3.49-9.89,9.18-15.03,12.83-4.36,3.03-7.45,4.01-11.27.3-3.84-3.58-7.84-8.19-12.2-11.33-9.28-6.83-20.67-7.9-30.23-12.56-3.22-1.66-5.43-4.56-8.31-6.63-2.06-1.53-4.53-2.58-6.4-4.38-4.36-4.26-4.63-11.95-7.15-17.23-1.03-2.53-4.92-4.78-3.45-7.68ZM472.75,1061.89c-2.78,3.31-2.48,4.76,1.15,7.17,11.87,8.08,15.15,24.28,15.38,39.01.23,1.54.62,3.25,1.76,1.69.87-1.34,1.72-4.61,3.04-6.49,2.04-3.02,5.2-5.06,7.24-8.08,4.01-5.61,8.48-12.41,15.17-15.31,2.03-.98,5.8-1.52,6.29,1.13.04.79-.34,1.46-.85,2.08-6.36,7.1-40.37,45.64-47.17,53.08-2.11,1.41-5.92.15-6.13-2.66-.28-3.65-.06-9.01-.13-13.81.19-7.84-.15-7.18-6.45-5.14-5.76,2.03-8.12,2-7.1-5.51-.17-1.59,3.28-13.98.42-12.68-.8.44-2.17,2.04-3.58,3.47-1.36,1.43-2.99,2.49-4.33,3.91-6.72,7.44-2.63,23.58-1.95,30.19.12,1.03.12,2.14-.85,2.63-1.21.64-3.83.2-5.44-.29-15.39-4.36-12.12-26.79-6.39-40.87.85-2.19.37-3.12-1.81-3.01-5.07.31-13.75,1.18-18.24,1.58-1.95.12-3.3,1-3.7,3.04-.6,3.28-2.05,6.31-5.92,4.93-3.26-1-6.17-2.93-7-6.12-.54-1.7-.47-3.85,1.17-4.89,2.49-1.66,6.33-.49,8.48-2.85,2.95-3.74,4.57-5.57,9.61-6.02,15.7-2.67,28.88-11.17,43.82-14.73,3.06-.93,5.19-3.23,6.47-6.11,4.83-10.77,11.25-20.12,11.96-32.47.16-1.88.01-3.96,1.28-5.42,1.46-1.69,4.98-1.82,6.57-.94l.11.07c2.21,1.18.06,9.74-.04,12.31-.23,1.59-.44,3.13-.83,4.65-1.04,4.26-4.44,6.64-6.08,10.61-1.72,4.05-3.34,8.61-5.96,11.87ZM1453.57,819.73c.05-1.76-2.32-4.13-3.36-6.31-2.66-6.92-2.91-14.94-4.11-22.34-1.6-22.16-14.27-41.33-19.17-62.66-2.48-11.76-4.47-26.04-5.7-38.19.05-.22.26.31.64,1.56.1.34.22.72.34,1.15,1.98,6.91,4.56,15.89,6.56,22.83l.05.17c8.72,30.43,21.42,59.88,28.69,90.12,1.35,6.31,2.34,13.73.98,19.22-2.06,9.79-14.05,9.57-20.47,15.26-10.17,7.82-12.62,19.6-16.49,31.36-1.58,3.74-4.33,6.38-5.01,10.33-.43,2.45-.15,6.19-.86,7.75-1.81,3.46-3.57-3.6-3.66-5.94-.35-3.65-.02-7.51.58-11.16,1.66-9.71,5.07-19.25,11.32-26.98,5.96-7.3,13.13-11.09,20.46-17.35,2.3-2.14,5.35-4.03,7.59-6.02,1.03-.98,1.63-1.88,1.62-2.8ZM632,1125.7c2.76-.43,5.67,1.17,8.79,2.71l.22.11c16.89,9.04,33.73,10.83,51.02,15.53,2.9.74,6.16,2.02,8.78,2.3,7,.36,48.06,2.35,78.83,3.86,11.78.6,24.91,1.17,33.75,1.68.48.09.61.35.5.88-1.22,3.69-5.69,5.59-10.07,5.53-6.37.14-14.05.56-20.35-.43-4.05-.93-6.64-4.03-11.16-5.02-1.1-.26-2.27-.43-3.44-.56-38.98-3.67-71.82,5.67-110.82-8.9-7.71-3-16.89-5.46-24.13-10.21-3.09-1.91-6.2-6.25-1.92-7.48ZM1551.97,756.81c-.88-4.22,16.47-5.2,19.75-5.84,53.72-6.29,106.85-15.7,160.62-13.04h.05c-7.95,2.07-20.88,3.25-29.36,5.68-38.45,9.57-88.08,4.07-127.21,11.85-4.69,1.46-8.32,5.89-13.74,5.65-4,0-8.75-.45-10.11-4.29ZM1442.25,929.06c-.09-2.69,1.61-4.65,3.27-3.49l.11.08c1.97,1.58,2.66,4.6,4.79,6.35,2.44,2.02,5.82,3.25,8.47,5.27,25.75,20.28,52.44,39.51,78.49,59.14,3.75,3,2.99,3.89-1.3,2.79-5.29-1.52-11.1-2.74-15.39-6.24-2.83-2.54-5.24-5.68-8.65-7.55-18.56-11-41.55-23.65-58.4-38.04-5.35-4.36-10.74-11.54-11.4-18.32ZM737.89,755.53c-.65-1.1.1-1.8,1.41-2.18,15.97-3.01,47.55-14.41,45.54,8.66-.38,4.97-3.24,9.31-7.55,11.65-7.52,4.17-20.75,4.3-26.22-2.78l-.1-.16c-1.44-2.19-1.79-5.6-3.07-7.69-2-3.25-8.41-4.59-10.02-7.5ZM1221.42,790.72l.11.11c1.57,1.64.76,4.3-1.5,5.23-1.07.47-2.21.69-3.35,1.06-2.99.93-5.7,3.05-8,5.21-3.47,3.53-6.32,6.7-11.35,5.82-13.37-2.03-11.03-25.91,3.56-24.85,4.54.59,9.07,3.98,13.61,5.39,2.37.96,5.72.78,6.93,2.03ZM1447.94,958.99c-1.97-3.85-.77-8.48,4.51-7.22,3.71.88,7.17,3.87,10.07,6.37,3.01,2.63,6.31,5.37,9.47,7.96l.17.14c4.84,3.92,9.29,8.98,14.54,12.58,9.88,6.42-2.36,5.86-6.78,3.91-9.33-3.47-27.31-14.52-31.98-23.74ZM360.31,1112.6c.16,2.12-.64,7.98.53,8.19l.08.02c2.19.26,9.8-6.38,10.47-4.39.22.83-.5,3.27-1.11,5.38-.6,2.35-2.16,4.34-4.58,4.96-4.36,1.44-8.6-1.3-9.79-5.6-1.54-4.72.6-12.28-1.11-16.58-.67-1.63-1.91-2.66-2.84-4.21-1.45-2.2-1.46-5.44-.37-7.98,8.77-16.6,8.93,10.39,8.71,20.21ZM453.71,1150.57c1.02,4.55-3.66,9.34-6.44,12.27l-.13.17c-4.39,6.46-4.05,16.11-10.04,21.63-1.86,1.72-4.02,2.51-4.89,1.57-2.8-6.48,8.87-27.38,12.9-33.17,1.44-2.53,7.32-6.85,8.61-2.47ZM1604.42,1010.9c-8.48-8.59,4.29-6.73,7.5-1.68,1.57,2.23,2.32,4.94,3.97,7.12l.13.17c2.94,3.93,7.59,6.33,9.65,11.03,1.03,2.47,2.05,6.2-.21,7.35-1.15.36-2.27-.27-3.28-.93-8.39-5.91-10.34-16.29-17.77-23.06ZM853.83,1168.99c-2.06-.76-1.9-3.15-.73-4.63,3.32-4.61,11.89-.77,18.64-.28.94.11,2.13.3,2.69.95l.08.11c.49.64.25,1.6-.16,2.31-2.96,5.28-14.01,3.22-20.53,1.54ZM463.25,711.95c.03,1.48,1.1,4.42-.85,4.75-1.93-.08-5.09-1.93-5.25-4.24-1.19-8.08-4.89-35.6-6.76-48.17-.69-2.47-2.89-3.2-4.16-5.9-.88-1.61-1.28-3.41-1.47-5.23-1.19-12.17-1.1-26.05-1.49-38.51-.47-4.04,1.58-6.67,5.58-6.16l.12.02c1.07.2,1.34.53,1.41,1.39.8,9.36,6.08,71.52,6.99,82.18.42,2.94,3.14,3.64,4.32,7.26,1.32,3.51.97,8.16,1.56,12.61Z"/></g></svg>